<svg xmlns="http://www.w3.org/2000/svg" data-name="Layer 2" viewBox="0 0 700 400"><path fill="#c6ebed" d="M237.95513 110.87675l-11.8047 1.9012a56.98792 56.98792 0 00-18.1268-23.2534l-.0003-.00022 4.4744-11.75848L184.917 67.27033l-4.2503 11.16922-.0002-.0001a56.98452 56.98452 0 00-29.2055 4.0881l-7.9543-9.7574-22.8812 18.64118 7.5547 9.26792a57.28335 57.28335 0 00-11.0733 27.3257l-12.4286 2.0009 4.7001 29.1367 11.8047-1.9009a57.1346 57.1346 0 0018.1267 23.2536l-4.4743 11.7584 27.5967 10.50129 4.2559-11.18439h0a56.8027 56.8027 0 0029.1997-4.0721l7.9485 9.7728 22.881-18.6417-7.5544-9.2676a56.595 56.595 0 007.7704-14.0737 57.18093 57.18093 0 003.3086-13.2678l12.4128-2.0067zm-42.285 29.6382a20.47608 20.47608 0 01-.8009 2.5719 23.06671 23.06671 0 01-2.6917 5.0668 22.69529 22.69529 0 01-20.6571 9.4364 22.65849 22.65849 0 01-19.8477-28.064 20.45537 20.45537 0 01.8012-2.5719 22.66511 22.66511 0 0129.259-13.1423 22.67878 22.67878 0 017.7117 4.8882 23.09647 23.09647 0 014.8604 6.8752A22.66676 22.66676 0 01195.67013 140.515zM625.92573 138.26965l-9.0996 1.4656a43.92915 43.92915 0 00-13.9731-17.92492l-.0002-.00018 3.4491-9.064-21.2605-8.0904-3.2764 8.6097h-.0001a43.92608 43.92608 0 00-22.513 3.1513l-6.1316-7.5215-17.638 14.3696 5.8236 7.1441a44.15541 44.15541 0 00-8.5358 21.064l-9.5806 1.5423 3.623 22.46008 9.0997-1.46538a44.04123 44.04123 0 0013.9729 17.925l-3.449 9.064 21.2729 8.095 3.2807-8.62161h0a43.7866 43.7866 0 0022.5085-3.13888l6.1271 7.53329 17.6378-14.36989-5.8234-7.1439a43.62118 43.62118 0 005.9899-10.8488 44.07835 44.07835 0 002.5504-10.2274l9.5684-1.5469zm-32.5953 22.8466a15.78341 15.78341 0 01-.6174 1.9825 17.78456 17.78456 0 01-2.0749 3.9058 17.49426 17.49426 0 01-15.9235 7.274 17.4663 17.4663 0 01-15.2996-21.6331 15.78575 15.78575 0 01.6176-1.9825 17.49691 17.49691 0 0128.4988-6.3627 17.8025 17.8025 0 013.7467 5.2997A17.47291 17.47291 0 01593.33043 161.11625z" opacity=".44" class="colorc6ebed svgShape"/><circle cx="456.568" cy="97.133" r="33.544" fill="#d5e1e5" transform="rotate(-50.091 456.568 97.133)" class="colord5e1e5 svgShape"/><circle cx="501.32" cy="192.502" r="66.016" fill="#d5e1e5" transform="rotate(-14.893 501.32 192.502)" class="colord5e1e5 svgShape"/><circle cx="386.065" cy="180.889" r="72.964" fill="#d5e1e5" transform="rotate(-31.499 386.065 180.889)" class="colord5e1e5 svgShape"/><path fill="#ffffff" d="M325.98723,202.03533l10.9831-1.53649a52.993,52.993,0,0,0,16.3633,21.9107h.0001l-4.3746,10.8179,25.3893,10.2671,4.161-10.2898a52.68483,52.68483,0,0,0,27.1555-3.21641l7.1835,9.215,21.5753-16.848-6.8279-8.739a52.4699,52.4699,0,0,0,7.4755-12.90169,53.00649,53.00649,0,0,0,3.3223-12.23969l11.5496-1.6232-3.7998-27.1089-10.9831,1.5363a52.85363,52.85363,0,0,0-16.3634-21.9106l-.0001-.0001,4.3746-10.8178-25.375-10.26132L393.641,128.565a52.85381,52.85381,0,0,0-27.1613,3.2306l-7.1892-9.2007-21.5752,16.8478,6.8279,8.7392a53.13569,53.13569,0,0,0-10.7921,25.1271l-11.5637,1.6173Zm40.5801-29.02268a21.05362,21.05362,0,0,1,34.4419-6.9452,21.42917,21.42917,0,0,1,4.3753,6.4685,21.0252,21.0252,0,0,1,.9794,13.8798,19.04346,19.04346,0,0,1-.7921,2.3698,21.3813,21.3813,0,0,1-2.5932,4.64678,21.04989,21.04989,0,0,1-19.3363,8.35451,21.01664,21.01664,0,0,1-17.8673-26.40451A19.0058,19.0058,0,0,1,366.56733,173.01265Z" opacity=".55" class="colorfff svgShape"/><path fill="#d5e1e5" d="M237.07043,64.58285a25.62848,25.62848,0,1,1-25.034,26.2097A25.62853,25.62853,0,0,1,237.07043,64.58285Z" class="colord5e1e5 svgShape"/><g opacity=".55" fill="#000000" class="color000 svgShape"><path fill="#ffffff" d="M232.68473,72.87775a17.87367,17.87367,0,1,0,4.2182-.60442A17.76771,17.76771,0,0,0,232.68473,72.87775Zm11.7037,17.0075a7.0789,7.0789,0,0,1-.5055,2.8037,7.21368,7.21368,0,0,1-1.4152,2.2133,7.07309,7.07309,0,0,1-4.1569,2.1518,6.40711,6.40711,0,0,1-.8378.071,7.20125,7.20125,0,0,1-1.7808-.1818,7.07754,7.07754,0,0,1,.6189-13.8972,6.39814,6.39814,0,0,1,.8375-.0709,7.07168,7.07168,0,0,1,7.2398,6.9101Z" class="colorfff svgShape"/><path fill="#ffffff" d="M243.88293,92.689l1.3081,2.1508,4.721,7.7603,1.9381,3.188-7.8678,4.7856-2.0401-3.3514-4.8396-7.9596-1.4104-2.3194a7.20125,7.20125,0,0,0,1.7808.1818,6.40711,6.40711,0,0,0,.8378-.071,7.07309,7.07309,0,0,0,4.1569-2.1518A7.21368,7.21368,0,0,0,243.88293,92.689Z" class="colorfff svgShape"/><path fill="#ffffff" d="M230.53513,92.08345a7.08279,7.08279,0,0,0,5.1571,4.8598,7.20125,7.20125,0,0,0,1.7808.1818,6.40711,6.40711,0,0,0,.8378-.071l-1.2082,2.2086-4.3654,7.974-1.7896,3.2735-8.0789-4.41982,1.8894-3.44678,4.4697-8.168Z" class="colorfff svgShape"/><path fill="#ffffff" d="M216.20223,85.559l15.962-.3663a7.08354,7.08354,0,0,0-.4202,9.2251l-15.3305.3519Z" class="colorfff svgShape"/><path fill="#ffffff" d="M230.64443,69.52125l2.0403,3.3565,4.8394,7.9545L238.94,83.162a7.01153,7.01153,0,0,0-1.7914-.1868,6.39814,6.39814,0,0,0-.8375.0709,7.0829,7.0829,0,0,0-5.5671,4.3599l-1.3083-2.1507-4.7209-7.7604-1.9382-3.1879Z" class="colorfff svgShape"/><path fill="#ffffff" d="M243.67413,69.59015l8.0788,4.4197-1.8841,3.4468-4.4697,8.168-1.3075,2.3869a7.07433,7.07433,0,0,0-6.943-5.0364,6.39814,6.39814,0,0,0-.8375.0709l1.213-2.2138,4.3601-7.9686Z" class="colorfff svgShape"/><path fill="#ffffff" d="M242.88293,85.68225l15.3305-.3517.2113,9.2057-15.957.366a7.21368,7.21368,0,0,0,1.4152-2.2133,7.1108,7.1108,0,0,0,.2087-4.6774A7.00129,7.00129,0,0,0,242.88293,85.68225Z" class="colorfff svgShape"/></g><path fill="#ffffff" d="M457.25613 211.11044a47.94521 47.94521 0 0015.1903 19.5307l-3.7656 9.8633 23.1489 8.838 3.5818-9.382h.0002a47.66582 47.66582 0 0024.5077-3.3905l6.6613 8.2087 19.2188-15.6226-6.3313-7.7844a47.487 47.487 0 006.5339-11.8032 47.96435 47.96435 0 002.7885-11.1312l10.419-1.67259-3.9173-24.4556-9.9082 1.5845a47.82011 47.82011 0 00-15.1904-19.5305l3.7658-9.8634-23.1361-8.8332-3.5769 9.369a47.82045 47.82045 0 00-24.5129 3.4035l-6.6663-8.1957-19.2184 15.6226 6.331 7.7846a48.07653 48.07653 0 00-9.3175 22.9211l-10.4318 1.66778 3.9173 24.45561zM482.86793 187.88a17.24955 17.24955 0 01.6748-2.1577 19.01894 19.01894 0 0124.566-11.0016 19.03678 19.03678 0 016.4672 4.109 19.38909 19.38909 0 014.0723 5.7739 19.0225 19.0225 0 011.132 12.5385 17.25424 17.25424 0 01-.6748 2.15759 19.34712 19.34712 0 01-2.2635 4.2495 19.04617 19.04617 0 01-17.3436 7.9A19.0152 19.0152 0 01482.86793 187.88zM429.08273 107.32133l5.0425-.79068a24.38858 24.38858 0 007.697 9.9583l-1.9308 5.0115 11.7619 4.5313 1.8365-4.7667h0a24.2476 24.2476 0 0012.4717-1.6869l3.376 4.1859 9.8001-7.9174-3.2084-3.96932a24.48746 24.48746 0 004.7775-11.652l5.3023-.83478-1.9548-12.4459-5.0426.7906a24.32332 24.32332 0 00-7.6968-9.9584l1.9308-5.0116-11.7554-4.5287-1.8339 4.7602a24.32577 24.32577 0 00-12.4743 1.6935l-3.3785-4.1792-9.8001 7.9171 3.2084 3.9696a24.45621 24.45621 0 00-4.7749 11.6453l-5.309.8321zm18.1066-12.56818a8.782 8.782 0 01.3466-1.0965 9.67474 9.67474 0 0112.5132-5.5582 9.68238 9.68238 0 013.2835 2.1001 9.86695 9.86695 0 012.0626 2.9433 9.67658 9.67658 0 01.5564 6.3799 8.77777 8.77777 0 01-.3466 1.0965 9.84463 9.84463 0 01-1.1579 2.1582 9.68841 9.68841 0 01-8.8345 3.9917 9.58025 9.58025 0 01-2.5248-.6007 9.66947 9.66947 0 01-5.8985-11.4143z" opacity=".55" class="colorfff svgShape"/><circle cx="201.051" cy="159.215" r="46.332" fill="#d5e1e5" transform="rotate(-70.031 201.051 159.215)" class="colord5e1e5 svgShape"/><g opacity=".55" fill="#000000" class="color000 svgShape"><path fill="#ffffff" d="M167.73993,155.08965a33.73721,33.73721,0,1,0,1.945-7.8051A33.53737,33.53737,0,0,0,167.73993,155.08965Zm38.0622-8.3591a13.35675,13.35675,0,0,1,4.542,2.879,13.60528,13.60528,0,0,1,2.8626,4.049,13.351,13.351,0,0,1,.804,8.7991,12.08658,12.08658,0,0,1-.4718,1.5146,13.57925,13.57925,0,0,1-1.5853,2.9843,13.366,13.366,0,0,1-12.1661,5.5576,13.34536,13.34536,0,0,1-11.6898-16.5286,12.083,12.083,0,0,1,.472-1.5147,13.34865,13.34865,0,0,1,17.2324-7.7403Z" class="colorfff svgShape"/><path fill="#ffffff" d="M210.34413,149.60955l4.6913-.7566,16.9269-2.7314,6.9526-1.1197,2.768,17.16048-7.3109,1.182-17.3596,2.79692-5.0588.8153a13.57925,13.57925,0,0,0,1.5853-2.9843,12.08658,12.08658,0,0,0,.4718-1.5146,13.351,13.351,0,0,0-.804-8.7991A13.60528,13.60528,0,0,0,210.34413,149.60955Z" class="colorfff svgShape"/><path fill="#ffffff" d="M199.78753,172.51415a13.366,13.366,0,0,0,12.1661-5.5576,13.57925,13.57925,0,0,0,1.5853-2.9843,12.08658,12.08658,0,0,0,.4718-1.5146l3.0017,3.6836,10.8346,13.3062,4.4493,5.4581-13.476,10.9793-4.6816-5.7559-11.0994-13.6265Z" class="colorfff svgShape"/><path fill="#ffffff" d="M178.18123,192.92975l10.7184-28.1671a13.37259,13.37259,0,0,0,15.8292,7.2996l-10.2941,27.05239Z" class="colorfff svgShape"/><path fill="#ffffff" d="M160.41993,156.26815l7.32-1.1785,17.3507-2.8004,5.0805-.8174a13.22168,13.22168,0,0,0-1.6014,2.999,12.083,12.083,0,0,0-.472,1.5147,13.36964,13.36964,0,0,0,3.661,12.8354l-4.6911.7566-16.9269,2.7314-6.9526,1.1197Z" class="colorfff svgShape"/><path fill="#ffffff" d="M169.81213,133.53755l13.4762-10.97922,4.6849,5.74682,11.0995,13.6264,3.2426,3.98478a13.35345,13.35345,0,0,0-13.7456,8.55452,12.083,12.083,0,0,0-.472,1.5147l-3.0071-3.6963-10.829-13.2933Z" class="colorfff svgShape"/><path fill="#ffffff" d="M197.38313,146.37165l10.2943-27.05232,16.2441,6.18142-10.7148,28.1578a13.60528,13.60528,0,0,0-2.8626-4.049,13.41939,13.41939,0,0,0-8.0288-3.69322A13.20928,13.20928,0,0,0,197.38313,146.37165Z" class="colorfff svgShape"/></g><circle cx="169.373" cy="98.467" r="15.97" fill="#818bea" transform="rotate(-81.055 169.373 98.467)" class="color818bea svgShape"/><path fill="#ffffff" d="M175.78943,88.919h-12.8319a3.54,3.54,0,0,0-3.536,3.536v8.5246a3.54794,3.54794,0,0,0,2.86,3.4672v5.3703a.46123.46123,0,0,0,.8681.2172l2.9477-5.5188h9.6921a3.53992,3.53992,0,0,0,3.5359-3.5359V92.455A3.54,3.54,0,0,0,175.78943,88.919Zm2.6135,12.0606a2.61651,2.61651,0,0,1-2.6135,2.6135h-9.9686a.46151.46151,0,0,0-.407.244l-2.2098,4.1375v-3.93122a.46122.46122,0,0,0-.4288-.46008,2.62049,2.62049,0,0,1-2.4313-2.6037V92.455a2.61653,2.61653,0,0,1,2.6136-2.6135h12.8319a2.61651,2.61651,0,0,1,2.6135,2.6135Z" class="colorfff svgShape"/><circle cx="600.901" cy="123.727" r="16.11" fill="#fe6348" class="colorfe6348 svgShape"/><path fill="#ffffff" d="M607.37283,114.095h-3.0569a8.36556,8.36556,0,0,1,.001.9305h3.0559a2.63958,2.63958,0,0,1,2.6365,2.6365v8.5992a2.63956,2.63956,0,0,1-2.6365,2.6364H597.317a.46532.46532,0,0,0-.4105.2461l-2.2293,4.17368v-3.96558a.46518.46518,0,0,0-.4325-.4641,2.64348,2.64348,0,0,1-2.4526-2.6265V117.662a2.63958,2.63958,0,0,1,2.6365-2.6365h.68c-.0338-.203-.0685-.8265-.0648-.9305h-.6152a3.571,3.571,0,0,0-3.567,3.567v8.5992a3.579,3.579,0,0,0,2.8851,3.4975v5.4173a.46528.46528,0,0,0,.8757.2192l2.9736-5.5672h9.7768a3.57093,3.57093,0,0,0,3.567-3.5668V117.662A3.571,3.571,0,0,0,607.37283,114.095Z" class="colorfff svgShape"/><path fill="#ffffff" d="M599.59163,122.22615l-.7583-7.7297v-3.57412h3.1585v3.57412l-.7478,7.7297Zm-.6336,3.9274v-2.9195h2.9197v2.9195Z" class="colorfff svgShape"/><circle cx="431.849" cy="119.865" r="15.797" fill="#01a2a3" transform="rotate(-50.158 431.849 119.865)" class="color01a2a3 svgShape"/><path fill="#ffffff" d="M438.19543,110.41933h-1.7378v.91242h1.7378a2.58834,2.58834,0,0,1,2.5853,2.5853v8.4325a2.58826,2.58826,0,0,1-2.5853,2.5852h-9.8608a.45641.45641,0,0,0-.4026.2413l-2.186,4.0928v-3.8887a.456.456,0,0,0-.4241-.455,2.5924,2.5924,0,0,1-2.4051-2.5756v-8.4325a2.58834,2.58834,0,0,1,2.5853-2.5853h.6669c-.0332-.1991-.0672-.8105-.0635-.91242h-.6034a3.50171,3.50171,0,0,0-3.4977,3.49772v8.4325a3.50947,3.50947,0,0,0,2.8292,3.4296v5.3123a.45625.45625,0,0,0,.8587.21488l2.9158-5.45918h9.5873a3.50163,3.50163,0,0,0,3.4977-3.4976v-8.4325A3.50171,3.50171,0,0,0,438.19543,110.41933Z" class="colorfff svgShape"/><path fill="#ffffff" d="M430.28533,117.07105l-.0208-.5416a5.25049,5.25049,0,0,1,.5105-2.4384,9.11013,9.11013,0,0,1,1.4897-1.8563,5.564,5.564,0,0,0,1.0107-1.2892,2.45612,2.45612,0,0,0,.2395-1.0787,2.63043,2.63043,0,0,0-.7309-1.8763,2.25331,2.25331,0,0,0-1.681-.7728,2.17959,2.17959,0,0,0-1.6442.7101,3.96454,3.96454,0,0,0-.8717,2.2601l-1.5735-.21062a5.0822,5.0822,0,0,1,1.3079-3.18588,3.796,3.796,0,0,1,2.7761-1.0586,3.88065,3.88065,0,0,1,3.9902,4.0136,4.11784,4.11784,0,0,1-.375,1.766,8.25377,8.25377,0,0,1-1.5004,1.9868,5.80318,5.80318,0,0,0-1.1926,1.5702,6.295,6.295,0,0,0-.2656,2.0016Zm-.1046,3.62228v-2.05688h1.7506v2.05688Z" class="colorfff svgShape"/><circle cx="516.996" cy="89.631" r="15.408" fill="#fdd247" class="colorfdd247 svgShape"/><path fill="#ffffff" d="M509.16963,89.72785a1.03381,1.03381,0,0,1,.4888-.63152c.0877-.05468.0025-.08868-.2526-.08248,0,0-.6272.015-.6322-1.456-.0057-1.6646,5.0892-1.5681,5.0892-1.5681a.54421.54421,0,0,0,.5665-.6533s-1.0614-6.5317.1082-6.5317,1.6195,2.6991,2.7892,4.9484a21.23909,21.23909,0,0,0,1.3178,2.2524,7.87451,7.87451,0,0,0,2.2965.0843c0-.1477.2882-.7171.6593-.7171h3.0141a.67672.67672,0,0,1,.6747.6747v9.1772a.67681.67681,0,0,1-.6747.6748h-3.0141c-.3711,0-.6747-.2056-.6747-.4569s-.2775-.3333-.6165-.1823a10.96942,10.96942,0,0,1-2.7125.81908c-2.2494.17992-6.9759.62892-7.4678-.58478-.3715-.91722.2836-1.2096.2836-1.2096.3389-.1512.3128-.2854-.0582-.2982,0,0-.6302-.0217-.7652-1.2363a.91278.91278,0,0,1,.547-.9097c.3425-.1431.326-.3245-.0367-.4033,0,0-.7692.0431-.9376-.9364A1.97427,1.97427,0,0,1,509.16963,89.72785Z" class="colorfff svgShape"/><path fill="#c6ebed" d="M97.43523,269.20924a69.67471,69.67471,0,0,0-21.6697,8.14409c-5.9644,3.51321-8.0291,10.31951-.2439,13.57621,2.7284,1.1414,5.8117,1.3151,8.8133,1.4709q36.7935,1.9104,73.5948,3.6776c9.4308.4638,21.0307,2.3749,23.7983,10.5628,2.663,7.8814,1.2694,11.1136,11.0261,13.9392,18.812,5.4479,40.4935,6.9118,60.0412,9.0427q33.4695,3.64845,67.2195,4.5297c90.2973,2.3772,188.3945,9.4862,273.0606-24.5592q7.3692-2.96325,14.5618-6.2724c18.6866-8.5992,3.5043-16.10151-9.3449-19.4889-21.5962-5.6933-45.536-7.5722-67.7951-10.2627-44.0816-5.3283-87.9781-6.7826-132.3276-8.603-42.9619-1.7636-86.1928-4.0426-129.2842-4.0028-23.6131-.35-47.5415-1.8757-71.1093-.5822-25.2062,1.3833-50.4058,3.9107-75.5686,5.863C113.45613,266.92324,105.28293,267.57694,97.43523,269.20924Z" opacity=".44" class="colorc6ebed svgShape"/><rect width="138.829" height="194.422" x="267.433" y="71.559" fill="#57606f" class="color57606f svgShape"/><rect width="130.201" height="186.239" x="271.73" y="75.599" fill="#ffffff" class="colorfff svgShape"/><path fill="#fdd247" fill-rule="evenodd" d="M365.58443,217.01h10.8969a3.17967,3.17967,0,0,0,3.2915-3.1543l.006-10.4866a3.7938,3.7938,0,0,0-3.8105-3.6532h-10.8845a3.17929,3.17929,0,0,0-3.2915,3.14839l-.0185,10.48591A3.79407,3.79407,0,0,0,365.58443,217.01Z" class="colorfdd247 svgShape"/><path fill="#a2d1eb" d="M284.21873,222.04284l.0016,2.9756h29.0928l-.0074-2.9756Zm.0048,8.5607h29.1036l-.0075-2.9779h-29.0978Zm.0032,5.5891h29.1144l-.0074-2.98H284.225Zm.0031,5.5933h29.1253l-.0075-2.9822h-29.1195Zm.0032,5.5975h14.2339l-.0046-2.9844h-14.231Z" class="colora2d1eb svgShape"/><path fill="#979dfe" d="M326.79213,217.01h10.8968a3.1895,3.1895,0,0,0,3.2997-3.1543l.0331-10.4866a3.78186,3.78186,0,0,0-3.8011-3.6532h-10.8844a3.18914,3.18914,0,0,0-3.2997,3.14839l-.0455,10.48591A3.78212,3.78212,0,0,0,326.79213,217.01Z" class="color979dfe svgShape"/><path fill="#a2d1eb" d="M323.024,222.04284l.0093,2.9756h29.0928l-.0151-2.9756Zm.027,8.5607h29.1036l-.0152-2.9779h-29.0979Zm.0175,5.5891H352.183l-.0152-2.98h-29.1086Zm.0177,5.5933h29.1253l-.0153-2.9822h-29.1195Zm.0176,5.5975h14.2339l-.0123-2.9844h-14.231Z" class="colora2d1eb svgShape"/><path fill="#48dafa" fill-rule="evenodd" d="M287.99983,217.01h10.8968a3.19944,3.19944,0,0,0,3.3079-3.1543l.0602-10.4866a3.77025,3.77025,0,0,0-3.7918-3.6532h-10.8843a3.199,3.199,0,0,0-3.3078,3.14839l-.0727,10.48591A3.77025,3.77025,0,0,0,287.99983,217.01Z" class="color48dafa svgShape"/><path fill="#a2d1eb" d="M361.82933 222.04284l.017 2.9756h29.0928l-.0228-2.9756zm.0491 8.5607H390.982l-.0228-2.9779h-29.0979zm.032 5.5891h29.1144l-.0228-2.98h-29.1087zm.0321 5.5933h29.1253l-.0229-2.9822h-29.1195zm.032 5.5975h14.2339l-.0199-2.9844h-14.2311zM368.18133 90.65315h-62.31l.0074 3.6857h62.3255zm-83.5356 7.0891l.0023 3.6892h104.8455l-.0282-3.6892zm10.6342 10.7886H378.92l-.0255-3.6928H295.275z" class="colora2d1eb svgShape"/><polygon fill="#fdd247" fill-rule="evenodd" points="336.649 186.628 308.45 186.628 308.386 159.614 336.533 159.614 336.649 186.628" class="colorfdd247 svgShape"/><path fill="#cc346f" d="M342.25073,140.93125a5.67227,5.67227,0,0,0-3.8568.8199,1.25549,1.25549,0,0,1-1.9411-.9989l-.0345-8.0562h-28.0969l.0643,26.9175h8.4349a1.1995,1.1995,0,0,1,1.0508,1.8582,5.08543,5.08543,0,0,0-.8472,3.70358,5.53423,5.53423,0,0,0,10.9644-.78888,5.0995,5.0995,0,0,0-.9042-2.8792,1.20046,1.20046,0,0,1,1.0164-1.8937h8.4325l-.0345-8.0741a1.25739,1.25739,0,0,1,1.9711-.9792,5.65933,5.65933,0,0,0,3.0061.8548,5.33426,5.33426,0,0,0,5.4443-5.8742A5.43342,5.43342,0,0,0,342.25073,140.93125Z" class="colorcc346f svgShape"/><path fill="#979dfe" d="M355.15033,161.38675a5.11645,5.11645,0,0,1,.9396,3.7888,5.39588,5.39588,0,0,1-4.8001,4.4627,5.46588,5.46588,0,0,1-6.171-5.2518,5.06846,5.06846,0,0,1,.9412-2.9683,1.14772,1.14772,0,0,0-.9825-1.8046h-8.5442l.0336,7.8751a1.18929,1.18929,0,0,1-1.7742.9973,5.71266,5.71266,0,0,0-3.4323-.6165,5.28237,5.28237,0,0,0,.7981,10.5308,5.6383,5.6383,0,0,0,2.6626-.6605,1.2017,1.2017,0,0,1,1.7938.9939l.0337,7.8946h28.1985l-.1662-27.0147h-8.5421A1.13474,1.13474,0,0,0,355.15033,161.38675Z" class="color979dfe svgShape"/><path fill="#dccec3" d="M382.606,119.98933h-28.0733l.0442,8.04272a1.25561,1.25561,0,0,0,1.9405.9971,5.6681,5.6681,0,0,1,3.8533-.8185,5.4351,5.4351,0,0,1,4.6707,4.6023,5.31944,5.31944,0,0,1-5.4325,5.8635,5.66487,5.66487,0,0,1-3.0051-.8535,1.255,1.255,0,0,0-1.9678.9775l.0442,8.0606h9.8706a.54943.54943,0,0,1,.4058.9469,5.10025,5.10025,0,0,0-1.6277,4.6061,5.47079,5.47079,0,0,0,4.8479,4.4546,5.38672,5.38672,0,0,0,6.1045-5.2429,5.17933,5.17933,0,0,0-1.7438-3.8198.54994.54994,0,0,1,.4098-.9449h9.8567Z" class="colordccec3 svgShape"/><path fill="#931eaf" fill-rule="evenodd" d="M578.88513,260.49594q1.21665-6.58845,2.4334-13.1769c.8706-4.7144,1.7455-9.5119,1.3022-14.412s-1.0247-11.301-4.7614-14.3694c-4.7769-3.9226-12.3605-5.3799-13.8868,1.2252-5.368,23.2293,7.6266,60.45,10.268,68.8402q1.0968,3.4842,2.3073,6.942h6.7328C582.23793,282.52454,582.31093,267.49754,578.88513,260.49594Z" class="color931eaf svgShape"/><path fill="#f4a086" d="M583.28063,295.545h-6.7328q1.41255,4.0509,2.9694,8.0635c.3646.93679.8801,2.0057,1.885,2.2847,1.2851.3567,2.9964-.71991,2.8051-1.9665C583.806,301.31214,583.51553,298.47864,583.28063,295.545Z" class="colorf4a086 svgShape"/><path fill="#b23ece" fill-rule="evenodd" d="M583.57023,266.07894c.8237,2.1248,2.1515,4.5163,4.2661,4.5865a3.89815,3.89815,0,0,0,3.2011-2.0097,13.39244,13.39244,0,0,0,1.4464-3.8702q2.27415-8.73332,4.5485-17.4665c1.2276-4.7144,2.4658-9.5119,2.3937-14.412s-1.6465-10.0074-5.1508-13.0758c-4.4798-3.9225-12.6251-3.4484-14.2223,3.2345-2.1157,8.8528-2.0151,18.6999-.5983,27.6598A74.90281,74.90281,0,0,0,583.57023,266.07894Z" class="colorb23ece svgShape"/><path fill="#b23ece" fill-rule="evenodd" d="M593.47643,258.85714c-4.1888-5.7135-12.0897-2.1151-10.3377,4.8231,2.1167,8.3822,5.5204,16.6769,8.9399,24.6418q1.3554,3.1575,2.8128,6.2742l6.5573-2.0145C599.20353,279.55974,597.75493,264.69284,593.47643,258.85714Z" class="colorb23ece svgShape"/><path fill="#f7b690" d="M601.44873,292.58174l-6.5573,2.0145q1.84965,3.9747,3.8479,7.8845c.4505.8785,1.0628,1.8654,2.0813,1.9874,1.3023.1559,2.8862-1.1853,2.5766-2.4001C602.65383,299.15133,602.02543,295.92633,601.44873,292.58174Z" class="colorf7b690 svgShape"/><path fill="#b23ece" fill-rule="evenodd" d="M605.367 305.90574a10.43964 10.43964 0 00-.7063-3.3293c-.4647-1.0212-.7833-2.0876-1.7814-2.6664a2.46561 2.46561 0 01-1.4655 1.55629c-.4757.094-3.0287-.74389-3.4514-.516-.3044.16411-.0514 4.88971-1.3193 6.04631a31.7636 31.7636 0 01-4.306 2.875 4.41028 4.41028 0 00-1.336 1.1818 1.61861 1.61861 0 00-.1541 1.6618 1.06441 1.06441 0 00.0966.125l10.4045-1.6424a10.96107 10.96107 0 00.4703-1.1696q.75315-2.11815 1.5061-4.2364a16.538 16.538 0 011.3381 4.8829l1.162-.1835Q605.59588 308.19849 605.367 305.90574zM578.547 233.57694c3.4431-.0913 28.8665 2.01739 14.7899-19.2428-1.961-2.9617-6.9334-3.2845-10.5811-3.7226-4.9402-.5934-14.5656-.5484-16.9403 3.7226C558.40563 227.66094 574.73693 233.67794 578.547 233.57694z" class="colorb23ece svgShape"/><path fill="#d84cca" d="M574.53093,186.52865c1.0417-3.4659,1.8399-7.4169.6369-10.9441-.3761-1.1027-.4483-1.2783-1.4828-.7306a10.445,10.445,0,0,0-2.2018,1.8549,22.9477,22.9477,0,0,0-3.3804,4.3166,41.2044,41.2044,0,0,0-2.5915,5.0587l7.8718,3.8598Q574.00938,188.25285,574.53093,186.52865Z" class="colord84cca svgShape"/><path fill="#f4a086" d="M565.51133,186.08415c-.5053,1.1484-.982,2.3093-1.4562,3.4687q-3.9111,9.56235-7.8222,19.12489a2.867,2.867,0,0,0-.3057,1.88,2.17223,2.17223,0,0,0,2.6651,1.1061,5.80792,5.80792,0,0,0,2.5338-1.8436,59.86346,59.86346,0,0,0,12.257-19.87629Z" class="colorf4a086 svgShape"/><path fill="#f7b690" d="M551.93853,188.299c.1479-.6803.4721-1.4957,1.1971-1.5731.6889-.07352,1.1929.5836,1.5246,1.1633,2.8021,4.8965,6.3975,20.76918,4.8885,22.82118-1.4086,1.91541-3.1237,2.00941-4.4423.05721C552.42263,206.79444,551.34593,191.02333,551.93853,188.299Z" class="colorf7b690 svgShape"/><path fill="#f7b690" d="M549.13793,189.10133a19.5085,19.5085,0,0,1-2.533-1.88688,23.36053,23.36053,0,0,1-3.1951-2.0724,2.84582,2.84582,0,0,1-.8179-1.0831,1.12659,1.12659,0,0,1,.2736-1.2425,1.971,1.971,0,0,1,1.85-.0038c1.9085.6578,4.3204,2.0341,6.278,2.2744-.5009-.0615-.6475-3.0694-.6004-3.3473.0369-.2179.1314-.4689.3556-.5245.7549-.1871,3.5471,5.3898,3.8687,6.0689a1.816,1.816,0,0,1,.2326.78718,2.99754,2.99754,0,0,1-1.3525,2.01312C552.472,190.54015,550.06853,189.537,549.13793,189.10133Z" class="colorf7b690 svgShape"/><path fill="#db82d2" d="M588.03813,204.03933c-.9097-8.207,8.3453-15.09168,7.4762-23.30268-.593-5.6018-6.4073-10.0239-12.3186-9.9499a15.20328,15.20328,0,0,0-13.4551,9.4245,15.58507,15.58507,0,0,0-.9804,7.8759c.2509,1.8493.8325,3.6436,1.163,5.4815a26.76665,26.76665,0,0,1-.6647,11.29709c-.815,3.2191-2.5662,6.2891-3.443,9.4684h27.5214C592.53953,213.00844,588.30063,206.40833,588.03813,204.03933Z" class="colordb82d2 svgShape"/><path fill="#931eaf" fill-rule="evenodd" d="M585.60413,308.01954a10.37849,10.37849,0,0,0-.1253-3.3945,5.34786,5.34786,0,0,0-1.5787-2.9036c-.2316.5426-.8194,1.2792-1.4338,1.3028-.4854.0186-2.8909-.9526-3.3471-.7936-.3284.1144-.8594,4.563-2.309,5.5065a32.41078,32.41078,0,0,1-4.7415,2.1657,4.51562,4.51562,0,0,0-1.5211.9579,1.63071,1.63071,0,0,0-.4373,1.6154,1.049,1.049,0,0,0,.0739.1384h10.5464a11.13985,11.13985,0,0,0,.6648-1.0806q1.10655-1.9725,2.2132-3.9448a16.39916,16.39916,0,0,1,.4817,5.0254h1.1779Q585.43623,310.31714,585.60413,308.01954Z" class="color931eaf svgShape"/><path fill="#db82d2" d="M600.17353,183.84785a13.08991,13.08991,0,0,0-4.8674-6.929,2.27125,2.27125,0,0,0-2.0311-.48052,2.17061,2.17061,0,0,0-1.0701,1.59052c-1.0963,4.1628-.4754,8.5211.2981,12.7703l8.7775-1.3085A28.21725,28.21725,0,0,0,600.17353,183.84785Z" class="colordb82d2 svgShape"/><path fill="#f7b690" d="M601.53923,192.21755c-.078-.90822-.1588-1.8188-.2587-2.7269l-8.7775,1.3085q.111.60945.2242,1.21618,1.1892,6.3735,2.3784,12.74681c.2974,1.5933.2559,3.5103,1.7622,4.5475a3.59482,3.59482,0,0,0,3.8091.2036,4.247,4.247,0,0,0,1.7879-2.824,12.08032,12.08032,0,0,0,.0269-3.37791Q602.01548,197.7645,601.53923,192.21755Z" class="colorf7b690 svgShape"/><path fill="#f7b690" d="M596.83133,230.28533c-.0316.98721-.0533,3.32011.9808,3.39661.8018.05939,1.6385-1.8432,1.8178-2.5899,1.2427-5.1783,3.0826-22.5348,2.7798-23.7385-.4995-1.98521-5.5671-3.5254-6.8481-.9105C594.26193,209.09614,597.11913,221.30964,596.83133,230.28533Z" class="colorf7b690 svgShape"/><path fill="#f7b690" d="M595.42443,232.95154q-.527,2.274-1.0539,4.54779c.1313.31411.6618.237.873-.03479a4.19161,4.19161,0,0,0,.3742-.9444c.1382-.3115.5107-.5963.8255-.4399.3159.157.2865.5899.2113.9215q-.52065,2.29545-1.0412,4.5908a3.10558,3.10558,0,0,0,3.5695-.4397A5.95788,5.95788,0,0,0,600.9,237.901a13.91629,13.91629,0,0,0,.2257-5.1162,3.9713,3.9713,0,0,0-1.2286-2.65451C597.86133,228.51564,595.79683,231.34454,595.42443,232.95154Z" class="colorf7b690 svgShape"/><path fill="#222b56" fill-rule="evenodd" d="M575.52383,147.86365c3.8908-9.2104,24.513,2.5743,17.4661,13.2036-1.1283,1.702-2.7087,2.2829-2.4851,4.7322.3154,3.4544,3.2355,6.2277,2.9025,9.82-.3044,3.2851-2.8328,5.8428-3.3462,8.9634a4.99777,4.99777,0,0,0-.0612.9728,1.1971,1.1971,0,0,1-2.2049.5809l-.0207-.0364a9.653,9.653,0,0,1-1.0863-4.9029c-.0006-4.1556.4729-8.371.3317-12.5618-.0999-2.9644-7.3045-3.2862-8.1847-6.1312-.4826-1.56.0661-3.2375-.0996-4.8561a6.61738,6.61738,0,0,0-2.068-3.8465,6.51566,6.51566,0,0,1-1.4756-3.2976A5.01651,5.01651,0,0,1,575.52383,147.86365Z" class="color222b56 svgShape"/><path fill="#f4a086" d="M580.04393,164.36325a13.53263,13.53263,0,0,1-.3998,6.251,2.128,2.128,0,0,0-.0203,1.8843,2.23088,2.23088,0,0,0,1.7796.5954,10.76707,10.76707,0,0,0,3.2591-.2325,3.428,3.428,0,0,0,2.3833-1.972,4.68976,4.68976,0,0,0-.0891-2.5486q-.54045-2.42205-1.0809-4.844a2.72081,2.72081,0,0,0-.5634-1.3299,2.07839,2.07839,0,0,0-2.3622-.233,5.73,5.73,0,0,0-1.8139,1.6868Z" class="colorf4a086 svgShape"/><path fill="#f7b690" d="M576.82483,163.66405a9.32818,9.32818,0,0,1-.8069-3.3908,16.81771,16.81771,0,0,1-.0427-4.7948,6.05506,6.05506,0,0,1,2.4718-4.0488,6.98815,6.98815,0,0,1,5.8624-.4351,6.164,6.164,0,0,1,3.9386,3.1329,7.88749,7.88749,0,0,1,.4546,2.6927,9.51445,9.51445,0,0,1-.2637,3.5317,6.51578,6.51578,0,0,1-2.4558,3.0964,16.56343,16.56343,0,0,1-3.6428,1.8495,7.54487,7.54487,0,0,1-2.29.6157C578.46543,166.00765,577.48263,164.92033,576.82483,163.66405Z" class="colorf7b690 svgShape"/><path fill="#222b56" fill-rule="evenodd" d="M583.65873,153.83155c.7091,1.5219.4348,3.43978,1.5483,4.7233a3.15911,3.15911,0,0,0,3.8519.5826,3.28077,3.28077,0,0,0,1.5132-2.6066,4.6803,4.6803,0,0,0-.9171-2.9119,9.38446,9.38446,0,0,0-2.2799-2.1823,11.79412,11.79412,0,0,0-4.4646-2.06,7.82381,7.82381,0,0,0-3.1521-.0082c-.7802.1651-2.2911.5697-2.5003,1.449-.2068.8687.5967,1.0281,1.245.857a4.38753,4.38753,0,0,1,2.8528.0413A4.21511,4.21511,0,0,1,583.65873,153.83155Z" class="color222b56 svgShape"/><path fill="#f7b690" d="M587.54523,158.21825a2.692,2.692,0,0,1,.961-.1764,1.21794,1.21794,0,0,1,.8728.3714,1.30078,1.30078,0,0,1,.1728,1.2038,2.06032,2.06032,0,0,1-2.3744,1.553,1.3244,1.3244,0,0,1-1.0396-1.697A1.88564,1.88564,0,0,1,587.54523,158.21825Z" class="colorf7b690 svgShape"/><path fill="#db82d2" fill-rule="evenodd" d="M587.41843,165.78405c1.2834.4791,3.9757-.0323,3.9351-1.2812-.0423-1.3004-4.0702-1.1968-4.6924-.009a.7113.7113,0,0,0-.0485.5731A1.28375,1.28375,0,0,0,587.41843,165.78405Z" class="colordb82d2 svgShape"/><path fill="#500f1a" d="M273.81523,260.82224c1.022,2.0506,2.4133,4.3632,4.4325,4.93709,1.4001.39791,5.3334-2.12389,6.1207-3.13629s-1.6537-49.8261-3.4158-52.7979c-2.3639-3.9866-21.02,1.5193-20.3774,8.435.8214,8.84119,3.4654,18.2473,6.6042,27.014A142.80359,142.80359,0,0,0,273.81523,260.82224Z" class="color500f1a svgShape"/><path fill="#f4a086" d="M240.42123 306.13633a14.67569 14.67569 0 006.17-.46939q.1608-3.4365.3215-6.873a1.57127 1.57127 0 00-.1123-.8378 1.46892 1.46892 0 00-1.0922-.5729c-1.638-.2801-4.1651-.3676-4.4332 1.6204C240.95463 301.37933 240.70763 303.75974 240.42123 306.13633zM284.50093 306.13624a13.8973 13.8973 0 006.0568-.4693q-.66825-3.4365-1.3365-6.8731a1.85649 1.85649 0 00-.3144-.8377 1.93261 1.93261 0 00-1.2304-.573c-1.7056-.28-4.2538-.3675-4.0423 1.6205C283.88683 301.37924 284.21413 303.75974 284.50093 306.13624z" class="colorf4a086 svgShape"/><path fill="#500f1a" d="M283.82123,255.20294c-2.6636-4.0561-9.0838-6.8363-11.7817.1999-4.1144,10.7307,8.9358,30.803,10.8775,43.7616h6.9877C290.09883,297.91014,285.29883,257.453,283.82123,255.20294Z" class="color500f1a svgShape"/><path fill="#0a3c5f" fill-rule="evenodd" d="M250.00743,221.71074c1.7013,1.2763,3.9507,1.4715,6.0606,1.4715,17.369,0,27.4198-5.3797,25.0176-12.9782-2.4675-7.8053-18.0115-6.5454-26.1305-4.0301-1.75.5422-4.3003,1.0671-5.4959,2.6235C247.72613,211.05324,245.87423,218.60994,250.00743,221.71074Z" class="color0a3c5f svgShape"/><path fill="#6b2222" d="M301.41233 181.72325c1.6677.42008 3.7011.6049 4.8765-.5976a3.143 3.143 0 00.7407-2.6934 7.3668 7.3668 0 00-1.1267-2.6543c-4.0256-6.5131-21.7631-18.3477-29.1165-22.4178-3.2361-1.7913-2.1224 14.4113-.9018 16.1859C277.12063 171.34315 293.67463 179.774 301.41233 181.72325zM243.95613 260.59964c.3685 2.0505 3.1486 4.5858 4.9848 5.15969 1.2733.398 6.0102-2.12389 7.1203-3.13619s13.545-41.9651 12.7301-44.937a10.21642 10.21642 0 00-8.4851-7.1629c-5.6036-.8638-11.6578.9928-13.8991 7.7369C240.99773 234.53724 247.70293 246.69833 243.95613 260.59964z" class="color6b2222 svgShape"/><path fill="#d5e5fd" d="M312.50613,151.07133c.7139-.911,1.6252-1.91678,2.8177-1.86648a2.45644,2.45644,0,0,1,2.0993,1.80748,50.50606,50.50606,0,0,1-1.6267,7.06282l-6.1167-2.3256A42.96369,42.96369,0,0,1,312.50613,151.07133Z" class="colord5e5fd svgShape"/><path fill="#6b2222" d="M309.67973 155.74955l7.2935 2.0691c-2.2443 8.12668-7.5775 20.9423-10.5439 23.2702-2.1436 1.6821-4.5029.96448-6.1791-.786C298.43043 178.40265 305.32473 163.70055 309.67973 155.74955zM258.26843 255.20294c-1.2169-4.0483-7.4009-7.2479-11.8527.1999-7.1682 11.9918-5.4934 29.9131-5.8882 43.7616h6.9877C248.15593 297.91014 258.94473 257.45314 258.26843 255.20294zM282.96743 159.894c1.7696 2.4928 1.1275 6.04538.6865 8.928-.9432 6.1673-.6689 49.71649-.5806 50.68769a2.42515 2.42515 0 01-1.3848 2.4936 5.02458 5.02458 0 01-1.9845.2543c-9.1225-.0563-23.5654-.1126-32.6878-.1689a3.49988 3.49988 0 01-1.7495-.3128c-1.0952-.6507-.7163-2.06451-.3232-3.1458 2.6313-7.2376 3.9307-26.29071 1.543-33.58839-2.3693-7.241-5.2793-16.186-3.967-23.7571 3.2186-3.7429 9.8008-12.4307 22.8514-12.4307C274.52573 148.85385 281.37943 157.65715 282.96743 159.894z" class="color6b2222 svgShape"/><path fill="#6b2222" d="M247.47693,156.75425c1.2452-.354,10.0157.1776,7.6752,6.11708-2.9053,7.37282-8.7119,13.37772-13.5584,19.75792a28.77648,28.77648,0,0,1-4.9635,5.48008,10.32494,10.32494,0,0,1-6.9922,2.40192c-1.3255-.1037-3.2815-.6978-3.9317-1.9365-.5232-.9965.1269-2.6359.3645-3.6282C226.914,181.425,240.55883,158.72055,247.47693,156.75425Z" class="color6b2222 svgShape"/><path fill="#18b2ae" fill-rule="evenodd" d="M235.907,178.73685a.57324.57324,0,0,0-.0195.1473C235.89273,178.83505,235.90153,178.78615,235.907,178.73685Z" class="color18b2ae svgShape"/><path fill="#d5e5fd" d="M254.59463,205.78544c.1216,1.227-2.4399,2.3356-3.7018,2.6083-.3649.0789-2.238-1.7013-4.8657-3.4368l4.0101-3.9058C251.90873,203.27914,254.56983,205.53494,254.59463,205.78544Z" class="colord5e5fd svgShape"/><path fill="#acccfd" d="M272.80423,193.20115c-1.6544-8.3531-3.346-16.6824-5.3255-24.2461-1.8718-7.15272-6.3762-12.1928-12.0534-16.8898,4.6892-3.4864,12.8661-3.81692,16.8858.738,4.9598,5.6202,3.3831,15.8126,3.1609,22.551C275.29563,180.70165,273.671,193.21045,272.80423,193.20115Z" class="coloracccfd svgShape"/><path fill="#f8c924" d="M267.22533,155.38385c-.6545-.8996-1.5253-1.8508-1.3266-2.9289a1.81262,1.81262,0,0,1,1.5208-1.4015c2.7699-.37412,1.4991,2.4944,1.1031,3.7568,2.6598,3.7987,5.8586,11.7699,6.9182,21.2823-.2853,5.6756-1.8076,17.1174-2.6366,17.1086-1.1273-5.6917-2.2743-11.3661-3.5154-16.801C269.05233,170.12345,268.44993,157.06685,267.22533,155.38385Z" class="colorf8c924 svgShape"/><path fill="#6b2222" d="M225.59523,186.77885a3.93158,3.93158,0,0,1,2.7108-2.2028,13.29037,13.29037,0,0,1,6.4676-.7366c1.4267.2738,1.8674,1.5087,2.6827,2.5043,2.0401,2.49158,10.0172,11.5268,14.0122,16.28269l-4.3711,5.2348c-6.4577-4.2648-18.1879-15.06079-20.1508-17.504C226.10633,189.31133,225.22363,188.04733,225.59523,186.77885Z" class="color6b2222 svgShape"/><path fill="#222b56" fill-rule="evenodd" d="M266.83753,126.50885c-1.0072-.9634-7.9653-3.4864-10.2053,1.2959a11.38858,11.38858,0,0,0-.6621,6.2869c.5415,2.36268,2.921,10.0466,1.2338,11.1496a6.0759,6.0759,0,0,0,4.9392-1.0564,5.47072,5.47072,0,0,0,2.1553-4.3623c-.03-1.88022-1.0652-3.7683-.5047-5.5713a6.96358,6.96358,0,0,1,2.0469-2.7473c.6756-.6487,1.8119-1.3637,1.9863-2.2877A3.20014,3.20014,0,0,0,266.83753,126.50885Z" class="color222b56 svgShape"/><path fill="#222b56" fill-rule="evenodd" d="M273.25893,129.55145a3.42159,3.42159,0,0,0-1.0083-2.1566,3.6768,3.6768,0,0,0-3.8136-.1752c-.6578.2971-1.3323.8095-1.3362,1.5028a2.06868,2.06868,0,0,0,.9228,1.4394,11.84433,11.84433,0,0,0,3.9571,2.559C273.69663,133.15765,273.39563,130.49065,273.25893,129.55145Z" class="color222b56 svgShape"/><path fill="#f4a086" d="M269.038,140.13925c-.894-3.7575-3.8793-4.6378-5.6152-3.736-1.1122,7.0336-2.2459,10.1597-5.1408,13.9963,3.599,2.1976,9.7435,1.7887,11.0715,0C269.40653,149.83585,269.50023,142.08225,269.038,140.13925Z" class="colorf4a086 svgShape"/><path fill="#f7b690" d="M261.73313,131.27233c1.6733-3.81758,7.1598-4.74318,10.2517-1.462,2.8309,3.00422,3.1657,10.92192,2.115,12.88172-1.8374,3.427-8.4257,1.9204-9.8302.125C262.21243,140.18715,260.326,134.48285,261.73313,131.27233Z" class="colorf7b690 svgShape"/><path fill="#222b56" fill-rule="evenodd" d="M272.775,130.56705a25.54523,25.54523,0,0,0,.2748,2.6534,2.6453,2.6453,0,0,0,1.6568,2.0012,3.09742,3.09742,0,0,1-.2858-2.359c.1679-.7955.4851-1.55932.6164-2.361a5.39651,5.39651,0,0,0-1.7453-4.8224,6.03312,6.03312,0,0,0-5.1682-1.3386,3.83048,3.83048,0,0,0-2.4952,1.5643,2.11744,2.11744,0,0,0,.3007,2.6849,2.842,2.842,0,0,0,2.3788.4391c.6689-.1474.8739-.5839,1.4235-.8729C271.45153,127.25145,272.59673,129.23645,272.775,130.56705Z" class="color222b56 svgShape"/><path fill="#f7b690" d="M258.95263,138.31805a3.69322,3.69322,0,0,0,1.5926,2.3218c2.3455,1.5389,3.2408-1.6732,2.3191-3.2617C261.76553,135.48433,258.44173,135.78555,258.95263,138.31805Z" class="colorf7b690 svgShape"/><path fill="#222b56" fill-rule="evenodd" d="M267.42523,128.47915c-.0177.7225-2.0364,1.8965-2.592,2.3887a6.40308,6.40308,0,0,0-1.5321,1.5866,3.69444,3.69444,0,0,0-.0918,2.7308,15.25644,15.25644,0,0,1,.7107,2.7073,2.57764,2.57764,0,0,1-1.0468,2.4653,2.69789,2.69789,0,0,0-.6061-2.5983c-.5794-.7453-1.3452-1.348-1.8992-2.1104a4.90529,4.90529,0,0,1-.3858-5.07482,8.492,8.492,0,0,1,3.456-3.41958C264.46493,126.78765,267.46553,126.84325,267.42523,128.47915Z" class="color222b56 svgShape"/><path fill="#0a3c5f" fill-rule="evenodd" d="M303.88853 309.50224c.0895-.9521-.8592-1.741-1.8356-1.9627a14.27844 14.27844 0 00-3.0011-.064 8.15843 8.15843 0 01-6.9569-4.0897 1.96439 1.96439 0 00-.6986-.8844 1.39814 1.39814 0 00-1.4544.2543c-.4051.3167-.6912.749-1.0614 1.1024a3.66107 3.66107 0 01-2.547.9711c-.7853-.0111-1.6646-.5823-2.4191-.2047-.6659.3333-.8453 1.2116-1.0141 1.8377-.2907 1.0787-.5544 2.1649-.8316 3.2469a4.34 4.34 0 00-.14.7369h5.455a7.05428 7.05428 0 00.5692-1.7399 3.94629 3.94629 0 00.4725 1.7399H303.418A1.577 1.577 0 00303.88853 309.50224zM249.11043 309.50224a2.18692 2.18692 0 00-.8068-1.9627c-.4292-.2216-1.0991-1.8177-1.9877-4.1537-.4065-1.06851-2.6712-1.3672-3.8023.4723-.3669.597-.7077.98419-1.1195.9711-.3452-.0111-.7317-.5823-1.0633-.2047a4.25376 4.25376 0 00-.4458 1.8377c-.1277 1.0787-.2437 2.1649-.3655 3.2469-.0269.2396-.0533.4901-.0615.7369h9.4456A2.69583 2.69583 0 00249.11043 309.50224z" class="color0a3c5f svgShape"/><path fill="#d5e5fd" d="M271.14983,154.00015q-.86985-.60675-1.7396-1.2135a2.1316,2.1316,0,0,0-1.3708-.5307,2.07934,2.07934,0,0,0-1.2098.78838q-.859.91968-1.7181,1.83932a1.89869,1.89869,0,0,1-.9699.6704,1.93035,1.93035,0,0,1-1.4221-.5305,48.9356,48.9356,0,0,1-5.2125-4.4674.567.567,0,0,1-.064-.9589l2.1595-2.5015a17.69373,17.69373,0,0,0,5.007,1.7129,6.94052,6.94052,0,0,0,4.037-.57832c.2036-.10358.5872-.46358.8207-.34288.2259.1168.281.8187.3406,1.0435q.3141,1.187.6284,2.3737Q270.79293,152.6524,271.14983,154.00015Z" class="colord5e5fd svgShape"/><polygon fill="#500f1a" points="272.617 221.681 272.148 197.841 272.887 197.828 273.356 221.668 272.617 221.681" class="color500f1a svgShape"/><path fill="#500f1a" d="M270.58093 193.18445a69.45916 69.45916 0 00-16.5059-19.9572l-.3507-.2922 4.3219-2.958-3.8182-1.204-.0483-.1901c-1.3964-5.5119-1.8243-10.32.6285-15.8683l.6812.2728c-2.3468 5.3085-1.9635 9.9427-.6393 15.2405l4.8045 1.5148-4.744 3.2473a70.13291 70.13291 0 0116.3256 19.8679zM274.44593 193.36005l-.6552-.3258a54.58437 54.58437 0 006.4673-21.1713l-3.8319-1.4168 1.7753-.067a2.21876 2.21876 0 001.8682-1.6251 5.54072 5.54072 0 00-.0988-2.8081 24.65915 24.65915 0 00-6.3959-11.6761l.5427-.4783a25.3456 25.3456 0 016.5748 12.0045 6.121 6.121 0 01.0873 3.1532 3.19706 3.19706 0 01-1.4396 1.8196l1.6994.6278-.0224.2619A55.2422 55.2422 0 01274.44593 193.36005z" class="color500f1a svgShape"/><path fill="#f7b690" d="M256.43213 209.27194a4.094 4.094 0 01-.4908 3.2641 3.93066 3.93066 0 01-2.6674 1.4127 9.89377 9.89377 0 01-3.1175-.2055 3.82071 3.82071 0 01-2.0126-.8256 1.27241 1.27241 0 01-.0491-1.87731c.694-.51279 1.8323-.02819 2.5189-.55.6892-.52389.3769-1.55019.4117-2.38939a2.82213 2.82213 0 012.8759-2.5731C255.49173 205.77014 256.17383 208.01064 256.43213 209.27194zM319.46753 146.85145a5.38028 5.38028 0 00-5.744-2.9435c-.1391-2.39462 1.7063-8.4725-.4173-7.1837-.9419.5716-2.5521 8.4139-1.7204 12.6692a6.337 6.337 0 001.89 3.8057C317.25893 156.32855 320.76213 149.83215 319.46753 146.85145z" class="colorf7b690 svgShape"/><path fill="#f4a086" d="M315.43393,153.64655a.36909.36909,0,0,1-.3463-.2299.3472.3472,0,0,1,.2186-.4522.86063.86063,0,0,0,.4301-.8818,3.62991,3.62991,0,0,0-.2093-.85332c-.0584-.17828-.1169-.35658-.1616-.53728a3.98553,3.98553,0,0,1,.967-3.6395c.062-.0667.127-.132.1919-.1969a2.62966,2.62966,0,0,0,.3847-.44332.52009.52009,0,0,0,.0642-.50688c-.1321-.2075-.5752-.1917-.9454-.068a4.42568,4.42568,0,0,0-2.8483,2.9821.37.37,0,0,1-.4473.257.35148.35148,0,0,1-.27-.4261,5.1615,5.1615,0,0,1,3.3203-3.4769,1.55059,1.55059,0,0,1,1.8228.3667,1.15644,1.15644,0,0,1-.0599,1.2295,3.16886,3.16886,0,0,1-.4856.5711c-.0592.0594-.1184.1186-.1754.1794a3.297,3.297,0,0,0-.8003,3.0099c.0412.1646.0946.3267.148.489a4.23177,4.23177,0,0,1,.2417,1.014,1.532,1.532,0,0,1-.9121,1.5917A.38354.38354,0,0,1,315.43393,153.64655Z" class="colorf4a086 svgShape"/><path fill="#500f1a" d="M266.62423 201.40314a1.61323 1.61323 0 111.6922-1.6113A1.65491 1.65491 0 01266.62423 201.40314zm0-2.5189a.90864.90864 0 10.9533.9076A.93192.93192 0 00266.62423 198.88424zM267.10123 210.239a1.6132 1.6132 0 111.6915-1.6114A1.65513 1.65513 0 01267.10123 210.239zm0-2.5189a.90861.90861 0 10.9525.9075A.93252.93252 0 00267.10123 207.72014zM272.41163 204.23794c-.2841 6.142-.3393 12.2309-2.957 17.8507 1.4468.0516 3.2292.7799 4.4537-.1277 1.3514-1.00161.4191-3.5044.2392-4.8399C273.59793 213.04264 272.20513 208.33594 272.41163 204.23794z" class="color500f1a svgShape"/><path fill="#f4a086" d="M412.95023 310.28464a13.29345 13.29345 0 01-5.778-.4471q.5787-3.27375 1.1574-6.5476a1.73987 1.73987 0 01.2853-.7982 1.806 1.806 0 011.1625-.5459c1.6202-.2667 4.0463-.35 3.8784 1.5438C413.45513 305.75284 413.18343 308.02064 412.95023 310.28464zM422.23273 301.61184a12.7042 12.7042 0 01-4.8289 3.0412q-1.6215-2.94975-3.2431-5.8994a1.7654 1.7654 0 01-.2818-.804 1.68924 1.68924 0 01.5682-1.1186c1.1053-1.1653 2.9609-2.6583 4.0301-1.0501C419.75513 297.70294 420.97993 299.67024 422.23273 301.61184z" class="colorf4a086 svgShape"/><path fill="#222b54" fill-rule="evenodd" d="M394.74263,218.53233c2.252-3.79789,20.0251,1.44741,19.4129,8.03581-.7826,8.4226-3.3013,17.3834-6.2916,25.73519q-.19035.53191-.3861,1.06281a17.50474,17.50474,0,0,0,.4576,13.36319c4.1702,9.13261,6.7939,21.53941,11.1786,28.77051l-5.2367,3.9143c-.9201-.8313-20.7438-32.7527-21.7602-37.02681C391.34853,259.15574,392.95273,221.551,394.74263,218.53233Z" class="color222b54 svgShape"/><path fill="#0a3c5f" fill-rule="evenodd" d="M425.85093,230.54964c-.1207,1.9616-5.3915.7076-7.4016.7076-16.5469,0-26.1219-5.1251-23.8333-12.36391,2.3507-7.43589,17.1588-6.23559,24.8936-3.83939,1.6672.5166,4.0967,1.0166,5.2358,2.4993C426.39643,219.70233,426.28653,223.47254,425.85093,230.54964Z" class="color0a3c5f svgShape"/><path fill="#f4a086" d="M401.59,178.87633c-.5382,7.24392-2.03,14.66492-6.3087,20.67571-.9223,1.2955-2.2617,2.6399-3.8961,2.4761a3.26143,3.26143,0,0,1-2.3015-1.49381,6.98056,6.98056,0,0,1-.934-2.57818c-1.3862-7.078.8821-14.2912,3.1414-21.1621.9305-2.8301,2.1675-7.8398,5.1924-9.36572,3.151-1.58948,4.7372,3.32022,5.0259,5.32242A28.27275,28.27275,0,0,1,401.59,178.87633Z" class="colorf4a086 svgShape"/><path fill="#0abce2" fill-rule="evenodd" d="M401.95283,168.58465c-.1449-1.1981-.4812-2.6104-1.6496-3.13332-1.2321-.55138-2.5545.25372-3.5131,1.07272-5.8093,4.96328-8.0108,11.969-9.0642,19.488l13.9307.8187A66.80128,66.80128,0,0,0,401.95283,168.58465Z" class="color0abce2 svgShape"/><path fill="#0a3c5f" fill-rule="evenodd" d="M417.20713,267.11564c-.7877,1.9534-1.9034,4.1566-3.7749,4.7034-1.2978.379-5.2735-2.0235-6.1154-2.9878-.842-.9645-3.9673-39.9788-2.558-42.81a13.07391,13.07391,0,0,1,9.6087-6.8238c5.5223-.8229,11.5787.7823,11.5937,7.3707.019,8.4226-1.6468,17.3835-3.8422,25.73519A123.77525,123.77525,0,0,1,417.20713,267.11564Z" class="color0a3c5f svgShape"/><path fill="#0a3c5f" fill-rule="evenodd" d="M406.79423,261.76224c2.0213-3.8567,8.5939-6.90491,11.2491.1904,4.2752,11.4242-1.1368,28.4972-3.7097,41.6902h-6.6569C407.33343,302.44784,405.67073,263.90584,406.79423,261.76224Z" class="color0a3c5f svgShape"/><path fill="#0abce2" fill-rule="evenodd" d="M396.42773,196.86825c-1.2419-5.8306-3.3599-11.5228-4.2585-17.3982-.4201-2.7462-1.0318-6.13072.654-8.5055,1.5128-2.1309,8.0422-10.5175,16.7636-10.5175,12.4329,0,17.6772,4.8228,19.4288,10.5352,1.2502,7.2127.8188,17.0414-1.4382,23.9398-2.1696,6.63059.1381,13.68949,2.1281,28.32889H393.793C393.92593,214.94833,397.66953,202.69884,396.42773,196.86825Z" class="color0abce2 svgShape"/><path fill="#f4a086" d="M394.721,166.86275c-.9599,0-8.2406,26.9311-5.4754,31.1897,1.3917,2.14329,3.7508,2.18509,5.8264,1.096C397.96053,197.63255,399.17413,166.86275,394.721,166.86275Z" class="colorf4a086 svgShape"/><path fill="#f7b690" d="M433.35453,188.75165a33.13749,33.13749,0,0,0-7.0953-18.1601c-.7456-.94122-1.8123-1.9429-3.0225-1.69422a2.27554,2.27554,0,0,0-1.4878,1.21362,5.92791,5.92791,0,0,0-.5169,1.8571c-1.1805,7.41728-1.2474,14.9495-1.3118,22.45128a25.746,25.746,0,0,0,.5592,6.874,9.085,9.085,0,0,0,3.9408,5.60321c1.0785.6333,2.9315,1.2294,4.1649.6287.9922-.4832,1.4655-2.0907,1.8715-2.97991a32.96628,32.96628,0,0,0,2.7654-9.94068A32.02762,32.02762,0,0,0,433.35453,188.75165Z" class="colorf7b690 svgShape"/><path fill="#0abce2" fill-rule="evenodd" d="M421.73973,168.34155c.3023-1.1646.8213-2.5077,2.0384-2.8169,1.2837-.3261,3.2593,1.0953,4.0911,2.0818,5.041,5.9793,7.0493,13.243,7.0786,20.9056l-15.3563-1.983A67.5136,67.5136,0,0,1,421.73973,168.34155Z" class="color0abce2 svgShape"/><path fill="#f7b690" d="M398.77363,197.28505a2.4552,2.4552,0,0,0-.7935,3.13359c.4912,1.0768,23.23,7.6783,27.5585,7.76169,1.3171.02541,2.834-.04109,3.6476-1.02779a3.46193,3.46193,0,0,0,.2491-3.2244,11.39465,11.39465,0,0,0-3.0504-5.1465c-1.0248-.88949-2.2692-.516-3.5316-.55131C418.21423,198.10045,399.45093,196.89945,398.77363,197.28505Z" class="colorf7b690 svgShape"/><path fill="#222b56" fill-rule="evenodd" d="M398.02863,152.488c.5392.5727,1.0202.302.841-.4415-.5731-2.3779-.7374-2.7365-.0406-5.0936.3834-1.2969.5646-1.434-.0892-1.7286C396.57473,144.249,393.56623,147.74805,398.02863,152.488Z" class="color222b56 svgShape"/><path fill="#f4a086" d="M406.09333,152.14505c.8516-3.57972,3.6956-4.4184,5.3493-3.5592,1.0596,6.7006,2.1397,9.6788,4.8975,13.3337-3.4286,2.0937-9.2822,1.7041-10.5474,0C405.74223,161.38265,405.65293,153.996,406.09333,152.14505Z" class="colorf4a086 svgShape"/><path fill="#f7b690" d="M407.436,144.49505a5.95344,5.95344,0,0,0-9.349,3.0295c-1.0178,3.7215,2.3322,10.5631,4.121,11.7847,3.1281,2.1362,8.0137-1.8814,8.3787-3.98592C411.12133,152.24085,410.10043,146.62705,407.436,144.49505Z" class="colorf7b690 svgShape"/><path fill="#222b56" fill-rule="evenodd" d="M408.72773,154.131a1.41068,1.41068,0,0,1-.1421,1.1438,1.09611,1.09611,0,0,1-.934.3208,4.42294,4.42294,0,0,1-.9948-.262,8.41851,8.41851,0,0,0-4.3413-.2219,2.6991,2.6991,0,0,0-1.6992.92,2.35719,2.35719,0,0,0-.3193,1.5,4.35769,4.35769,0,0,0,.5082,1.892,2.95041,2.95041,0,0,0,1.4754,1.3219,4.50337,4.50337,0,0,0,2.8338-.0905,10.109,10.109,0,0,0,4.3994-2.447,5.9313,5.9313,0,0,0,1.8327-4.4409,4.93012,4.93012,0,0,0-.7471-2.3072,3.24251,3.24251,0,0,0-1.6076-1.3889c-1.0756-.378-.8507.4905-.7478,1.09818C408.41083,152.15565,408.56643,153.14385,408.72773,154.131Z" class="color222b56 svgShape"/><path fill="#222b56" fill-rule="evenodd" d="M406.294,145.72745a44.832,44.832,0,0,0,2.9945,7.4823c.6894-.4348,1.2264-2.655,2.6586-2.8407.4579-.0593,1.1385.1049.9795-.7618-1.0075-5.48992-.7243-5.2531-1.85-5.5647C408.59513,143.35545,406.37663,144.69755,406.294,145.72745Z" class="color222b56 svgShape"/><path fill="#222b56" fill-rule="evenodd" d="M411.87663,141.14845c-5.3253-2.264-13.2514-2.0247-15.2207-.3664-2.9317,2.4686.5858,7.3101,1.8881,7.3716.5945.0281,1.0277-.4949,1.4464-.8979,1.9871-1.913,4.2719-1.1558,6.0566-1.173C409.20933,146.05225,416.41443,143.07775,411.87663,141.14845Z" class="color222b56 svgShape"/><path fill="#f7b690" d="M413.02293,149.30185a3.37519,3.37519,0,0,1-.2826,2.6282c-1.2793,2.2791-3.5112-.0673-3.4599-1.7956C409.34143,148.074,412.29333,146.94533,413.02293,149.30185Z" class="colorf7b690 svgShape"/><path fill="#0a3c5f" fill-rule="evenodd" d="M415.67493,304.94594a1.78851,1.78851,0,0,1-.2508-1.027,1.26848,1.26848,0,0,1,1.0847-.8559c.4907-.0881.9972-.0226,1.4946-.0638a3.44834,3.44834,0,0,0,2.3028-1.1776c.472-.553.5718-1.514,1.3229-1.8078a2.79968,2.79968,0,0,1,2.0295.4189c1.0051.4577,1.9992.9387,2.9985,1.4078a4.62134,4.62134,0,0,1,.6508.3534l-3.3371,3.7942a7.51252,7.51252,0,0,1-1.6823-.6685,3.91626,3.91626,0,0,1,1.0451,1.393l-6.0887,7.6778-2.5828-2.2382A7.0705,7.0705,0,0,0,415.67493,304.94594Z" class="color0a3c5f svgShape"/><path fill="#0a3c5f" fill-rule="evenodd" d="M413.83973,311.61084a13.60578,13.60578,0,0,1,2.8594-.0521c.059-.00041.1177-.0056.1767-.0075l.3691,2.8392-4.7152-.0148a1.5024,1.5024,0,0,1-.4451-.9005C412.00243,312.56784,412.90893,311.819,413.83973,311.61084Z" class="color0a3c5f svgShape"/><path fill="#0a3c5f" fill-rule="evenodd" d="M404.46843,313.49133a2.08373,2.08373,0,0,1,.7687-1.86979c.4089-.2111,1.0471-1.7317,1.8936-3.9571.3873-1.0179,2.5448-1.3025,3.6222.45.3497.5686.6743.9375,1.0666.925.3289-.0105.6971-.5547,1.013-.195a4.05063,4.05063,0,0,1,.4246,1.7508c.1218,1.0276.2322,2.0624.3483,3.0932.0257.2282.0508.46689.0586.702h-8.9985A2.569,2.569,0,0,1,404.46843,313.49133Z" class="color0a3c5f svgShape"/><path fill="#f7b690" d="M397.02423 195.45325c-.5013-.30392-1.3171-.5314-1.5601-.015a.83012.83012 0 00.3217.896 2.44741 2.44741 0 01.6968.7492 1.12068 1.12068 0 01-.8179 1.35019 3.6002 3.6002 0 01-1.8056-.0392q-2.4285-.472-4.8568-.944c-.6727-.1308-1.5298-.19112-1.8867.3676a1.41629 1.41629 0 00.1218 1.36759 7.72664 7.72664 0 004.3532 3.7626 8.21463 8.21463 0 005.8741-.22391 5.58429 5.58429 0 002.6846-2.25539C401.753 197.62845 399.14273 196.73755 397.02423 195.45325zM395.36433 162.95875a4.88226 4.88226 0 014.6628-1.0073c1.0383.3301 2.0303 1.21688 1.8915 2.251a1.67062 1.67062 0 01-1.7988 1.3352c-.0194.9744-.967 1.6659-1.8206 2.2033q-.769.48435-1.5382.96838a2.22612 2.22612 0 01-1.5129.48992C392.70963 168.73685 394.22843 164.00425 395.36433 162.95875z" class="colorf7b690 svgShape"/><path fill="#69c2d4" d="M97.05723,240.92844c.4266-1.7956,1.3308-3.443,1.8483-5.2145a6.049,6.049,0,0,0-.5257-5.309c-2.0592-2.7215-6.5895-1.7874-9.2581-3.9148-1.87-1.49081-2.3685-4.1816-2.0055-6.5455s1.4283-4.5525,2.1691-6.8265a25.752,25.752,0,0,0-.5592-17.34781,33.29522,33.29522,0,0,1,7.0096,4.44781,11.20875,11.20875,0,0,1,3.932,7.1148c.1457,1.6693-.1875,3.47839.6506,4.9295,1.303,2.2564,4.6542,2.3816,6.3695,4.34289,1.5314,1.75111,5.7316,20.24951,5.1848,21.80121-.5974,1.695-2.6138,2.4554-3.5431,3.9937-.8748,1.4479,2.0781,4.3758,2.4867,6.0174,1.142,4.5895-2.4622,8.125-7.7626,4.6409C99.03613,250.41774,95.865,245.94544,97.05723,240.92844Z" class="color69c2d4 svgShape"/><path fill="#60aedc" d="M104.29433,241.57294c-.7196-2.5885-1.0103-5.4425.0797-7.8981,1.1251-2.535,3.6124-4.4052,4.2163-7.112,1.1714-5.2509-5.2894-9.79051-4.5315-15.1169.3688-2.5924,2.3795-4.6158,3.4178-7.0197a13.93668,13.93668,0,0,0,.5674-8.05449,81.35088,81.35088,0,0,0-2.2323-7.8802,10.70312,10.70312,0,0,1-.455-6.0219c.5876-1.9562,2.5901-3.627,4.576-3.14932-.5751,3.65522,1.7163,7.07272,3.8028,10.12842s4.1663,6.7017,3.1386,10.25629c-.7547,2.61029-3.1226,4.7806-2.9572,7.4928.1483,2.4307,2.2696,4.2026,4.1936,5.6954s3.9999,3.36109,3.9948,5.7963c-.0069,3.24679-3.7237,5.5159-3.9148,8.757-.1764,2.9903,2.694,5.3415,3.1562,8.3011.458,2.93269-1.5124,5.6436-3.4423,7.899s-4.0544,4.7583-3.9843,7.7258c.0325,1.3764.455,3.0256-.5849,3.9278-2.8395,2.4634-3.8089-2.885-4.3494-4.2998C107.72573,247.70164,105.28273,245.12814,104.29433,241.57294Z" class="color60aedc svgShape"/><path fill="#848dea" d="M113.75793,241.30994c1.5741-1.2487,2.8915-12.5853,2.0739-15.5064a5.71006,5.71006,0,0,1,1.4314-4.935c1.1195-1.3844,2.5607-2.478,3.7103-3.8374,3.2373-3.8282,2.4464-11.4024,7.1497-15.5206a28.79936,28.79936,0,0,0,2.5469,10.5399c.9168,1.7491,1.2878,4.0414.0768,5.6015-1.2785,1.647-3.7779,1.8328-5.2314,3.3277a5.67751,5.67751,0,0,0-1.0351,5.251,46.3473,46.3473,0,0,0,1.9988,5.20969,17.81761,17.81761,0,0,1-3.7818,18.09161,19.10986,19.10986,0,0,0-2.7443,3.0607c-.8883,1.4592-.3997,2.3562-1.8844,3.0183a7.17069,7.17069,0,0,1-6.1348-.5119C107.66373,251.92714,110.364,244.00194,113.75793,241.30994Z" class="color848dea svgShape"/><polygon fill="#f0ebe6" points="119.967 281.473 101.175 281.473 97.288 255.983 123.854 255.983 119.967 281.473" class="colorf0ebe6 svgShape"/><path fill="#f0ebe6" d="M124.93583,255.98314H96.20533a2.09278,2.09278,0,0,1-2.0927-2.0927h0a2.09272,2.09272,0,0,1,2.0927-2.0927h28.7305a2.09272,2.09272,0,0,1,2.0927,2.0927h0A2.09278,2.09278,0,0,1,124.93583,255.98314Z" class="colorf0ebe6 svgShape"/><path fill="#f4a086" d="M163.00073,176.13585q.08925-.073.183-.1417a5.45267,5.45267,0,0,1,5.424-.4877c3.0806,1.4802,3.2929,5.6806,3.8431,8.5231a46.28469,46.28469,0,0,1,1.0498,11.4197c-.3268,5.69908-3.3118,10.73389-4.3443,16.21819a47.60922,47.60922,0,0,1-5.3209,13.7781c-.5472.9494-1.2677,2.01279-2.3998,2.1153a2.38091,2.38091,0,0,1-2.2311-1.4416c-.459-.97791.1026-2.97891.2042-3.985.2893-2.866.8604-5.6941,1.1915-8.5508.6783-5.851,1.2933-11.8294,1.5947-17.74439.1168-2.2901-.6227-4.598-.8515-6.8982C160.99813,185.46955,159.78933,178.76255,163.00073,176.13585Z" class="colorf4a086 svgShape"/><path fill="#f7b690" d="M164.17693,228.88674a3.291,3.291,0,0,0-.2075-.9122.91.91,0,0,0-.7304-.5551,1.23469,1.23469,0,0,0-.9882.693,7.46908,7.46908,0,0,0-1.0326,5.6893,2.4636,2.4636,0,0,0,1.7126,2.0753,2.02539,2.02539,0,0,0,2.0572-1.31971C165.87233,232.39,164.491,230.93433,164.17693,228.88674Z" class="colorf7b690 svgShape"/><path fill="#561f22" fill-rule="evenodd" d="M160.73343,269.12984c.9735,1.95349,2.299,4.1566,4.2226,4.7034,1.3338.37909,5.0809-2.0235,5.831-2.9878s-1.5754-47.4678-3.2541-50.2989c-2.252-3.7979-20.0251,1.4474-19.4129,8.03579.7826,8.42271,3.3013,17.38351,6.2916,25.73521A136.02415,136.02415,0,0,0,160.73343,269.12984Z" class="color561f22 svgShape"/><path fill="#f4a086" d="M138.68223 312.29894a13.65379 13.65379 0 005.8301-.4471l-.3939-6.5477a1.21572 1.21572 0 00-1.2912-1.344c-1.5891-.26681-4.0054-.3501-4.0583 1.5437C138.70573 307.767 138.713 310.03484 138.68223 312.29894zM170.91323 312.29894a13.24292 13.24292 0 005.7702-.4471q-.63675-3.2739-1.2733-6.5477a1.77047 1.77047 0 00-.2995-.7982 1.84092 1.84092 0 00-1.1722-.5458c-1.6249-.26681-4.0524-.3501-3.851 1.5437C170.32823 307.767 170.64 310.03484 170.91323 312.29894z" class="colorf4a086 svgShape"/><path fill="#561f22" fill-rule="evenodd" d="M170.26563 263.77644c-2.5374-3.86411-8.6538-6.5126-11.2239.1904-3.9197 10.2229 8.5128 29.345 10.3626 41.6902h6.657C176.24613 304.46214 171.67333 265.92014 170.26563 263.77644zM138.05243 231.86954c1.6208 1.2159 3.7637 1.4019 5.7738 1.4019 16.5469 0 26.1219-5.125 23.8333-12.3639-2.3507-7.4359-17.1588-6.2355-24.8936-3.8393-1.6671.5165-4.0967 1.0166-5.2358 2.4992C135.87913 221.71664 134.11483 228.91554 138.05243 231.86954z" class="color561f22 svgShape"/><path fill="#e24b37" d="M160.32273,170.59885c.1449-1.198.4812-2.6104,1.6496-3.1332,1.2321-.5514,2.5546.25368,3.5131,1.07268,5.8093,4.96332,8.0109,11.96892,9.0642,19.488l-13.9307.81872A66.80207,66.80207,0,0,1,160.32273,170.59885Z" class="colore24b37 svgShape"/><path fill="#6e2e2f" fill-rule="evenodd" d="M139.45843,269.12984c.56,1.95349,1.4188,4.1566,3.2266,4.7034,1.2536.37909,5.5095-2.0235,6.4638-2.9878s8.6284-39.9788,7.5493-42.8099a11.21111,11.21111,0,0,0-8.8132-6.8238c-5.4263-.823-11.67.7822-12.453,7.37059-1.001,8.42271-.38,17.38351.8416,25.73521A113.30741,113.30741,0,0,0,139.45843,269.12984Z" class="color6e2e2f svgShape"/><path fill="#6e2e2f" fill-rule="evenodd" d="M150.49553,263.77644c-1.5717-3.8567-7.7889-6.9048-11.2713.1904-5.6071,11.4242-2.1858,28.4973-1.151,41.6902h6.6569C145.21283,304.46214,151.36913,265.92014,150.49553,263.77644Z" class="color6e2e2f svgShape"/><path fill="#fe6348" d="M169.45233,174.31975c1.6859,2.3748,1.0741,5.7592.654,8.5055-.8985,5.8753-3.0166,11.5676-4.2585,17.39808s-1.5612,12.01511,1.041,17.51621a8.20687,8.20687,0,0,1,.9748,2.6469,2.3102,2.3102,0,0,1-1.3192,2.3755,4.78418,4.78418,0,0,1-1.8906.2422q-13.0359-.0804-26.072-.1609a3.334,3.334,0,0,1-1.6666-.29791c-1.0434-.61989-.6824-1.96689-.3079-2.997,2.5067-6.89489.3655-14.319-1.9091-21.27119-2.2571-6.89839-5.0294-15.41989-3.7792-22.63259,3.0662-3.5657,9.3368-11.8423,21.7697-11.8423C161.41023,163.80225,167.93953,172.18885,169.45233,174.31975Z" class="colorfe6348 svgShape"/><path fill="#f4a086" d="M126.59663,188.54855a33.86512,33.86512,0,0,1,10.5735-16.5544c.919-.79,2.1654-1.5814,3.3044-1.1192a2.21685,2.21685,0,0,1,1.2199,1.4597,5.872,5.872,0,0,1,.1389,1.91668c-.3137,7.49612-1.7438,14.90432-3.1703,22.28232a25.99145,25.99145,0,0,1-1.9141,6.64929,9.32466,9.32466,0,0,1-4.9824,4.79239c-1.1848.42751-3.1227.67921-4.2146-.13289-.8783-.6532-1.0238-2.3169-1.246-3.2632a32.66378,32.66378,0,0,1-.7414-10.25939A32.17323,32.17323,0,0,1,126.59663,188.54855Z" class="colorf4a086 svgShape"/><path fill="#18b2ae" fill-rule="evenodd" d="M124.61943,190.93a.549.549,0,0,0-.0185.1403C124.60583,191.02333,124.61423,190.97685,124.61943,190.93Z" class="color18b2ae svgShape"/><path fill="#fe6348" d="M142.05493,171.93985c-.0656-1.1981-.3086-2.6104-1.4424-3.1333-1.1957-.5514-3.4179.4884-4.4306,1.3074-6.1374,4.96338-9.5518,11.7342-11.1022,19.2533l15.4729.8187A67.45063,67.45063,0,0,0,142.05493,171.93985Z" class="colorfe6348 svgShape"/><path fill="#f7b690" d="M149.04063,186.22315a2.59406,2.59406,0,0,1,2.3722,2.29918c.1599,1.16412-15.7802,17.95981-19.448,20.15071-1.116.6667-1.9233,1.2304-3.1539.7824a3.77487,3.77487,0,0,1-2.0239-2.6818,26.92733,26.92733,0,0,1-.968-5.3636c-.1105-1.3163,2.0143-1.9378,3.078-2.5862C132.806,196.44105,148.25153,186.22405,149.04063,186.22315Z" class="colorf7b690 svgShape"/><path fill="#f7b690" d="M154.15033,173.77933c.3933-.283.9438-.552,1.3452-.27948a.80047.80047,0,0,1,.2796.8103,3.63268,3.63268,0,0,1-.3326.8391c-.6442,1.4189-.4902,3.031-.5439,4.576a16.73709,16.73709,0,0,1-3.5414,9.6507c-1.8526,2.3735-4.2184-1.9104-3.9256-3.6669a20.48418,20.48418,0,0,1,3.1559-8.3352A15.33983,15.33983,0,0,1,154.15033,173.77933Z" class="colorf7b690 svgShape"/><path fill="#222b56" fill-rule="evenodd" d="M163.62753,150.73375c-.4142.6603-.9407.4822-.9141-.2801.0851-2.4385.1744-2.82032-.9827-5.0071-.6367-1.20322-.842-1.3048-.2595-1.7129C163.40063,142.38205,167.056,145.26875,163.62753,150.73375Z" class="color222b56 svgShape"/><path fill="#f4a086" d="M156.18223,154.15933c-.8516-3.57968-3.6956-4.41848-5.3493-3.55928-1.0596,6.7007-2.1397,9.6789-4.8975,13.3338,3.4286,2.0936,9.2822,1.704,10.5474,0C156.53333,163.39685,156.62263,156.01025,156.18223,154.15933Z" class="colorf4a086 svgShape"/><path fill="#f7b690" d="M152.78913,144.60133a6.00392,6.00392,0,0,1,9.7847,1.27122c1.746,3.4675-.1686,10.7929-1.6792,12.3177-2.6414,2.6665-8.2434-.3874-9.0242-2.3866C150.72683,152.87533,150.60183,147.17915,152.78913,144.60133Z" class="colorf7b690 svgShape"/><path fill="#222b56" fill-rule="evenodd" d="M154.15733,145.60315a44.15779,44.15779,0,0,1-1.437,7.8895c-.764-.3012-1.7368-2.3828-3.1799-2.3042-.4613.0251-1.0965.3103-1.1143-.5693-.1133-5.5721-.3437-5.2881.6987-5.799C151.42263,143.69385,153.86953,144.60725,154.15733,145.60315Z" class="color222b56 svgShape"/><path fill="#222b56" fill-rule="evenodd" d="M147.75863,142.12515c4.7724-3.192,12.6003-4.4003,14.8663-3.1312,3.3731,1.8891.8925,7.2818-.3734,7.5793-.5779.1359-1.1082-.2986-1.5999-.61792-2.3346-1.51578-4.4252-.35658-6.1805-.04848C151.36113,146.45275,143.69183,144.84515,147.75863,142.12515Z" class="color222b56 svgShape"/><path fill="#f7b690" d="M148.27023,150.33675a3.41175,3.41175,0,0,0,.8051,2.5284c1.7132,2.0041,3.4328-.7055,3.0356-2.3926C151.63733,148.46125,148.51333,147.891,148.27023,150.33675Z" class="colorf7b690 svgShape"/><path fill="#561f22" fill-rule="evenodd" d="M189.38313 315.50554c.0853-.907-.8185-1.6586-1.7487-1.8697a13.59225 13.59225 0 00-2.8591-.061 7.77226 7.77226 0 01-6.6275-3.8962 1.87231 1.87231 0 00-.6656-.8425 1.332 1.332 0 00-1.3855.2423c-.386.3017-.6585.7135-1.0112 1.0502a3.488 3.488 0 01-2.4265.9251c-.7481-.0105-1.5858-.5548-2.3045-.195-.6344.3175-.8053 1.1542-.9661 1.7507-.277 1.0277-.5282 2.0624-.7922 3.0932a4.13362 4.13362 0 00-.1335.702h5.1969a6.71841 6.71841 0 00.5422-1.6575 3.75942 3.75942 0 00.4502 1.6575h14.2829A1.50223 1.50223 0 00189.38313 315.50554zM147.10543 315.50554a2.08318 2.08318 0 00-.7687-1.8697c-.4088-.2112-1.047-1.7318-1.8936-3.9572-.3872-1.0179-2.5448-1.3024-3.6222.45-.3497.5686-.6743.9376-1.0666.9251-.3288-.0105-.697-.5548-1.0129-.195a4.05151 4.05151 0 00-.4247 1.7507c-.1218 1.0277-.2321 2.0624-.3482 3.0932-.0257.2283-.0509.4669-.0587.702h8.9986A2.56678 2.56678 0 00147.10543 315.50554z" class="color561f22 svgShape"/><path fill="#f4a086" d="M212.68623,280.54794c-1.5504,3.8935-1.7989,15.4405-5.4505,26.6696-.1453.732,3.5589,1.8716,4.0128,1.3401,5.8569-12.2637,14.7157-26.0349,16.4679-34.0067.5846-2.6603-2.2731-8.5213-5.7079-6.319C218.88133,270.23714,213.97323,277.31614,212.68623,280.54794Z" class="colorf4a086 svgShape"/><path fill="#01a2a3" fill-rule="evenodd" d="M203.49043,311.46324a10.63014,10.63014,0,0,1,1.4214-3.1151,5.62739,5.62739,0,0,1,2.5852-2.1516c.007.5856.2709,1.4761.8336,1.7123.4445.1866,3.0563.12149,3.4197.42849.2443.20631-.7983,3.98951-.1348,5.61621,0,0,2.3792,1.7153,3.6066,2.53979a4.40263,4.40263,0,0,1,1.3148,1.20331,1.618,1.618,0,0,1,.1244,1.6641,1.06835,1.06835,0,0,1-.0989.1234l-9.0674-1.5826-1.2358-.463a10.7892,10.7892,0,0,1-.2033-1.2375q-.27135-2.2212-.5431-4.4426a16.88811,16.88811,0,0,0-2.38,4.5087l-1.0962-.4107Z" class="color01a2a3 svgShape"/><path fill="#f4a086" d="M206.91293,227.78814c-.5036,3.29719.1583,6.6484.9432,9.8954,2.4761,10.2437,7.2035,25.1061,12.0901,34.5314.5945,1.1466,7.6519,3.0552,7.8465,1.8696,1.9836-12.0858-.8363-33.4926-4.6985-45.159a16.8564,16.8564,0,0,0-3.7564-6.9413C213.76213,216.48614,207.829,221.79044,206.91293,227.78814Z" class="colorf4a086 svgShape"/><path fill="#f7b690" d="M195.81843,283.25824c-.1875,4.1603,3.3861,15.1969,3.6239,26.95.1036.7384,3.9961.7119,4.2517.0715,1.5144-13.3952,5.3814-29.1199,4.4149-37.2123-.3226-2.7005-4.9692-7.4095-7.5035-4.2909C198.29813,271.61584,195.974,279.805,195.81843,283.25824Z" class="colorf7b690 svgShape"/><path fill="#18b2ae" fill-rule="evenodd" d="M197.46373,314.87484a10.37778,10.37778,0,0,1,.1252-3.3944,5.34878,5.34878,0,0,1,1.5787-2.9037c.2316.54259.8194,1.2793,1.4339,1.3029.4854.0186,2.8908-.9526,3.347-.7937.3284.1145.8595,4.5631,2.3091,5.5066a32.41647,32.41647,0,0,0,4.7415,2.1657,4.5125,4.5125,0,0,1,1.521.9579,1.63064,1.63064,0,0,1,.4374,1.6153,1.06221,1.06221,0,0,1-.0739.1385h-10.5465a11.15751,11.15751,0,0,1-.6647-1.08061q-1.1067-1.9725-2.2133-3.94479a16.39851,16.39851,0,0,0-.4816,5.0254h-1.178Q197.63168,317.17239,197.46373,314.87484Z" class="color18b2ae svgShape"/><path fill="#222b56" fill-rule="evenodd" d="M217.73893,234.45514c-2.7705,3.271-11.125,5.9413-13.488,4.5403-12.9277-7.6648-12.7738-6.2138-13.7583-9.941-.763-2.8887.873-5.8088,2.4501-8.381,1.4075-2.2955,15.8699-4.44,22.3737-2.8285,1.3197.3269,3.3549-.1172,3.9053,1.11039,1.0512,2.34451,1.7368,4.58911,3.3435,8.46231C223.46923,229.59694,220.35883,231.362,217.73893,234.45514Z" class="color222b56 svgShape"/><path fill="#f7b690" d="M192.26813,221.802c4.5993-5.9932,15.4868-5.0073,18.8204,2.7895,3.6879,8.6253-.8369,42.6341-2.9075,49.2045-.9436,1.7088-9.0481,4.8621-10.5094,1.6439-1.0866-10.0568-4.3086-28.754-5.8822-33.8468C190.60673,237.76544,187.49773,228.01794,192.26813,221.802Z" class="colorf7b690 svgShape"/><path fill="#01a2a3" fill-rule="evenodd" d="M231.31993 204.28024c.2704.8046-5.1142 1.5838-5.856.9545-6.8705-5.8282-15.5881-13.88069-19.9928-21.57389-.7578-1.32352 2.5972-5.90852 2.3957-7.4038C215.26553 178.29725 228.90643 197.09933 231.31993 204.28024zM228.44493 258.96133c-3.478 2.36621-34.0534 3.99871-38.1456 5.17391.3376-6.5852.1602-17.293-.9978-23.7932-.6618-3.7145-1.5693-7.4593-1.1777-11.2083s2.3835-7.6098 5.9922-9.1533c3.7742-1.6143 8.1347-.34711 12.2718-.3023a20.337 20.337 0 006.1629-.8955c1.4827-.4545 3.4071-1.8709 5.0104-1.2588 1.5064.5751 2.2135 2.6186 2.8677 3.869C221.50723 223.454 229.31583 244.52874 228.44493 258.96133z" class="color01a2a3 svgShape"/><path fill="#18b2ae" fill-rule="evenodd" d="M217.55283,208.52524c.7122-4.5762,2.5219-9.0646,2.1661-13.67849-.2807-3.6415-3.4256-6.6893-5.4287-10.0805-.9502-1.6087-.4105-4.29792-1.5527-5.6458-2.3572-2.7816-5.7744-3.2349-9.346-4.3333-9.7767-3.00682-12.3102,10.9205-11.9061,13.9871s2.4228,7.3746,3.0037,10.41539c1.4873,7.7868,1.4372,14.0968-1.5464,21.4838-.1361.3371,19.1864,2.7428,22.8018,2.0498,3.6648-.7025,4.1333-2.0035,2.877-5.08891A16.66084,16.66084,0,0,1,217.55283,208.52524Z" class="color18b2ae svgShape"/><path fill="#f4a086" d="M226.15763,200.71254c-7.6444-.7406-21.5313,1.0952-26.5647,1.3969.2089,5.55589,29.1477,6.7086,31.0141,4.853C234.84273,202.75133,228.59153,200.94833,226.15763,200.71254Z" class="colorf4a086 svgShape"/><path fill="#18b2ae" fill-rule="evenodd" d="M195.91823,186.098q-.3588,13.0767-.7177,26.15349a3.14747,3.14747,0,0,1-.5315,2.0245c-.9706,1.1309-3.1186.7408-4.12-.3655-4.3198-4.7724-6.1141-23.69239-4.774-27.12611a12.3119,12.3119,0,0,1,6.1893-6.88868C196.07143,178.126,196.00193,183.04833,195.91823,186.098Z" class="color18b2ae svgShape"/><path fill="#f7b690" d="M222.40933,199.62824c-1.4786-.9387-28.1788,6.5953-32.7114,10.7329-1.2337,1.1263.4217,4.2296,2.7274,4.5593a14.71909,14.71909,0,0,0,5.1131-.5235C207.91393,211.52633,226.84483,203.00774,222.40933,199.62824Z" class="colorf7b690 svgShape"/><path fill="#222b56" fill-rule="evenodd" d="M210.89383,152.24775a5.58442,5.58442,0,0,0-4.435-3.2448,5.74125,5.74125,0,0,0-5.126,2.13,9.46171,9.46171,0,0,1-1.7652,2.2726c-1.05.7451-2.4928.6337-3.7621.93978a5.365,5.365,0,0,0-3.9362,3.87552c-.8577,3.7463,2.7546,7.4174,2.0042,11.18448a9.29678,9.29678,0,0,1-2.7976,4.42592,17.41726,17.41726,0,0,0-3.4042,4.0842,4.40157,4.40157,0,0,0,.3429,4.9293,6.4659,6.4659,0,0,0,3.4896,1.578,21.03606,21.03606,0,0,0,4.3431.3435c3.3781,0,3.3781-6.6242,3.5505-11.7467.0999-2.9645,7.3045-3.2863,8.1847-6.1313.4826-1.56-.066-3.2375.0996-4.8561a6.61849,6.61849,0,0,1,2.068-3.8465,6.51566,6.51566,0,0,0,1.4756-3.2976A5.016,5.016,0,0,0,210.89383,152.24775Z" class="color222b56 svgShape"/><path fill="#f4a086" d="M206.37363,168.74733a13.53137,13.53137,0,0,0,.3999,6.251,2.12819,2.12819,0,0,1,.0202,1.88422,2.23088,2.23088,0,0,1-1.7796.5954,10.76684,10.76684,0,0,1-3.2591-.2325,3.42739,3.42739,0,0,1-2.3832-1.972,4.68878,4.68878,0,0,1,.089-2.5486q.54045-2.42205,1.0808-4.844a2.72193,2.72193,0,0,1,.5635-1.3298,2.07823,2.07823,0,0,1,2.3622-.2331,5.73249,5.73249,0,0,1,1.814,1.6868Z" class="colorf4a086 svgShape"/><path fill="#f7b690" d="M209.59283,168.04805a9.32807,9.32807,0,0,0,.8068-3.3908,16.81767,16.81767,0,0,0,.0427-4.7948,6.05462,6.05462,0,0,0-2.4718-4.0487,6.98816,6.98816,0,0,0-5.8624-.4352,6.16426,6.16426,0,0,0-3.9386,3.1329,7.885,7.885,0,0,0-.4545,2.6927,9.513,9.513,0,0,0,.2636,3.5318,6.516,6.516,0,0,0,2.4558,3.09638,16.56664,16.56664,0,0,0,3.6428,1.84942,7.54776,7.54776,0,0,0,2.2901.6158C207.95213,170.39165,208.93493,169.30433,209.59283,168.04805Z" class="colorf7b690 svgShape"/><path fill="#222b56" fill-rule="evenodd" d="M202.75883,158.21555c-.7091,1.5219-.4348,3.43978-1.5483,4.7233a3.15911,3.15911,0,0,1-3.8519.5826,3.28077,3.28077,0,0,1-1.5132-2.6066,4.68046,4.68046,0,0,1,.9171-2.9119,9.38633,9.38633,0,0,1,2.2799-2.1823,11.79412,11.79412,0,0,1,4.4646-2.06,7.8256,7.8256,0,0,1,3.1521-.0082c.7802.1651,2.2911.5697,2.5003,1.4491.2068.8686-.5967,1.028-1.245.857a4.38656,4.38656,0,0,0-2.8527.0412A4.215,4.215,0,0,0,202.75883,158.21555Z" class="color222b56 svgShape"/><path fill="#f7b690" d="M198.87223 162.60225a2.69271 2.69271 0 00-.9608-.1764 1.21792 1.21792 0 00-.8729.37148 1.30063 1.30063 0 00-.1728 1.20372 2.06032 2.06032 0 002.3744 1.553 1.32435 1.32435 0 001.0396-1.6969A1.88556 1.88556 0 00198.87223 162.60225zM197.53843 198.81644c-.9882 1.366 2.3663 2.1686 2.143 3.0031-.1939.7245-4.9468.8339-6.0765 1.1102a1.65866 1.65866 0 00-1.3702.9898 1.81353 1.81353 0 00.5692 1.6564 4.6225 4.6225 0 003.6532 1.3256 13.26519 13.26519 0 003.8119-.9935 6.1119 6.1119 0 001.8908-.9654 2.87858 2.87858 0 00.2208-4.1322C201.17063 199.689 198.96733 199.36954 197.53843 198.81644zM231.00053 202.43924a12.776 12.776 0 00-3.6241-1.4297c.7252.68379 2.2457 2.4185 1.8275 3.052-.4051.6139-2.3082-1.9169-3.0683-2.0217-1.4962-.2063-3.1491.5441-4.554-.1114-1.0586-.4938-1.7857-1.9139-.9269-2.7974C224.49663 195.17833 230.51543 199.10174 231.00053 202.43924z" class="colorf7b690 svgShape"/><path fill="#222b54" fill-rule="evenodd" d="M480.43023,267.11564c-1.125,1.9534-2.6214,4.1566-4.5874,4.7034-1.3632.379-4.9239-2.0235-5.5993-2.9878-.6754-.9645,5.2569-47.4678,7.1552-50.29891,2.5465-3.79789,19.9128,1.44741,18.7896,8.03581-1.4359,8.4226-4.6496,17.3835-8.2876,25.73519A148.66464,148.66464,0,0,1,480.43023,267.11564Z" class="color222b54 svgShape"/><path fill="#222b54" fill-rule="evenodd" d="M481.78,272.12274a5.86934,5.86934,0,0,0,1.4266-2.0475q7.587-15.19037,13.8554-30.9367c1.1653-2.9277,2.3145-6.0148,1.8758-9.1179s-3.0174-6.16731-6.3049-6.1484c-2.9089.0169-5.205,2.2895-6.9513,4.5053a56.06585,56.06585,0,0,0-10.0776,20.1231,54.93276,54.93276,0,0,0-1.8143,11.4094c-.1264,2.4551-.82,5.8568-.1051,8.2626C474.51183,270.95644,478.81983,274.51464,481.78,272.12274Z" class="color222b54 svgShape"/><path fill="#f4a086" d="M474.10743,310.28464a13.4749,13.4749,0,0,1-5.8043-.447q.3861-3.2739.7723-6.5477a1.65309,1.65309,0,0,1,.2384-.7982,1.69059,1.69059,0,0,1,1.1304-.5458c1.6045-.2668,4.0256-.3501,3.9691,1.5437C474.34573,305.75284,474.20743,308.02064,474.10743,310.28464Z" class="colorf4a086 svgShape"/><path fill="#222b54" fill-rule="evenodd" d="M471.04253,261.76224c2.2419-3.8642,8.1555-6.5126,11.2385.1904,4.7019,10.2228-6.2676,29.345-7.1729,41.6902h-6.6569C468.17493,302.44784,469.79883,263.90594,471.04253,261.76224Z" class="color222b54 svgShape"/><path fill="#0a3c5f" fill-rule="evenodd" d="M512.72933,229.85533c-1.6207,1.21591-3.7637,1.40191-5.7738,1.40191-16.5469,0-26.1219-5.1251-23.8333-12.36391,2.3507-7.43589,17.1589-6.23559,24.8936-3.83939,1.6672.5166,4.0967,1.0166,5.2358,2.4993C514.90263,219.70233,516.66693,226.90133,512.72933,229.85533Z" class="color0a3c5f svgShape"/><path fill="#f4a086" d="M485.20213,178.93305c-3.1918,6.5951-7.3414,13.035-13.5747,17.2175-1.3435.9015-3.0954,1.7081-4.5636,1.00478a3.1078,3.1078,0,0,1-1.5985-2.17208,6.872,6.872,0,0,1,.0831-2.7263c1.3301-7.0877,6.129-13.0717,10.7924-18.7387,1.9208-2.3341,4.9371-6.6041,8.3331-7.0132,3.5375-.4262,3.1992,4.7005,2.7262,6.6707A28.77814,28.77814,0,0,1,485.20213,178.93305Z" class="colorf4a086 svgShape"/><path fill="#818bea" fill-rule="evenodd" d="M494.04543,164.56885c-.948-.9307-7.5485.7501-8.7491,1.19348-7.2763,2.68742-11.9357,8.49982-15.7116,15.17892l12.7277,5.4552C485.40333,181.10885,494.94443,165.45115,494.04543,164.56885Z" class="color818bea svgShape"/><path fill="#0a3c5f" fill-rule="evenodd" d="M515.30573,224.60654c-1.4486-6.4855-7.826-7.508-13.1433-6.189a11.7039,11.7039,0,0,0-3.1731,1.315,6.79473,6.79473,0,0,0-5.4714,2.0955,10.76153,10.76153,0,0,0-2.6427,5.2998c-1.1788,5.37249.3149,10.9388,2.2138,16.1208a105.02479,105.02479,0,0,0,5.5015,12.4422c1.8903,3.6231,4.0983,8.3687,6.4031,11.7671.2558.3771,10.0636-.1273,10.4226-2.1232a112.79771,112.79771,0,0,0,1.6655-15.0362C517.44933,241.87344,517.15753,232.89744,515.30573,224.60654Z" class="color0a3c5f svgShape"/><path fill="#f4a086" d="M479.69913,214.46254c.1681,1.0712.271,2.3329-.5647,3.0675a2.47553,2.47553,0,0,1-2.6921.1396c-.8424-.4382-12.3399-18.42231-11.8563-23.40819.2434-2.5093,2.3359-3.5477,4.7037-3.45312C472.58483,190.93985,479.08693,210.56224,479.69913,214.46254Z" class="colorf4a086 svgShape"/><path fill="#f4a086" d="M471.57283,218.72594c-.5047.1516-1.0966.2563-1.369.68839a1.3783,1.3783,0,0,0,.2638,1.49561,4.77894,4.77894,0,0,0,4.1285,1.8106,5.25505,5.25505,0,0,0,3.911-2.2815,4.31907,4.31907,0,0,0,.3065-4.4343c-.6688-1.19641-2.8956-2.6739-4.0535-1.3669-.4739.535-.4239,1.7359-.8913,2.3993A4.3851,4.3851,0,0,1,471.57283,218.72594Z" class="colorf4a086 svgShape"/><path fill="#818bea" fill-rule="evenodd" d="M517.58823,190.19545c1.7704-5.83612,3.2515-12.2693,2.2746-17.90612-3.0663-3.56558-9.3369-8.58628-21.7698-8.58628-8.7214,0-15.2508,5.1306-16.7636,7.2615-1.5962,2.2487-1.1327,5.4017-.7224,8.0617-.2636,4.9557,2.7113,17.8169-1.7618,25.17959-3.5093,5.7761-3.9121,19.0932-2.9247,20.937l41.944,3.3253c.06-.7312.0051-10.1141-.0019-10.8197Q517.72538,203.92194,517.58823,190.19545Z" class="color818bea svgShape"/><path fill="#f7b690" d="M530.99033,183.43645a35.572,35.572,0,0,0-15.9438-12.0367c-1.1496-.4376-2.6067-.76842-3.5069.0411a2.129,2.129,0,0,0-.6129,1.772,5.93991,5.93991,0,0,0,.5675,1.8436c3.0229,6.9277,7.0609,13.4044,11.0846,19.85388a27.07036,27.07036,0,0,0,4.2158,5.60491,9.75259,9.75259,0,0,0,6.4178,2.8502c1.267.0098,3.1763-.394,3.9049-1.5162.5861-.9028.1169-2.5113-.0191-3.4722a33.22775,33.22775,0,0,0-6.1079-14.94059Z" class="colorf7b690 svgShape"/><path fill="#18b2ae" fill-rule="evenodd" d="M533.71173,185.01733a.566.566,0,0,1,.0685.12552C533.75843,185.10045,533.73363,185.05965,533.71173,185.01733Z" class="color18b2ae svgShape"/><path fill="#818bea" fill-rule="evenodd" d="M509.95683,171.70375c-.3746-1.1455-.6608-2.55042.2124-3.4152.9209-.912,3.3837-.6703,4.6317-.2365,7.5635,2.6291,13.2309,7.8528,17.4222,14.3937l-14.2155,5.8765A69.20155,69.20155,0,0,1,509.95683,171.70375Z" class="color818bea svgShape"/><path fill="#f7b690" d="M511.88273,218.82624a2.58256,2.58256,0,0,0,2.3082,2.3575c1.2142.203,19.5294-14.2295,21.988-17.6235.7481-1.0327,1.5258-2.2748,1.1096-3.4652a3.76948,3.76948,0,0,0-2.6878-1.97489,12.67582,12.67582,0,0,0-6.1902-.4119c-1.3441.32408-1.7026,1.51889-2.4293,2.50259C523.31083,203.826,511.91813,218.07544,511.88273,218.82624Z" class="colorf7b690 svgShape"/><path fill="#f4a086" d="M496.70233,155.96375c2.4561-3.5797,6.828-4.41842,8.9062-3.5592-.7874,6.7006-.2629,9.67878,2.4371,13.3337-5.6436,2.0937-13.9134,1.70408-15.1425,0C493.01553,165.20125,495.43233,157.81465,496.70233,155.96375Z" class="colorf4a086 svgShape"/><path fill="#222b56" fill-rule="evenodd" d="M493.62383,146.29a3.48342,3.48342,0,0,0-1.5948,2.0045,3.63747,3.63747,0,0,0,.3737,1.92088q.47055,1.19883.9413,2.39742a9.66076,9.66076,0,0,0,1.3809-2.96142,5.36523,5.36523,0,0,1,1.779-2.72058c.5707-.3967,1.3447-.6907,1.5043-1.3462.2292-.9413-.8192-1.3779-1.5635-.9933A22.30444,22.30444,0,0,0,493.62383,146.29Z" class="color222b56 svgShape"/><path fill="#f7b690" d="M504.62493,147.75225a6.01062,6.01062,0,0,0-9.8503-.6685c-2.4562,3.0522-2.1611,10.596-1.0114,12.38358,2.0106,3.126,8.1515,1.23222,9.3465-.57178C504.86,156.25325,506.21,150.70275,504.62493,147.75225Z" class="colorf7b690 svgShape"/><path fill="#222b56" fill-rule="evenodd" d="M494.63143,154.99185a2.29631,2.29631,0,0,1,2.8038.0837,3.78938,3.78938,0,0,1,.6816,1.3961,1.92624,1.92624,0,0,0,.9508,1.2042,2.406,2.406,0,0,0,2.0908-.5248q1.0683-.6774,2.1365-1.35472c.3425-.21718.8098-.43318,1.1325-.19.2923.22032.2325.65322.1206.99192a8.32889,8.32889,0,0,1-6.4453,5.3917,5.12456,5.12456,0,0,1-3.3631-.426,4.50445,4.50445,0,0,1-2.0356-3.3485C492.52773,157.04933,493.64813,155.63725,494.63143,154.99185Z" class="color222b56 svgShape"/><path fill="#222b56" fill-rule="evenodd" d="M503.06983,148.46515a43.97661,43.97661,0,0,0-.2938,8.0025c.8126-.1454,2.2134-1.9925,3.6088-1.6335.446.1148,1.0062.518,1.2133-.3394,1.3118-5.4313,1.476-5.1083.5659-5.8121C506.15783,147.13125,503.56623,147.54685,503.06983,148.46515Z" class="color222b56 svgShape"/><path fill="#f7b690" d="M507.81143,154.249a3.48412,3.48412,0,0,1-1.3328,2.3171c-2.1087,1.6265-3.2076-1.3615-2.4553-2.935C504.92033,151.75505,508.10063,151.80765,507.81143,154.249Z" class="colorf7b690 svgShape"/><path fill="#222b56" fill-rule="evenodd" d="M495.943,147.81875a1.32656,1.32656,0,0,0,.6855,1.2695c.5165.1885,6.3164-2.6246,6.6341-2.5922.3179.03228-.5226,1.97028-.2311,2.2617a1.18806,1.18806,0,0,0,1.029.1381,11.42722,11.42722,0,0,1,4.6715.5493,2.67378,2.67378,0,0,0,.1053-1.6406,4.19884,4.19884,0,0,0-.6807-1.18322,8.45687,8.45687,0,0,0-5.0208-3.38688,10.78923,10.78923,0,0,0-3.737.0533C494.65353,144.091,495.90683,147.05165,495.943,147.81875Z" class="color222b56 svgShape"/><path fill="#fdd247" fill-rule="evenodd" d="M455.64763,313.49133c-.0853-.907.8185-1.65859,1.7487-1.86979a13.59912,13.59912,0,0,1,2.8591-.061,7.77233,7.77233,0,0,0,6.6276-3.8961,1.87024,1.87024,0,0,1,.6655-.8425,1.33165,1.33165,0,0,1,1.3855.2422c.386.3018.6586.7136,1.0112,1.0503a3.488,3.488,0,0,0,2.4264.925c.7482-.0105,1.5859-.5547,2.3046-.195.6345.3175.8053,1.1543.9661,1.7508.277,1.0276.5282,2.0624.7923,3.0932a4.14117,4.14117,0,0,1,.1334.702h-5.1968a6.7141,6.7141,0,0,1-.5422-1.6575,3.76112,3.76112,0,0,1-.4502,1.6575h-14.283A1.50278,1.50278,0,0,1,455.64763,313.49133Z" class="colorfdd247 svgShape"/><path fill="#f4a086" d="M535.07613,307.62574a13.49138,13.49138,0,0,1-5.5744,1.6869q-1.11825-3.1014-2.2365-6.2029a1.57886,1.57886,0,0,1-.139-.8082,1.50533,1.50533,0,0,1,.8003-.90121c1.3649-.81949,3.5686-1.76729,4.3699-.03329C533.254,303.43924,534.14823,305.541,535.07613,307.62574Z" class="colorf4a086 svgShape"/><path fill="#0a3c5f" fill-rule="evenodd" d="M504.86473,266.96694c-.0772-4.1364,4.4669-9.1981,10.5091-3.8851,9.7288,8.55449,13.3442,25.5912,17.6274,38.1763l-6.1621,2.3988C525.91773,302.72464,504.90773,269.266,504.86473,266.96694Z" class="color0a3c5f svgShape"/><path fill="#fdd247" fill-rule="evenodd" d="M528.55293,313.62924a2.04,2.04,0,0,1-.0313-2.0078c.2946-.3428.2813-1.9803.1809-4.3453-.046-1.08181,1.8382-2.1226,3.5317-.8887.5496.4004.9966.62489,1.3548.472.3002-.1282.4248-.7647.8602-.5455a4.22568,4.22568,0,0,1,1.0885,1.4675c.521.9075,1.0343,1.8255,1.5512,2.73789.1145.202.2326.41391.3332.62861l-8.3296,3.2425A2.67419,2.67419,0,0,1,528.55293,313.62924Z" class="colorfdd247 svgShape"/><path fill="#f7b690" d="M507.99413,216.58274c-.682.77459,1.6268,1.299,2.4402,1.9485q-3.2694.16605-6.5389.332a1.71876,1.71876,0,0,0-1.0811.3037,1.00341,1.00341,0,0,0-.141,1.1963,2.59179,2.59179,0,0,0,.9421.906,10.65086,10.65086,0,0,0,7.2121,1.5603,5.70713,5.70713,0,0,0,2.7025-1.0169,2.74559,2.74559,0,0,0,1.1435-2.4494c-.2002-1.4265-1.3319-1.4514-2.4622-1.7278C511.49013,217.459,508.22653,216.31874,507.99413,216.58274Z" class="colorf7b690 svgShape"/></svg>