<svg xmlns="http://www.w3.org/2000/svg" xmlns:xlink="http://www.w3.org/1999/xlink" enable-background="new 0 0 2275 1758.439" viewBox="0 0 2275 1758.439"><path fill="#ff867a" d="M655.888,830.923c0,0,55.946,8.144,65.573-4.164c0,0,31.949-2.885,39.476-0.679       c7.527,2.206,28.318,22.048,32.549,23.195c4.231,1.146,4.696,26.648,16.956,34.761c12.26,8.114,70.02,21.764,79.781,10.034        c9.762-11.73,1.847-45.131-18.544-64.82c-20.391-19.689-48.574-72.024-68.341-74.422        c-19.767-2.398-93.948,33.285-125.239,49.431c-31.292,16.146-84.517-10.359-75.571,7.065        C611.473,828.748,655.888,830.923,655.888,830.923z" class="colorff867a svgShape"/><path fill="#c66c67" d="M842.074,874.511c0.223-0.034,0.444-0.099,0.66-0.196c1.281-0.578,1.852-2.085,1.274-3.367        l-14.024-31.118l-0.595-0.404c-0.168-0.114-16.832-11.497-25.461-22.09c-8.945-10.98-20.219-22.486-20.331-22.601        l-0.705-0.718l-33.334-1.39c-1.402-0.059-2.59,1.033-2.649,2.437c-0.058,1.404,1.032,2.591,2.437,2.649l31.316,1.306        c2.578,2.664,11.797,12.299,19.32,21.532c8.253,10.131,22.78,20.472,25.948,22.673l13.438,29.816        C839.848,874.107,840.972,874.681,842.074,874.511z" class="colorc66c67 svgShape"/><path fill="#ff867a" d="M450.211,886.573c23.274-10.006,43.828-39.5,52.284-48.333       c8.456-8.834,75.677-99.19,100.005-114.473c24.329-15.283,43.479-9.665,85.403-10.305c41.924-0.64,82.298-7.684,97.665-2.582       c15.368,5.102,44.308,12.917,59.276,15.021c14.968,2.104,41.709,10.951,59.718,18.571c18.009,7.62,54.484,13.596,57.097,26.683       c2.612,13.087-8.876,28.432-27.226,27.761c-18.35-0.672-68.089-17.84-68.089-17.84l-87.057,6.728       c0,0-60.311,15.908-77.268,15.751c-16.957-0.157-58.951,25.652-57.519,37.665c1.433,12.013,33.34,37.034,38.965,43.496       c5.624,6.461,12.043,10.451,16.12,12.243c1.244,0.547,7.572-0.306,15.897-1.838l-14.65,75.038       c-17.788,6.181-34.198,12.503-45.344,18.04c-36.472,18.118-95.525,29.617-123.079,36.963       c-27.553,7.347-155.307,80.637-166.541,73.656c-11.233-6.981-49.865-140.669-52.352-147.405       C313.517,951.409,426.937,896.579,450.211,886.573z" class="colorff867a svgShape"/><path fill="#c66c67" d="M789.815,714.993c1.07-0.165,1.956-1.007,2.128-2.133c0.212-1.39-0.744-2.688-2.134-2.899         c-15.504-2.358-51.312,4.082-82.906,9.766c-23.849,4.289-46.372,8.341-55.105,7.69c-20.76-1.547-44.555,0.584-44.793,0.606         c-1.383,0.127-2.432,1.366-2.303,2.766c0.128,1.4,1.366,2.432,2.766,2.304c0.233-0.021,23.621-2.114,43.952-0.599         c9.378,0.699,31.164-3.22,56.384-7.756c31.205-5.613,66.571-11.975,81.24-9.744         C789.306,715.033,789.565,715.032,789.815,714.993z" class="colorc66c67 svgShape"/><path fill="#ffe9d4" d="M918.206,751.476c0,0,1.269,4.922,9.12,10.902c7.852,5.98,17.471,9.493,23.887,12.182         c7.132,2.99,6.326,1.366,7.775-1.398c1.449-2.764,2.474-6.645,1.306-7.87c-1.97-2.067-15.287-11.772-34.828-14.184         C925.465,751.108,919.953,749.602,918.206,751.476z" class="colorffe9d4 svgShape"/><path fill="#c66c67" d="M650.286,832.947c-0.649,0-1.297-0.253-1.783-0.756c-0.952-0.984-0.926-2.554,0.058-3.506    c0.509-0.493,12.612-12.132,25.038-17.98l1.93-0.909c11.254-5.306,17.454-8.228,25.156-8.687    c8.788-0.523,16.228-1.509,24.877-3.294c9.766-2.015,52.714-12.321,53.147-12.425l0.388-0.061l56.37-4.356    c1.356-0.1,2.558,0.916,2.664,2.282c0.106,1.366-0.915,2.558-2.282,2.664l-56.173,4.341c-3.531,0.847-43.5,10.43-53.111,12.413    c-8.895,1.836-16.546,2.849-25.585,3.387c-6.748,0.402-12.64,3.18-23.336,8.222l-1.933,0.911    c-11.67,5.492-23.582,16.942-23.701,17.057C651.528,832.716,650.907,832.947,650.286,832.947z" class="colorc66c67 svgShape"/><path fill="#ffae43" d="M1073.201,654.661C935.845,657.352,825.803,770.63,826.91,908.008    c0.508,63.02,24.212,120.511,62.991,164.36c9.7,10.968,10.15,27.302,0.966,38.705l-17.517,21.75    c-5.248,6.516-0.334,16.174,8.023,15.769l92.655-4.498c12.635-0.613,25.271,0.868,37.47,4.219    c21.251,5.838,43.627,8.956,66.732,8.956c138.805,0,251.328-112.523,251.329-251.328    C1329.56,765.573,1214.192,651.898,1073.201,654.661z" class="colorffae43 svgShape"/><path fill="#ff867a" d="M1942.507,1348.438c-12.861-4.133-222.609-22.13-222.609-22.13s-30.679-12.191-35.702-16.672    c-5.023-4.481-72.126-78.279-87.091-95.672c-14.965-17.394-26.843-46.964-53.353-52.323    c-26.509-5.36-114.998-11.394-131.72-10.013c-16.722,1.381-25.502-1.538-35.148,7.462c-9.646,8.999-45.945,45.295-59.09,58.078    c-13.146,12.783-9.698,23.074-21.217,40.17c-11.519,17.096-29.403,32.68-8.873,39.861c20.531,7.18,41.191-8.727,53.717-22.001    c12.526-13.274,15.29-28.226,15.29-28.226s42.057-20.645,47.067-30.794c0,0,51.133,4.186,67.842,12.373    c16.708,8.187,32.59,23.786,34.475,30.32c1.885,6.534-23.305,56.093-26.116,60.96c-0.846,1.464-7.824,2.771-17.3,3.761    c4.365,18.042,9.496,48.94,3.176,78.106c19.375,2.978,36.895,7.04,45.554,11.31c17.547,8.652,35.146,34.181,89.314,40.265    c54.168,6.084,93.848,3.723,115.295,9.108c21.448,5.385,130.099,60.68,141.967,51.422    c11.867-9.258,102.119-115.638,103.36-138.854C1962.586,1351.731,1955.368,1352.571,1942.507,1348.438z" class="colorff867a svgShape"/><path fill="#ff867a" d="M1564.804,1178.14c0,0-13.643-20.549-25.411-28.185c-11.767-7.636-82.173-54.976-92.83-62.741       c-10.657-7.765-27.124-17.106-59.13-14.886c-32.006,2.22-46.304-1.371-66.267-2.052c-19.963-0.681-43.18,6.145-64.141,3.329       c-20.961-2.816-20.311,25.37-1.149,38.525s78.812,3.47,78.812,3.47s17.165,8.885,37.214,10.306       c20.049,1.421,27.369-3.377,33.036,0.189c5.667,3.566,32.325,42.485,47.209,47.883       C1467.031,1179.375,1564.804,1178.14,1564.804,1178.14z" class="colorff867a svgShape"/><path fill="#ff867a" d="M1532.12,1151.926c0,0-33.209-40.409-42.515-49.457c-9.305-9.048-20.34-26.523-29.5-31.086       c-9.159-4.563-66.206-14.439-81.133-20.207c-14.927-5.768-58.992-20.154-69.882-17.013c-10.89,3.142-9.315,16.84-5.118,28.792       c3.287,9.362,6.778,14.534,24.08,18.15c17.303,3.616,61.291,10.884,61.291,10.884s76.681,43.234,90.781,48.348       C1494.226,1145.451,1532.12,1151.926,1532.12,1151.926z" class="colorff867a svgShape"/><path fill="#ff867a" d="M1434.246,1068.387c0,0-24.903-17.364-33.167-23.907c-8.264-6.543-16.839,2.687-17.38,5.397       c-0.542,2.709-2.453,11.174,2.855,14.88C1391.862,1068.462,1411.64,1074.016,1434.246,1068.387z" class="colorff867a svgShape"/><path fill="#ffe9d4" d="M1281.887 1082.532c4.948-2.057 8.573-6.994 10.48-10.135-11.857 1.415-23.932 2.74-35.34 1.207-7.491-1.006-12.207 1.957-14.32 6.769 1.776 1.956 4.828 3.673 8.272 5.751C1257.232 1089.9 1274.371 1085.657 1281.887 1082.532zM1306.431 1045.165c1.39 2.277 10.149 5.01 27.46 2.248 9.634-1.537 14.883-3.785 17.647-5.476-17.09-5.148-35.852-9.676-42.447-7.773-.806.232-1.535.529-2.208.872C1309.354 1038.14 1305.236 1043.208 1306.431 1045.165z" class="colorffe9d4 svgShape"/><path fill="#c66c67" d="M1557.693 1167.672c-.633.76-1.718 1.039-2.665.616-.071-.032-7.195-3.209-11.862-4.459-4.521-1.211-51.779-6.099-56.896-6.523-4.309-.356-58.665-3.233-59.214-3.262-1.25-.066-2.209-1.132-2.143-2.382.067-1.25 1.133-2.209 2.382-2.143 2.243.118 54.972 2.909 59.349 3.271 3.697.306 52.487 5.266 57.695 6.662 5.016 1.344 12.235 4.563 12.539 4.699 1.142.511 1.653 1.851 1.142 2.993C1557.934 1167.339 1557.824 1167.516 1557.693 1167.672zM1521.261 1138.203c-.732.879-2.025 1.081-2.997.431-4.824-3.223-21.253-15.185-35.748-25.738-9.438-6.872-18.353-13.362-22.93-16.616-8.728-6.205-20.477-12.193-35.919-18.306-9.058-3.586-39.447-3.827-48.068-2.793-8.717 1.045-22.277-.023-31.848-1.546-9.539-1.518-35.778-.65-36.041-.641-1.251.042-2.299-.937-2.341-2.188-.043-1.251.937-2.299 2.188-2.341 1.095-.037 26.941-.892 36.907.694 8.961 1.426 22.358 2.51 30.597 1.522 7.882-.946 39.94-1.013 50.276 3.079 15.785 6.249 27.848 12.406 36.876 18.825 4.599 3.27 13.524 9.767 22.972 16.646 14.461 10.529 30.851 22.462 35.599 25.635 1.041.695 1.32 2.102.625 3.142C1521.36 1138.077 1521.312 1138.142 1521.261 1138.203zM1427.89 1064.151c-.533.64-1.401.96-2.267.754l-44.516-10.594c-1.217-.29-1.969-1.511-1.679-2.728.29-1.219 1.511-1.97 2.729-1.68l44.516 10.594c1.217.29 1.969 1.511 1.679 2.728C1428.268 1063.577 1428.107 1063.891 1427.89 1064.151z" class="colorc66c67 svgShape"/><path fill="#ff867a" d="M1450.879,529.416c0,0-41.405,0.271-45.665,16.219c-4.26,15.948,7.144,35.355,41.043,43.163      c33.899,7.808,76.315,18.004,77.475,8.57C1524.893,587.934,1502.467,527.333,1450.879,529.416z" class="colorff867a svgShape"/><path fill="#ffae43" d="M1386.108,271.725h-523.15c-26.341,0-47.894,21.552-47.894,47.894v268.884    c0,26.341,21.552,47.894,47.894,47.894h445.517c12.511,0,24.581,4.624,33.889,12.984l67.431,60.558    c9.341,8.389,24.206,1.76,24.206-10.796V562.22v-13.85V319.618C1434.002,293.277,1412.45,271.725,1386.108,271.725z" class="colorffae43 svgShape"/><path fill="#ff867a" d="M1931.734,562.818c-9.273-17.378-53.646-6.786-78.246,0.686       c-17.354,5.271-35.574,7.491-53.599,5.466c-10.119-1.137-20.988-3.42-30.778-7.72c-29.146-12.8-127.872-99.284-165.809-120.538       s-90.14-66.381-127.943-58.743c-37.803,7.639-129.721,45.988-104.638,73.458c20.637,22.601,55.237,7.674,72.712-1.884       c13.375-7.316,48.896-19.721,48.896-19.721s-61.579,71.07-52.535,92.457c9.043,21.387,52.87,57.19,52.87,57.19       s3.379,25.81,20.488,33.24c7.293,3.167,19.484,3.932,19.484,3.932s20.82,16.535,38.002,9.729       c19.476-7.714,55.832,40.718,73.069,46.324c21.268,6.916,21.268,6.916,21.268,6.916s51.122,33.935,98.545,33.009       c47.423-0.926,152.884,10.815,173.07,6.539C1956.777,718.883,1944.716,587.147,1931.734,562.818z M1499.085,515.992       l10.196-20.182l55.943,4.73L1499.085,515.992z" class="colorff867a svgShape"/><path fill="#ffe9d4" d="M1384.401,436.744c4.527,4.16,9.586,11.302,13.51,10.533c3.925-0.769,15.076-6.921,19.031-15.89      c2.596-5.888-9.076-14.395-18.684-15.948c-12.539,5.169-26.601,14.684-23.599,17.336      C1377.215,433.09,1381.434,434.018,1384.401,436.744z" class="colorffe9d4 svgShape"/><path fill="#ffae43" d="M738.52,1191.629h592.464c23.421,0,42.583,19.162,42.583,42.583v239.07    c0,23.421-19.163,42.583-42.583,42.583h-523.44c-11.124,0-21.855,4.111-30.132,11.544l-59.954,53.844    c-8.305,7.459-21.522,1.564-21.522-9.599v-121.74V1437.6v-203.388C695.936,1210.792,715.099,1191.629,738.52,1191.629z" class="colorffae43 svgShape"/><path fill="#c66c67" d="M1533.735 618.648c-.545-.224-1.015-.638-1.303-1.204-.411-.811-10.02-20.083-5.039-39.852 1.309-5.199 2.131-9.825 2.858-13.907 1.963-11.043 3.382-19.021 12.155-24.76 11.171-7.308 73.141-7.744 80.17-7.77 1.411-.006 2.557 1.134 2.562 2.543.005 1.41-1.134 2.557-2.543 2.562-27 .099-69.891 2.029-77.395 6.937-6.927 4.532-8.056 10.874-9.924 21.382-.74 4.165-1.58 8.886-2.933 14.26-4.503 17.881 4.551 36.115 4.643 36.297.636 1.258.132 2.793-1.124 3.43C1535.171 618.913 1534.397 618.92 1533.735 618.648zM1491.696 585.831c-.775-.319-1.378-1.011-1.542-1.897-.898-4.844-8.721-47.558-7.098-55.604 1.819-9.012 14.496-14.462 15.035-14.69 1.298-.548 2.792.061 3.342 1.356.549 1.297-.057 2.795-1.353 3.345-2.982 1.267-10.953 5.713-12.02 10.998-1.082 5.363 3.661 35.031 7.113 53.665.257 1.386-.658 2.718-2.045 2.975C1492.628 586.072 1492.135 586.012 1491.696 585.831zM1564.255 502.902c-.736-.303-1.32-.945-1.517-1.778-.323-1.372.529-2.746 1.901-3.069 1.003-.235 24.822-5.722 46.114-1.547 1.39.279 2.285 1.614 2.014 2.996-.271 1.383-1.613 2.285-2.996 2.014-20.224-3.966-43.73 1.451-43.964 1.507C1565.269 503.151 1564.73 503.097 1564.255 502.902zM1664.978 686.577c-1.063 0-2.091-.573-2.623-1.578-.108-.204-10.944-20.634-22.729-41.372-21.762-38.292-27.156-43.224-28.291-43.824-5.646-2.445-17.085-5.539-23.715-7.24 1.407 5.341 2.945 13.693.899 19.602-3.075 8.875-15.38 19.949-15.902 20.417-1.221 1.091-3.096.987-4.188-.234-1.092-1.221-.988-3.096.232-4.188 3.241-2.901 12.118-11.778 14.251-17.936 2.06-5.949-1.068-17.025-2.447-20.79l-1.903-5.196 5.38 1.291c.857.206 21.091 5.081 29.778 8.845 1.871.811 6.254 2.709 30.823 45.902 11.924 20.962 22.943 41.739 23.053 41.946.767 1.448.216 3.243-1.232 4.01C1665.921 686.466 1665.446 686.577 1664.978 686.577zM1491.36 436.185c-.817-.336-1.437-1.087-1.561-2.025-.186-1.398.796-2.681 2.193-2.867.952-.127 23.481-3.057 37.485.87 13.658 3.831 61.297 23.901 63.32 24.751 1.299.547 1.907 2.045 1.36 3.344-.548 1.299-1.971 1.907-3.344 1.36-.493-.207-49.364-20.796-62.714-24.539-13.004-3.646-35.21-.755-35.433-.725C1492.207 436.413 1491.76 436.349 1491.36 436.185z" class="colorc66c67 svgShape"/><path fill="#c66c67" d="M1582.277 590.772c-.455-.187-.861-.507-1.154-.948l-15.612-23.509c-.78-1.174-.46-2.758.715-3.539 1.174-.779 2.758-.461 3.539.715L1585.377 587c.78 1.174.46 2.758-.715 3.539C1583.929 591.026 1583.035 591.084 1582.277 590.772zM1536.134 622.588c-1.121-.461-1.786-1.672-1.521-2.899.298-1.378 1.657-2.253 3.034-1.956.177.039 17.738 3.775 28.93 1.464 1.382-.286 2.731.604 3.016 1.983.285 1.38-.603 2.731-1.983 3.016-12.255 2.532-30.281-1.308-31.042-1.473C1536.417 622.69 1536.272 622.645 1536.134 622.588zM1497.477 602.547c-1.051 0-2.068-.559-2.607-1.547-2.849-5.224-3.484-11.524-3.625-14.196-1.646-1.608-5.719-5.507-11.733-10.733-8.211-7.135-38.869-42.7-40.169-44.21-1.069-1.241-.93-3.114.312-4.183 1.24-1.068 3.115-.93 4.183.312.316.367 31.676 36.748 39.566 43.604 8.135 7.068 12.687 11.654 12.877 11.846l.861.87-.003 1.224c0 .068.035 7.301 2.94 12.626.784 1.438.254 3.24-1.184 4.024C1498.444 602.43 1497.957 602.547 1497.477 602.547z" class="colorc66c67 svgShape"/><path fill="#ff867a" d="M1401.606,1323.351c-5.023-4.481-51.856-24.923-78.016-22.445    c-26.161,2.478-46.095,29.479-31.836,40.803c14.259,11.324,42.008,17.665,60.899,30.101    c18.891,12.435,23.216,25.439,55.252,25.091c16.226-0.176,38.066,1.739,57.952,4.796c6.32-29.166,1.189-60.064-3.176-78.106    C1440.655,1325.894,1405.118,1326.484,1401.606,1323.351z" class="colorff867a svgShape"/><path fill="#c66c67" d="M699.977,899.472c1.204-0.186,2.134-1.217,2.154-2.476c0.022-1.406-1.099-2.563-2.504-2.585        c-21.121-0.331-54.214-18.935-54.546-19.122c-1.224-0.693-2.776-0.263-3.469,0.96c-0.693,1.223-0.263,2.776,0.96,3.469        c1.401,0.793,34.552,19.432,56.975,19.783C699.693,899.504,699.836,899.494,699.977,899.472z" class="colorc66c67 svgShape"/><path fill="#ffe9d4" d="M1316.189,1326.808c-11.247-2.35-17.357-9.222-23.249-1.518       c-2.78,3.635-4.115,8.153-4.677,12.135c0.778,1.581,1.914,3.032,3.49,4.284c9.938,7.892,26.428,13.366,41.906,20.168       c2.484-4.684,6.553-12.872,7.814-18.459C1343.331,1335.19,1327.436,1329.159,1316.189,1326.808z" class="colorffe9d4 svgShape"/><path fill="#c66c67" d="M1506.911 1266.246c-.694.833-1.908 1.069-2.877.506-1.082-.629-1.449-2.016-.82-3.097l16.124-27.736c.634-1.077 2.016-1.449 3.097-.82 1.082.629 1.449 2.016.82 3.098l-16.124 27.736C1507.065 1266.045 1506.991 1266.15 1506.911 1266.246zM1516.81 1296.212c-.121.145-.263.278-.424.393l-35.088 25.069c-1.019.727-2.433.492-3.161-.526-.727-1.018-.494-2.433.526-3.16l35.088-25.069c1.018-.727 2.433-.492 3.161.526C1517.524 1294.301 1517.454 1295.439 1516.81 1296.212z" class="colorc66c67 svgShape"/><defs><path id="a" d="M1386.108,271.725h-523.15c-26.341,0-47.894,21.552-47.894,47.894v268.884     c0,26.341,21.552,47.894,47.894,47.894h445.517c12.511,0,24.581,4.624,33.889,12.984l67.431,60.558     c9.341,8.389,24.206,1.76,24.206-10.796V562.22v-13.85V319.618C1434.002,293.277,1412.45,271.725,1386.108,271.725z" fill="#000000" class="color000 svgShape"/></defs><clipPath id="b"><use overflow="visible" xlink:href="#a"/></clipPath><g clip-path="url(#b)" fill="#000000" class="color000 svgShape"><path fill="#434a59" d="M1047.194,358.836c0,0-3.818,7.052-0.485,13.072c2.963,5.351,24.452,22.866,28.636,21.865           c4.184-1.001,19.675-33.133,17.905-40.232c-1.77-7.098-19.362-10.356-24.917-7.166           C1062.779,349.565,1047.194,358.836,1047.194,358.836z" class="color434a59 svgShape"/><path fill="#393351" d="M1166.599,452.973c0,0,144.324,72.626,169.764,147.216         c32.316,94.751-98.13,214.507-148.438,205.025c-50.308-9.482,51.586-190.287,51.586-190.287s-72.336-55.887-84.108-84.534         S1166.599,452.973,1166.599,452.973z" class="color393351 svgShape"/><path fill="#28253a" d="M1238.741,617.626c0.656,0.187,1.38,0.137,2.037-0.195         c29.18-14.778,66.141-6.851,66.511-6.769c1.513,0.335,3.011-0.621,3.346-2.134c0.335-1.513-0.618-3.01-2.134-3.346         c-1.59-0.352-39.308-8.432-70.258,7.243c-1.383,0.7-1.936,2.389-1.236,3.771         C1237.375,616.921,1238.016,617.419,1238.741,617.626z" class="color28253a svgShape"/><path fill="#393351" d="M1234.756 1462.295c-9.412-3.95-11.352-11.983-15.943-19.6-.309-.514-2.873-11.456-2.97-12.329-.419-3.775-12.319-13.8-16.625-5.939-8.488 15.496-21.862-8.719-20.642-2.251 3.631 19.252-2.139 50.295 5.24 52.401 15.719 4.486 87.535 9.7 88.147 2.212C1272.328 1472.294 1251.032 1469.125 1234.756 1462.295zM914.498 1422.175c1.789-6.468-37.237 4.415-37.988 8.19-.174.873-3.7 11.816-4.055 12.329-5.261 7.618-7.908 15.65-17.667 19.6-16.877 6.831-38.452 9.999-38.479 14.493-.047 7.488 72.227 2.274 88.341-2.212C912.214 1472.47 909.174 1441.427 914.498 1422.175z" class="color393351 svgShape"/><path fill="#50456d" d="M981.977,755.77c18.015-39.79,154.996-91.413,191.13-99.916           c2.644,40.067,21.126,65.027,42.993,108.246c30.569,60.417,23.571,668.561,23.571,668.561s-9.594,6.201-33.636,6.188           c-31.771-0.017-41.345-6.188-41.345-6.188l-56.31-549.979c0,0-28.047,141.315-77.361,286.79           c-22.489,66.343-96.162,263.188-96.162,263.188s-13.253,6.188-32.054,6.188c-19.726,0-33.287-6.188-33.287-6.188           l54.862-303.238C924.378,1129.423,971.354,779.232,981.977,755.77z" class="color50456d svgShape"/><path fill="#393351" d="M1228.619,836.386c-1.774-19.751-3.806-36.474-6.132-49.242h-99.892l-153.87,72.029       c0,0,14.791,8.021,93.159,4.091C1131.772,859.76,1188.928,856.334,1228.619,836.386z" class="color393351 svgShape"/><path fill="#50456d" d="M964.137,668.563c1.042-88.055-18.284-135.859-9.899-165.844          c10.751-38.445,66.99-64.652,99.173-69.119c26.471-3.674,98.504,7.127,122.059,23.624          c37.779,26.458,52.859,345.6,52.859,345.6s-28.4,28.965-101.959,43.307c-11.209,2.186,1.002-48.377-5.104-47.598          c-5.466,0.697-11.145,49.938-23.165,52.25c-99.634,19.16-146.253,5.398-146.253,5.398S962.809,780.83,964.137,668.563z" class="color50456d svgShape"/><path fill="#ffffff" d="M1065.993,432.881c0,0-4.955-0.342-5.463,6.901c-0.507,7.243,64.846,197.872,71.422,198.796          c6.576,0.925-11.076-180.206-22.23-191.581C1098.569,435.621,1074.693,431.027,1065.993,432.881z" class="colorfff svgShape"/><path fill="#ff867a" d="M1066.98,437.026c0.625,6.935,45.839,30.304,37.529-1.291l-1.642-8.24l-7.601-38.173          l-0.892-4.475l-19.817-9.889L1066.98,437.026z" class="colorff867a svgShape"/><path fill="#c66c67" d="M1078.231,389.595c0,0,2.806,6.694,5.15,9.567c6.487,7.955,16.165,11.655,16.165,11.655          l-4.28-21.495C1087.927,388.809,1078.231,389.595,1078.231,389.595z" class="colorc66c67 svgShape"/><path fill="#ff5f4a" d="M1106.037,464.879l-7.936,0.555c0,0,2.469,46.355,2.896,61.482          c0.281,9.979,1.01,27.142,2.529,44.164c13.294,37.247,25.751,67.122,28.427,67.498c3.62,0.509-0.103-54.153-6.041-105.295          C1118.184,504.896,1106.037,464.879,1106.037,464.879z" class="colorff5f4a svgShape"/><path fill="#ff5f4a" d="M1094.048,462.744c0,0,1.695,8.938,9.092,6.318c7.397-2.62,7.243-7.551,4.315-9.709          c-2.928-2.158-10.017-2.466-10.479-1.849C1096.514,458.121,1094.048,462.744,1094.048,462.744z" class="colorff5f4a svgShape"/><path fill="#ffffff" d="M1068.467,424.847l30.328,26.108l4.692-20.348c0,0,6.814,8.031,8.645,11.256          c2.899,5.106,4.932,22.962,4.932,22.962l-16.599-6.383l-16.534,12.855c0,0-20.956-32.516-22.036-35.136          S1068.467,424.847,1068.467,424.847z" class="colorfff svgShape"/><path fill="#393351" d="M1103.929 907.321c-.273 0-.551-.032-.827-.099-1.873-.456-3.021-2.343-2.566-4.215 9.738-40.025 22.774-52.7 23.324-53.22 1.401-1.324 3.609-1.261 4.933.139 1.319 1.396 1.262 3.594-.124 4.919-.208.205-12.227 12.304-21.352 49.811C1106.928 906.251 1105.501 907.321 1103.929 907.321zM883.079 1422.446c-.095 0-.192-.01-.289-.03-.755-.16-1.237-.9-1.078-1.653.314-1.491 31.442-149.403 33.262-169.433 1.024-11.264 8.795-54.084 16.309-95.494 5.948-32.776 11.565-63.732 12.668-72.831.63-5.199 2.096-16.204 3.952-30.137 5.235-39.301 13.996-105.078 14.234-118.412.319-17.94 10.379-64.727 10.807-66.71.162-.754.903-1.233 1.659-1.07.754.163 1.233.906 1.07 1.659-.104.483-10.43 48.503-10.744 66.17-.24 13.495-8.676 76.825-14.258 118.732-1.855 13.924-3.32 24.921-3.948 30.103-1.113 9.18-6.738 40.177-12.692 72.993-7.154 39.425-15.263 84.108-16.275 95.25-1.835 20.191-32.027 163.657-33.311 169.754C884.305 1421.995 883.725 1422.446 883.079 1422.446zM1122.716 798.37c-.145 0-.292-.01-.44-.028-1.912-.241-3.266-1.986-3.026-3.898.126-1 12.582-100.65 10.643-152.301-.072-1.926 1.43-3.545 3.356-3.618 1.91-.093 3.545 1.43 3.618 3.356 1.961 52.219-10.566 152.429-10.693 153.435C1125.952 797.08 1124.449 798.37 1122.716 798.37zM1171.452 1422.446c-.035 0-.071-.001-.107-.004-.775-.059-1.417-.729-1.434-1.497-.411-17.988-1.66-65.535-2.489-69.473-1.207-5.736-5.447-112.569-4.931-124.253.382-8.662-4.421-64.276-7.929-104.884-1.722-19.943-3.084-35.696-3.477-41.711-.299-4.557-.854-13.988-1.557-25.905-2.127-36.077-5.688-96.46-7.391-110.83-2.243-18.929-4.05-47.491-4.068-47.778-.047-.77.526-1.359 1.313-1.345.773.028 1.439.675 1.487 1.445.018.285 1.82 28.772 4.054 47.623 1.713 14.452 5.276 74.887 7.405 110.995.702 11.91 1.258 21.334 1.556 25.887.391 5.987 1.82 22.515 3.472 41.653 3.514 40.683 8.327 96.402 7.936 105.244-.62 14.046 3.953 119.176 4.873 123.547 1.054 5.004 2.489 67.343 2.55 69.994C1172.732 1421.889 1172.175 1422.446 1171.452 1422.446z" class="color393351 svgShape"/><path fill="#434a59" d="M1095.036,339.636c0,0,0.71-10.046-9.613-16.439c-10.322-6.393-22.715-4.5-31.405,7.512        c-8.69,12.012-14.257,21.526-19.175,23.098s3.072,12.414,14.034,8.556C1059.839,358.506,1090.164,345.996,1095.036,339.636z" class="color434a59 svgShape"/><path fill="#ff867a" d="M1070.34,355.097l1.975,25.384c1.541,9.733,10.493,17.225,21.04,17.004             c7.873-0.165,11.967-0.326,20.494-5.148c7.105-4.018,7.958-12.794,3.879-22.601             c-5.291-12.722-13.781-22.935-18.629-28.145c-2.735-2.939-5.882-4.79-9.069-5.617c-1.167-0.303-2.403-0.202-3.496,0.306             C1079.327,339.633,1071.727,345.164,1070.34,355.097z" class="colorff867a svgShape"/><path fill="#ffffff" d="M1093.371,371.95c0,0,7.098-2.902,17.51-8.554c0,0,3.079,8.361-3.409,11.812             C1104.674,376.695,1099.766,377.296,1093.371,371.95z" class="colorfff svgShape"/><path fill="#ff867a" d="M1071.862,369.343c-1.36-1.253-2.512-2.695-3.578-4.205             c-2.026-2.871-5.702-6.667-8.483-1.567c-4.044,7.419,5.707,21.438,13.624,17.596             C1079.304,378.314,1075.287,372.499,1071.862,369.343z" class="colorff867a svgShape"/><path fill="#c66c67" d="M1098.05,361.325c1.927-0.957,3.48-2.267,4.75-4.003c0.962-1.315,2.813,0.413,1.862,1.714             c-1.377,1.882-3.166,3.387-5.253,4.424C1097.963,364.178,1096.593,362.048,1098.05,361.325z" class="colorc66c67 svgShape"/><path fill="#434a59" d="M1086.633 351.345c-1.173-.411-3.011.011-4 .696-1.022.707-2.137 1.895-2.468 3.157-.074.138-.097.279-.081.416 0 .003-.001.005-.001.008-.031.278.12.462.319.541.283.219.7.27 1.057-.056 1.445-1.319 3.405-2.43 5.206-3.125C1087.535 352.647 1087.367 351.384 1086.633 351.345zM1100.676 343.438c-.071-.002-.143.005-.218.029-.532.171-1.253.282-1.936.469-.055.009-.105.02-.144.034-.017.006-.033.015-.05.022-.988.298-1.845.788-1.839 1.905.001.143.051.262.127.357.153.458.66.825 1.189.526 1.178-.666 2.359-1.322 3.604-1.87C1102.317 344.512 1101.571 343.189 1100.676 343.438z" class="color434a59 svgShape"/><path fill="#c66c67" d="M1080.831,393.741c0.022,0.003,15.024,1.833,29.723-4.819c5.021-2.272,7.905-4.594,9.529-6.667        c-0.401,4.353-2.399,7.914-6.232,10.081c-8.528,4.822-12.622,4.983-20.495,5.148        C1088.703,397.582,1084.363,396.175,1080.831,393.741z" class="colorc66c67 svgShape"/><path fill="#ff867a" d="M962.458,893.379c0,0,0.68,13.493,3.057,16.474c2.377,2.981,9.321,7.898,6.413,11.414            c-2.908,3.517-14.234-2.581-17.417-6.32c-3.183-3.739-6.215-9.148-6.071-11.553            C948.584,900.99,962.458,893.379,962.458,893.379z" class="colorff867a svgShape"/><path fill="#393351" d="M968.348,948.922c-1.02,0.373-2.155,0.471-3.296,0.224             c-3.213-0.694-5.253-3.862-4.559-7.074l3.811-17.634c-17.184,0.143-39.026,0.409-47.387,0.718             c-0.842,4.182-1.913,12.11-2.603,18.83c-0.338,3.27-3.262,5.645-6.528,5.312c-3.27-0.336-5.648-3.259-5.312-6.529             c0.025-0.241,0.617-5.979,1.451-11.906c1.67-11.857,2.747-15.521,6.672-16.956c1.195-0.437,2.833-1.036,61.054-1.429             c1.807-0.012,3.521,0.797,4.659,2.198c1.139,1.402,1.58,3.245,1.198,5.011l-5.382,24.899             C971.679,946.66,970.202,948.245,968.348,948.922z M913.724,925.34L913.724,925.34L913.724,925.34z" class="color393351 svgShape"/><path fill="#ff867a" d="M941.18,885.382c0,0-21.356,28.023-16.183,42.124c2.07,5.644,26.043,3.115,30.581,1.909            c4.538-1.206-4.137-8.397-4.663-9.837c-0.985-2.695-1.586-2.274,3.988-9.315c5.573-7.041,11.632-16.468,9.15-20.781            C961.572,885.17,948.143,874.961,941.18,885.382z" class="colorff867a svgShape"/><polygon fill="#7f635d" points="786.603 1108.436 1005.393 1117.179 1040.715 942.235 825.802 936.247 800.166 1048.858" class="color7f635d svgShape"/><polygon fill="#564441" points="1038.009 1104.05 1040.715 942.235 1005.393 1117.179" class="color564441 svgShape"/><polygon fill="#564441" points="800.166 1048.858 1017.408 1057.673 1018.601 1051.766 801.509 1042.957" class="color564441 svgShape"/><path fill="#50456d" d="M968.725,477.462c0,0-40.092,32.9-40.092,107.695c0,42.022-2.941,170.535-2.941,170.535         s-3.362,121.002,0,131.967c3.362,10.965,69.676,8.089,69.676,8.089s8.578-149.62,8.998-184.497         C1004.786,676.375,1023.054,546.778,968.725,477.462z" class="color50456d svgShape"/><path fill="#393351" d="M973.253,899.055c-2.867,0-5.492-0.043-7.485-0.154c-1.553-0.086-2.742-1.415-2.656-2.968       c0.086-1.554,1.415-2.747,2.968-2.656c6.556,0.364,20.795-0.055,26.619-0.251l1.656-29.536       c0.08-1.426,8.011-143.408,12.095-207.815c4.095-64.579-5.123-145.815-30.273-169.168c-1.14-1.058-1.206-2.84-0.147-3.98       c1.06-1.139,2.841-1.205,3.98-0.147c26.705,24.797,36.343,106.128,32.062,173.652c-4.083,64.385-12.013,206.347-12.093,207.773       l-1.944,34.659l-2.559,0.1C994.818,898.589,982.719,899.055,973.253,899.055z M995.368,895.749h0.011H995.368z" class="color393351 svgShape"/><path fill="#434a59" d="M1087.331 362.81c-.453 0-.785-.027-.886-.037-.464-.043-.805-.454-.762-.919.043-.465.458-.817.919-.763 1.084.097 2.869-.028 3.449-.619.734-.749.672-1.256.668-1.278-.119-.451.156-.892.607-1.01.451-.118.918.172 1.037.623.037.139.316 1.397-1.105 2.848C1090.285 362.647 1088.443 362.81 1087.331 362.81zM1102.911 354.62c-.25 0-.426-.012-.487-.017-.464-.036-.811-.442-.776-.907.036-.464.453-.794.905-.778.702.055 2.008-.048 2.549-.54.163-.148.239-.32.243-.557.01-.466.381-.81.863-.827.468.01.837.397.827.863-.015.7-.292 1.314-.8 1.774C1105.279 354.498 1103.715 354.62 1102.911 354.62z" class="color434a59 svgShape"/></g><path fill="#ff867a" d="M767.11,882.565c4.799-2.95,28.796-17.698,47.545-21.617c18.75-3.919,38.884-4.256,63.084,7.073       c19.339,9.053,22.175,23.218,15.405,37.258c-2.568,5.325-45.498,12.755-51.035,14.505c-5.537,1.75-27.037,18.049-44.119,21.275       c-9.197,1.737-56.742,15.054-97.158,29.098l14.65-75.038C734.442,891.629,763.775,884.615,767.11,882.565z" class="colorff867a svgShape"/><path fill="#ffe9d4" d="M842.109,919.783c0,0-3.157-7.647-3.726-12.697c-0.569-5.05-5.419-11.565-2.891-16.03         c2.527-4.465,31.112-8.698,37.073-9.938c5.961-1.239,8.525,3.049,12.631,7.502c5.026,5.449,4.615,15.038,2.534,19.183         C885.649,911.948,842.109,919.783,842.109,919.783z" class="colorffe9d4 svgShape"/><defs><path id="c" d="M738.52,1191.629h592.464     c23.421,0,42.583,19.162,42.583,42.583v239.07c0,23.421-19.163,42.583-42.583,42.583h-523.44     c-11.124,0-21.855,4.111-30.132,11.544l-59.954,53.844c-8.305,7.459-21.522,1.564-21.522-9.599v-121.74V1437.6v-203.388     C695.936,1210.792,715.099,1191.629,738.52,1191.629z" fill="#000000" class="color000 svgShape"/></defs><clipPath id="d"><use overflow="visible" xlink:href="#c"/></clipPath><ellipse cx="1049.448" cy="1479.694" fill="#d47328" clip-path="url(#d)" rx="262.186" ry="15.377" class="colord47328 svgShape"/><g clip-path="url(#d)" fill="#000000" class="color000 svgShape"><path fill="#434a59" d="M1047.194,358.836c0,0-3.818,7.052-0.485,13.072c2.963,5.351,24.452,22.866,28.636,21.865           c4.184-1.001,19.675-33.133,17.905-40.232c-1.77-7.098-19.362-10.356-24.917-7.166           C1062.779,349.565,1047.194,358.836,1047.194,358.836z" class="color434a59 svgShape"/><path fill="#393351" d="M1166.599,452.973c0,0,144.324,72.626,169.764,147.216         c32.316,94.751-98.13,214.507-148.438,205.025c-50.308-9.482,51.586-190.287,51.586-190.287s-72.336-55.887-84.108-84.534         S1166.599,452.973,1166.599,452.973z" class="color393351 svgShape"/><path fill="#28253a" d="M1238.741,617.626c0.656,0.187,1.38,0.137,2.037-0.195         c29.18-14.778,66.141-6.851,66.511-6.769c1.513,0.335,3.011-0.621,3.346-2.134c0.335-1.513-0.618-3.01-2.134-3.346         c-1.59-0.352-39.308-8.432-70.258,7.243c-1.383,0.7-1.936,2.389-1.236,3.771         C1237.375,616.921,1238.016,617.419,1238.741,617.626z" class="color28253a svgShape"/><path fill="#393351" d="M1234.756 1462.295c-9.412-3.95-11.352-11.983-15.943-19.6-.309-.514-2.873-11.456-2.97-12.329-.419-3.775-12.319-13.8-16.625-5.939-8.488 15.496-21.862-8.719-20.642-2.251 3.631 19.252-2.139 50.295 5.24 52.401 15.719 4.486 87.535 9.7 88.147 2.212C1272.328 1472.294 1251.032 1469.125 1234.756 1462.295zM914.498 1422.175c1.789-6.468-37.237 4.415-37.988 8.19-.174.873-3.7 11.816-4.055 12.329-5.261 7.618-7.908 15.65-17.667 19.6-16.877 6.831-38.452 9.999-38.479 14.493-.047 7.488 72.227 2.274 88.341-2.212C912.214 1472.47 909.174 1441.427 914.498 1422.175z" class="color393351 svgShape"/><path fill="#50456d" d="M981.977,755.77c18.015-39.79,154.996-91.413,191.13-99.916           c2.644,40.067,21.126,65.027,42.993,108.246c30.569,60.417,23.571,668.561,23.571,668.561s-9.594,6.201-33.636,6.188           c-31.771-0.017-41.345-6.188-41.345-6.188l-56.31-549.979c0,0-28.047,141.315-77.361,286.79           c-22.489,66.343-96.162,263.188-96.162,263.188s-13.253,6.188-32.054,6.188c-19.726,0-33.287-6.188-33.287-6.188           l54.862-303.238C924.378,1129.423,971.354,779.232,981.977,755.77z" class="color50456d svgShape"/><path fill="#393351" d="M1228.619,836.386c-1.774-19.751-3.806-36.474-6.132-49.242h-99.892l-153.87,72.029       c0,0,14.791,8.021,93.159,4.091C1131.772,859.76,1188.928,856.334,1228.619,836.386z" class="color393351 svgShape"/><path fill="#50456d" d="M964.137,668.563c1.042-88.055-18.284-135.859-9.899-165.844          c10.751-38.445,66.99-64.652,99.173-69.119c26.471-3.674,98.504,7.127,122.059,23.624          c37.779,26.458,52.859,345.6,52.859,345.6s-28.4,28.965-101.959,43.307c-11.209,2.186,1.002-48.377-5.104-47.598          c-5.466,0.697-11.145,49.938-23.165,52.25c-99.634,19.16-146.253,5.398-146.253,5.398S962.809,780.83,964.137,668.563z" class="color50456d svgShape"/><path fill="#ffffff" d="M1065.993,432.881c0,0-4.955-0.342-5.463,6.901c-0.507,7.243,64.846,197.872,71.422,198.796          c6.576,0.925-11.076-180.206-22.23-191.581C1098.569,435.621,1074.693,431.027,1065.993,432.881z" class="colorfff svgShape"/><path fill="#ff867a" d="M1066.98,437.026c0.625,6.935,45.839,30.304,37.529-1.291l-1.642-8.24l-7.601-38.173          l-0.892-4.475l-19.817-9.889L1066.98,437.026z" class="colorff867a svgShape"/><path fill="#c66c67" d="M1078.231,389.595c0,0,2.806,6.694,5.15,9.567c6.487,7.955,16.165,11.655,16.165,11.655          l-4.28-21.495C1087.927,388.809,1078.231,389.595,1078.231,389.595z" class="colorc66c67 svgShape"/><path fill="#ff5f4a" d="M1106.037,464.879l-7.936,0.555c0,0,2.469,46.355,2.896,61.482          c0.281,9.979,1.01,27.142,2.529,44.164c13.294,37.247,25.751,67.122,28.427,67.498c3.62,0.509-0.103-54.153-6.041-105.295          C1118.184,504.896,1106.037,464.879,1106.037,464.879z" class="colorff5f4a svgShape"/><path fill="#ff5f4a" d="M1094.048,462.744c0,0,1.695,8.938,9.092,6.318c7.397-2.62,7.243-7.551,4.315-9.709          c-2.928-2.158-10.017-2.466-10.479-1.849C1096.514,458.121,1094.048,462.744,1094.048,462.744z" class="colorff5f4a svgShape"/><path fill="#ffffff" d="M1068.467,424.847l30.328,26.108l4.692-20.348c0,0,6.814,8.031,8.645,11.256          c2.899,5.106,4.932,22.962,4.932,22.962l-16.599-6.383l-16.534,12.855c0,0-20.956-32.516-22.036-35.136          S1068.467,424.847,1068.467,424.847z" class="colorfff svgShape"/><path fill="#393351" d="M1103.929 907.321c-.273 0-.551-.032-.827-.099-1.873-.456-3.021-2.343-2.566-4.215 9.738-40.025 22.774-52.7 23.324-53.22 1.401-1.324 3.609-1.261 4.933.139 1.319 1.396 1.262 3.594-.124 4.919-.208.205-12.227 12.304-21.352 49.811C1106.928 906.251 1105.501 907.321 1103.929 907.321zM883.079 1422.446c-.095 0-.192-.01-.289-.03-.755-.16-1.237-.9-1.078-1.653.314-1.491 31.442-149.403 33.262-169.433 1.024-11.264 8.795-54.084 16.309-95.494 5.948-32.776 11.565-63.732 12.668-72.831.63-5.199 2.096-16.204 3.952-30.137 5.235-39.301 13.996-105.078 14.234-118.412.319-17.94 10.379-64.727 10.807-66.71.162-.754.903-1.233 1.659-1.07.754.163 1.233.906 1.07 1.659-.104.483-10.43 48.503-10.744 66.17-.24 13.495-8.676 76.825-14.258 118.732-1.855 13.924-3.32 24.921-3.948 30.103-1.113 9.18-6.738 40.177-12.692 72.993-7.154 39.425-15.263 84.108-16.275 95.25-1.835 20.191-32.027 163.657-33.311 169.754C884.305 1421.995 883.725 1422.446 883.079 1422.446zM1122.716 798.37c-.145 0-.292-.01-.44-.028-1.912-.241-3.266-1.986-3.026-3.898.126-1 12.582-100.65 10.643-152.301-.072-1.926 1.43-3.545 3.356-3.618 1.91-.093 3.545 1.43 3.618 3.356 1.961 52.219-10.566 152.429-10.693 153.435C1125.952 797.08 1124.449 798.37 1122.716 798.37zM1171.452 1422.446c-.035 0-.071-.001-.107-.004-.775-.059-1.417-.729-1.434-1.497-.411-17.988-1.66-65.535-2.489-69.473-1.207-5.736-5.447-112.569-4.931-124.253.382-8.662-4.421-64.276-7.929-104.884-1.722-19.943-3.084-35.696-3.477-41.711-.299-4.557-.854-13.988-1.557-25.905-2.127-36.077-5.688-96.46-7.391-110.83-2.243-18.929-4.05-47.491-4.068-47.778-.047-.77.526-1.359 1.313-1.345.773.028 1.439.675 1.487 1.445.018.285 1.82 28.772 4.054 47.623 1.713 14.452 5.276 74.887 7.405 110.995.702 11.91 1.258 21.334 1.556 25.887.391 5.987 1.82 22.515 3.472 41.653 3.514 40.683 8.327 96.402 7.936 105.244-.62 14.046 3.953 119.176 4.873 123.547 1.054 5.004 2.489 67.343 2.55 69.994C1172.732 1421.889 1172.175 1422.446 1171.452 1422.446z" class="color393351 svgShape"/><path fill="#434a59" d="M1095.036,339.636c0,0,0.71-10.046-9.613-16.439c-10.322-6.393-22.715-4.5-31.405,7.512        c-8.69,12.012-14.257,21.526-19.175,23.098s3.072,12.414,14.034,8.556C1059.839,358.506,1090.164,345.996,1095.036,339.636z" class="color434a59 svgShape"/><path fill="#ff867a" d="M1070.34,355.097l1.975,25.384c1.541,9.733,10.493,17.225,21.04,17.004             c7.873-0.165,11.967-0.326,20.494-5.148c7.105-4.018,7.958-12.794,3.879-22.601             c-5.291-12.722-13.781-22.935-18.629-28.145c-2.735-2.939-5.882-4.79-9.069-5.617c-1.167-0.303-2.403-0.202-3.496,0.306             C1079.327,339.633,1071.727,345.164,1070.34,355.097z" class="colorff867a svgShape"/><path fill="#ffffff" d="M1093.371,371.95c0,0,7.098-2.902,17.51-8.554c0,0,3.079,8.361-3.409,11.812             C1104.674,376.695,1099.766,377.296,1093.371,371.95z" class="colorfff svgShape"/><path fill="#ff867a" d="M1071.862,369.343c-1.36-1.253-2.512-2.695-3.578-4.205             c-2.026-2.871-5.702-6.667-8.483-1.567c-4.044,7.419,5.707,21.438,13.624,17.596             C1079.304,378.314,1075.287,372.499,1071.862,369.343z" class="colorff867a svgShape"/><path fill="#c66c67" d="M1098.05,361.325c1.927-0.957,3.48-2.267,4.75-4.003c0.962-1.315,2.813,0.413,1.862,1.714             c-1.377,1.882-3.166,3.387-5.253,4.424C1097.963,364.178,1096.593,362.048,1098.05,361.325z" class="colorc66c67 svgShape"/><path fill="#434a59" d="M1086.633 351.345c-1.173-.411-3.011.011-4 .696-1.022.707-2.137 1.895-2.468 3.157-.074.138-.097.279-.081.416 0 .003-.001.005-.001.008-.031.278.12.462.319.541.283.219.7.27 1.057-.056 1.445-1.319 3.405-2.43 5.206-3.125C1087.535 352.647 1087.367 351.384 1086.633 351.345zM1100.676 343.438c-.071-.002-.143.005-.218.029-.532.171-1.253.282-1.936.469-.055.009-.105.02-.144.034-.017.006-.033.015-.05.022-.988.298-1.845.788-1.839 1.905.001.143.051.262.127.357.153.458.66.825 1.189.526 1.178-.666 2.359-1.322 3.604-1.87C1102.317 344.512 1101.571 343.189 1100.676 343.438z" class="color434a59 svgShape"/><path fill="#c66c67" d="M1080.831,393.741c0.022,0.003,15.024,1.833,29.723-4.819c5.021-2.272,7.905-4.594,9.529-6.667        c-0.401,4.353-2.399,7.914-6.232,10.081c-8.528,4.822-12.622,4.983-20.495,5.148        C1088.703,397.582,1084.363,396.175,1080.831,393.741z" class="colorc66c67 svgShape"/><path fill="#ff867a" d="M962.458,893.379c0,0,0.68,13.493,3.057,16.474c2.377,2.981,9.321,7.898,6.413,11.414            c-2.908,3.517-14.234-2.581-17.417-6.32c-3.183-3.739-6.215-9.148-6.071-11.553            C948.584,900.99,962.458,893.379,962.458,893.379z" class="colorff867a svgShape"/><path fill="#393351" d="M968.348,948.922c-1.02,0.373-2.155,0.471-3.296,0.224             c-3.213-0.694-5.253-3.862-4.559-7.074l3.811-17.634c-17.184,0.143-39.026,0.409-47.387,0.718             c-0.842,4.182-1.913,12.11-2.603,18.83c-0.338,3.27-3.262,5.645-6.528,5.312c-3.27-0.336-5.648-3.259-5.312-6.529             c0.025-0.241,0.617-5.979,1.451-11.906c1.67-11.857,2.747-15.521,6.672-16.956c1.195-0.437,2.833-1.036,61.054-1.429             c1.807-0.012,3.521,0.797,4.659,2.198c1.139,1.402,1.58,3.245,1.198,5.011l-5.382,24.899             C971.679,946.66,970.202,948.245,968.348,948.922z M913.724,925.34L913.724,925.34L913.724,925.34z" class="color393351 svgShape"/><path fill="#ff867a" d="M941.18,885.382c0,0-21.356,28.023-16.183,42.124c2.07,5.644,26.043,3.115,30.581,1.909            c4.538-1.206-4.137-8.397-4.663-9.837c-0.985-2.695-1.586-2.274,3.988-9.315c5.573-7.041,11.632-16.468,9.15-20.781            C961.572,885.17,948.143,874.961,941.18,885.382z" class="colorff867a svgShape"/><polygon fill="#7f635d" points="786.603 1108.436 1005.393 1117.179 1040.715 942.235 825.802 936.247 800.166 1048.858" class="color7f635d svgShape"/><polygon fill="#564441" points="1038.009 1104.05 1040.715 942.235 1005.393 1117.179" class="color564441 svgShape"/><polygon fill="#564441" points="800.166 1048.858 1017.408 1057.673 1018.601 1051.766 801.509 1042.957" class="color564441 svgShape"/><path fill="#50456d" d="M968.725,477.462c0,0-40.092,32.9-40.092,107.695c0,42.022-2.941,170.535-2.941,170.535         s-3.362,121.002,0,131.967c3.362,10.965,69.676,8.089,69.676,8.089s8.578-149.62,8.998-184.497         C1004.786,676.375,1023.054,546.778,968.725,477.462z" class="color50456d svgShape"/><path fill="#393351" d="M973.253,899.055c-2.867,0-5.492-0.043-7.485-0.154c-1.553-0.086-2.742-1.415-2.656-2.968       c0.086-1.554,1.415-2.747,2.968-2.656c6.556,0.364,20.795-0.055,26.619-0.251l1.656-29.536       c0.08-1.426,8.011-143.408,12.095-207.815c4.095-64.579-5.123-145.815-30.273-169.168c-1.14-1.058-1.206-2.84-0.147-3.98       c1.06-1.139,2.841-1.205,3.98-0.147c26.705,24.797,36.343,106.128,32.062,173.652c-4.083,64.385-12.013,206.347-12.093,207.773       l-1.944,34.659l-2.559,0.1C994.818,898.589,982.719,899.055,973.253,899.055z M995.368,895.749h0.011H995.368z" class="color393351 svgShape"/><path fill="#434a59" d="M1087.331 362.81c-.453 0-.785-.027-.886-.037-.464-.043-.805-.454-.762-.919.043-.465.458-.817.919-.763 1.084.097 2.869-.028 3.449-.619.734-.749.672-1.256.668-1.278-.119-.451.156-.892.607-1.01.451-.118.918.172 1.037.623.037.139.316 1.397-1.105 2.848C1090.285 362.647 1088.443 362.81 1087.331 362.81zM1102.911 354.62c-.25 0-.426-.012-.487-.017-.464-.036-.811-.442-.776-.907.036-.464.453-.794.905-.778.702.055 2.008-.048 2.549-.54.163-.148.239-.32.243-.557.01-.466.381-.81.863-.827.468.01.837.397.827.863-.015.7-.292 1.314-.8 1.774C1105.279 354.498 1103.715 354.62 1102.911 354.62z" class="color434a59 svgShape"/></g><g fill="#000000" class="color000 svgShape"><defs><path id="e" d="M1073.201,654.661     C935.845,657.352,825.803,770.63,826.91,908.008c0.508,63.02,24.212,120.511,62.991,164.36c9.7,10.968,10.15,27.302,0.966,38.705     l-17.517,21.75c-5.248,6.516-0.334,16.174,8.023,15.769l92.655-4.498c12.635-0.613,25.271,0.868,37.47,4.219     c21.251,5.838,43.627,8.956,66.732,8.956c138.805,0,251.328-112.523,251.329-251.328     C1329.56,765.573,1214.192,651.898,1073.201,654.661z" fill="#000000" class="color000 svgShape"/></defs><clipPath id="f"><use overflow="visible" xlink:href="#e"/></clipPath><g clip-path="url(#f)" fill="#000000" class="color000 svgShape"><path fill="#434a59" d="M1047.194,358.836c0,0-3.818,7.052-0.485,13.072c2.963,5.351,24.452,22.866,28.636,21.865           c4.184-1.001,19.675-33.133,17.905-40.232c-1.77-7.098-19.362-10.356-24.917-7.166           C1062.779,349.565,1047.194,358.836,1047.194,358.836z" class="color434a59 svgShape"/><path fill="#393351" d="M1166.599,452.973c0,0,144.324,72.626,169.764,147.216         c32.316,94.751-98.13,214.507-148.438,205.025c-50.308-9.482,51.586-190.287,51.586-190.287s-72.336-55.887-84.108-84.534         S1166.599,452.973,1166.599,452.973z" class="color393351 svgShape"/><path fill="#28253a" d="M1238.741,617.626c0.656,0.187,1.38,0.137,2.037-0.195         c29.18-14.778,66.141-6.851,66.511-6.769c1.513,0.335,3.011-0.621,3.346-2.134c0.335-1.513-0.618-3.01-2.134-3.346         c-1.59-0.352-39.308-8.432-70.258,7.243c-1.383,0.7-1.936,2.389-1.236,3.771         C1237.375,616.921,1238.016,617.419,1238.741,617.626z" class="color28253a svgShape"/><path fill="#393351" d="M1234.756 1462.295c-9.412-3.95-11.352-11.983-15.943-19.6-.309-.514-2.873-11.456-2.97-12.329-.419-3.775-12.319-13.8-16.625-5.939-8.488 15.496-21.862-8.719-20.642-2.251 3.631 19.252-2.139 50.295 5.24 52.401 15.719 4.486 87.535 9.7 88.147 2.212C1272.328 1472.294 1251.032 1469.125 1234.756 1462.295zM914.498 1422.175c1.789-6.468-37.237 4.415-37.988 8.19-.174.873-3.7 11.816-4.055 12.329-5.261 7.618-7.908 15.65-17.667 19.6-16.877 6.831-38.452 9.999-38.479 14.493-.047 7.488 72.227 2.274 88.341-2.212C912.214 1472.47 909.174 1441.427 914.498 1422.175z" class="color393351 svgShape"/><path fill="#50456d" d="M981.977,755.77c18.015-39.79,154.996-91.413,191.13-99.916           c2.644,40.067,21.126,65.027,42.993,108.246c30.569,60.417,23.571,668.561,23.571,668.561s-9.594,6.201-33.636,6.188           c-31.771-0.017-41.345-6.188-41.345-6.188l-56.31-549.979c0,0-28.047,141.315-77.361,286.79           c-22.489,66.343-96.162,263.188-96.162,263.188s-13.253,6.188-32.054,6.188c-19.726,0-33.287-6.188-33.287-6.188           l54.862-303.238C924.378,1129.423,971.354,779.232,981.977,755.77z" class="color50456d svgShape"/><path fill="#393351" d="M1228.619,836.386c-1.774-19.751-3.806-36.474-6.132-49.242h-99.892l-153.87,72.029       c0,0,14.791,8.021,93.159,4.091C1131.772,859.76,1188.928,856.334,1228.619,836.386z" class="color393351 svgShape"/><path fill="#50456d" d="M964.137,668.563c1.042-88.055-18.284-135.859-9.899-165.844          c10.751-38.445,66.99-64.652,99.173-69.119c26.471-3.674,98.504,7.127,122.059,23.624          c37.779,26.458,52.859,345.6,52.859,345.6s-28.4,28.965-101.959,43.307c-11.209,2.186,1.002-48.377-5.104-47.598          c-5.466,0.697-11.145,49.938-23.165,52.25c-99.634,19.16-146.253,5.398-146.253,5.398S962.809,780.83,964.137,668.563z" class="color50456d svgShape"/><path fill="#ffffff" d="M1065.993,432.881c0,0-4.955-0.342-5.463,6.901c-0.507,7.243,64.846,197.872,71.422,198.796          c6.576,0.925-11.076-180.206-22.23-191.581C1098.569,435.621,1074.693,431.027,1065.993,432.881z" class="colorfff svgShape"/><path fill="#ff867a" d="M1066.98,437.026c0.625,6.935,45.839,30.304,37.529-1.291l-1.642-8.24l-7.601-38.173          l-0.892-4.475l-19.817-9.889L1066.98,437.026z" class="colorff867a svgShape"/><path fill="#c66c67" d="M1078.231,389.595c0,0,2.806,6.694,5.15,9.567c6.487,7.955,16.165,11.655,16.165,11.655          l-4.28-21.495C1087.927,388.809,1078.231,389.595,1078.231,389.595z" class="colorc66c67 svgShape"/><path fill="#ff5f4a" d="M1106.037,464.879l-7.936,0.555c0,0,2.469,46.355,2.896,61.482          c0.281,9.979,1.01,27.142,2.529,44.164c13.294,37.247,25.751,67.122,28.427,67.498c3.62,0.509-0.103-54.153-6.041-105.295          C1118.184,504.896,1106.037,464.879,1106.037,464.879z" class="colorff5f4a svgShape"/><path fill="#ff5f4a" d="M1094.048,462.744c0,0,1.695,8.938,9.092,6.318c7.397-2.62,7.243-7.551,4.315-9.709          c-2.928-2.158-10.017-2.466-10.479-1.849C1096.514,458.121,1094.048,462.744,1094.048,462.744z" class="colorff5f4a svgShape"/><path fill="#ffffff" d="M1068.467,424.847l30.328,26.108l4.692-20.348c0,0,6.814,8.031,8.645,11.256          c2.899,5.106,4.932,22.962,4.932,22.962l-16.599-6.383l-16.534,12.855c0,0-20.956-32.516-22.036-35.136          S1068.467,424.847,1068.467,424.847z" class="colorfff svgShape"/><path fill="#393351" d="M1103.929 907.321c-.273 0-.551-.032-.827-.099-1.873-.456-3.021-2.343-2.566-4.215 9.738-40.025 22.774-52.7 23.324-53.22 1.401-1.324 3.609-1.261 4.933.139 1.319 1.396 1.262 3.594-.124 4.919-.208.205-12.227 12.304-21.352 49.811C1106.928 906.251 1105.501 907.321 1103.929 907.321zM883.079 1422.446c-.095 0-.192-.01-.289-.03-.755-.16-1.237-.9-1.078-1.653.314-1.491 31.442-149.403 33.262-169.433 1.024-11.264 8.795-54.084 16.309-95.494 5.948-32.776 11.565-63.732 12.668-72.831.63-5.199 2.096-16.204 3.952-30.137 5.235-39.301 13.996-105.078 14.234-118.412.319-17.94 10.379-64.727 10.807-66.71.162-.754.903-1.233 1.659-1.07.754.163 1.233.906 1.07 1.659-.104.483-10.43 48.503-10.744 66.17-.24 13.495-8.676 76.825-14.258 118.732-1.855 13.924-3.32 24.921-3.948 30.103-1.113 9.18-6.738 40.177-12.692 72.993-7.154 39.425-15.263 84.108-16.275 95.25-1.835 20.191-32.027 163.657-33.311 169.754C884.305 1421.995 883.725 1422.446 883.079 1422.446zM1122.716 798.37c-.145 0-.292-.01-.44-.028-1.912-.241-3.266-1.986-3.026-3.898.126-1 12.582-100.65 10.643-152.301-.072-1.926 1.43-3.545 3.356-3.618 1.91-.093 3.545 1.43 3.618 3.356 1.961 52.219-10.566 152.429-10.693 153.435C1125.952 797.08 1124.449 798.37 1122.716 798.37zM1171.452 1422.446c-.035 0-.071-.001-.107-.004-.775-.059-1.417-.729-1.434-1.497-.411-17.988-1.66-65.535-2.489-69.473-1.207-5.736-5.447-112.569-4.931-124.253.382-8.662-4.421-64.276-7.929-104.884-1.722-19.943-3.084-35.696-3.477-41.711-.299-4.557-.854-13.988-1.557-25.905-2.127-36.077-5.688-96.46-7.391-110.83-2.243-18.929-4.05-47.491-4.068-47.778-.047-.77.526-1.359 1.313-1.345.773.028 1.439.675 1.487 1.445.018.285 1.82 28.772 4.054 47.623 1.713 14.452 5.276 74.887 7.405 110.995.702 11.91 1.258 21.334 1.556 25.887.391 5.987 1.82 22.515 3.472 41.653 3.514 40.683 8.327 96.402 7.936 105.244-.62 14.046 3.953 119.176 4.873 123.547 1.054 5.004 2.489 67.343 2.55 69.994C1172.732 1421.889 1172.175 1422.446 1171.452 1422.446z" class="color393351 svgShape"/><path fill="#434a59" d="M1095.036,339.636c0,0,0.71-10.046-9.613-16.439c-10.322-6.393-22.715-4.5-31.405,7.512        c-8.69,12.012-14.257,21.526-19.175,23.098s3.072,12.414,14.034,8.556C1059.839,358.506,1090.164,345.996,1095.036,339.636z" class="color434a59 svgShape"/><path fill="#ff867a" d="M1070.34,355.097l1.975,25.384c1.541,9.733,10.493,17.225,21.04,17.004             c7.873-0.165,11.967-0.326,20.494-5.148c7.105-4.018,7.958-12.794,3.879-22.601             c-5.291-12.722-13.781-22.935-18.629-28.145c-2.735-2.939-5.882-4.79-9.069-5.617c-1.167-0.303-2.403-0.202-3.496,0.306             C1079.327,339.633,1071.727,345.164,1070.34,355.097z" class="colorff867a svgShape"/><path fill="#ffffff" d="M1093.371,371.95c0,0,7.098-2.902,17.51-8.554c0,0,3.079,8.361-3.409,11.812             C1104.674,376.695,1099.766,377.296,1093.371,371.95z" class="colorfff svgShape"/><path fill="#ff867a" d="M1071.862,369.343c-1.36-1.253-2.512-2.695-3.578-4.205             c-2.026-2.871-5.702-6.667-8.483-1.567c-4.044,7.419,5.707,21.438,13.624,17.596             C1079.304,378.314,1075.287,372.499,1071.862,369.343z" class="colorff867a svgShape"/><path fill="#c66c67" d="M1098.05,361.325c1.927-0.957,3.48-2.267,4.75-4.003c0.962-1.315,2.813,0.413,1.862,1.714             c-1.377,1.882-3.166,3.387-5.253,4.424C1097.963,364.178,1096.593,362.048,1098.05,361.325z" class="colorc66c67 svgShape"/><path fill="#434a59" d="M1086.633 351.345c-1.173-.411-3.011.011-4 .696-1.022.707-2.137 1.895-2.468 3.157-.074.138-.097.279-.081.416 0 .003-.001.005-.001.008-.031.278.12.462.319.541.283.219.7.27 1.057-.056 1.445-1.319 3.405-2.43 5.206-3.125C1087.535 352.647 1087.367 351.384 1086.633 351.345zM1100.676 343.438c-.071-.002-.143.005-.218.029-.532.171-1.253.282-1.936.469-.055.009-.105.02-.144.034-.017.006-.033.015-.05.022-.988.298-1.845.788-1.839 1.905.001.143.051.262.127.357.153.458.66.825 1.189.526 1.178-.666 2.359-1.322 3.604-1.87C1102.317 344.512 1101.571 343.189 1100.676 343.438z" class="color434a59 svgShape"/><path fill="#c66c67" d="M1080.831,393.741c0.022,0.003,15.024,1.833,29.723-4.819c5.021-2.272,7.905-4.594,9.529-6.667        c-0.401,4.353-2.399,7.914-6.232,10.081c-8.528,4.822-12.622,4.983-20.495,5.148        C1088.703,397.582,1084.363,396.175,1080.831,393.741z" class="colorc66c67 svgShape"/><path fill="#ff867a" d="M962.458,893.379c0,0,0.68,13.493,3.057,16.474c2.377,2.981,9.321,7.898,6.413,11.414            c-2.908,3.517-14.234-2.581-17.417-6.32c-3.183-3.739-6.215-9.148-6.071-11.553            C948.584,900.99,962.458,893.379,962.458,893.379z" class="colorff867a svgShape"/><path fill="#393351" d="M968.348,948.922c-1.02,0.373-2.155,0.471-3.296,0.224             c-3.213-0.694-5.253-3.862-4.559-7.074l3.811-17.634c-17.184,0.143-39.026,0.409-47.387,0.718             c-0.842,4.182-1.913,12.11-2.603,18.83c-0.338,3.27-3.262,5.645-6.528,5.312c-3.27-0.336-5.648-3.259-5.312-6.529             c0.025-0.241,0.617-5.979,1.451-11.906c1.67-11.857,2.747-15.521,6.672-16.956c1.195-0.437,2.833-1.036,61.054-1.429             c1.807-0.012,3.521,0.797,4.659,2.198c1.139,1.402,1.58,3.245,1.198,5.011l-5.382,24.899             C971.679,946.66,970.202,948.245,968.348,948.922z M913.724,925.34L913.724,925.34L913.724,925.34z" class="color393351 svgShape"/><path fill="#ff867a" d="M941.18,885.382c0,0-21.356,28.023-16.183,42.124c2.07,5.644,26.043,3.115,30.581,1.909            c4.538-1.206-4.137-8.397-4.663-9.837c-0.985-2.695-1.586-2.274,3.988-9.315c5.573-7.041,11.632-16.468,9.15-20.781            C961.572,885.17,948.143,874.961,941.18,885.382z" class="colorff867a svgShape"/><polygon fill="#7f635d" points="786.603 1108.436 1005.393 1117.179 1040.715 942.235 825.802 936.247 800.166 1048.858" class="color7f635d svgShape"/><polygon fill="#564441" points="1038.009 1104.05 1040.715 942.235 1005.393 1117.179" class="color564441 svgShape"/><polygon fill="#564441" points="800.166 1048.858 1017.408 1057.673 1018.601 1051.766 801.509 1042.957" class="color564441 svgShape"/><path fill="#50456d" d="M968.725,477.462c0,0-40.092,32.9-40.092,107.695c0,42.022-2.941,170.535-2.941,170.535         s-3.362,121.002,0,131.967c3.362,10.965,69.676,8.089,69.676,8.089s8.578-149.62,8.998-184.497         C1004.786,676.375,1023.054,546.778,968.725,477.462z" class="color50456d svgShape"/><path fill="#393351" d="M973.253,899.055c-2.867,0-5.492-0.043-7.485-0.154c-1.553-0.086-2.742-1.415-2.656-2.968       c0.086-1.554,1.415-2.747,2.968-2.656c6.556,0.364,20.795-0.055,26.619-0.251l1.656-29.536       c0.08-1.426,8.011-143.408,12.095-207.815c4.095-64.579-5.123-145.815-30.273-169.168c-1.14-1.058-1.206-2.84-0.147-3.98       c1.06-1.139,2.841-1.205,3.98-0.147c26.705,24.797,36.343,106.128,32.062,173.652c-4.083,64.385-12.013,206.347-12.093,207.773       l-1.944,34.659l-2.559,0.1C994.818,898.589,982.719,899.055,973.253,899.055z M995.368,895.749h0.011H995.368z" class="color393351 svgShape"/><path fill="#434a59" d="M1087.331 362.81c-.453 0-.785-.027-.886-.037-.464-.043-.805-.454-.762-.919.043-.465.458-.817.919-.763 1.084.097 2.869-.028 3.449-.619.734-.749.672-1.256.668-1.278-.119-.451.156-.892.607-1.01.451-.118.918.172 1.037.623.037.139.316 1.397-1.105 2.848C1090.285 362.647 1088.443 362.81 1087.331 362.81zM1102.911 354.62c-.25 0-.426-.012-.487-.017-.464-.036-.811-.442-.776-.907.036-.464.453-.794.905-.778.702.055 2.008-.048 2.549-.54.163-.148.239-.32.243-.557.01-.466.381-.81.863-.827.468.01.837.397.827.863-.015.7-.292 1.314-.8 1.774C1105.279 354.498 1103.715 354.62 1102.911 354.62z" class="color434a59 svgShape"/></g></g></svg>