<svg xmlns="http://www.w3.org/2000/svg" xmlns:xlink="http://www.w3.org/1999/xlink" data-name="Layer 1" viewBox="0 0 450 400"><defs><linearGradient id="a" x1="214.68" x2="226.68" y1="836.53" y2="836.53" gradientTransform="matrix(-.85 .52 -.52 -.85 773.52 650.6)" gradientUnits="userSpaceOnUse"><stop offset="0" stop-color="#f18100" class="stopColorf18100 svgShape"/><stop offset="1" stop-color="#ffb023" class="stopColorffb023 svgShape"/></linearGradient><linearGradient id="e" x1="286.35" x2="288.87" y1="118.3" y2="118.3" gradientUnits="userSpaceOnUse"><stop offset="0" stop-color="#007d90" class="stopColor007d90 svgShape"/><stop offset="1" stop-color="#00bdd2" class="stopColor00bdd2 svgShape"/></linearGradient><linearGradient id="c" x1="291.65" x2="294.17" y1="118.3" y2="118.3" gradientUnits="userSpaceOnUse"><stop offset="0" stop-color="#ff4428" class="stopColorff4428 svgShape"/><stop offset="1" stop-color="#ff7e3b" class="stopColorff7e3b svgShape"/></linearGradient><linearGradient id="b" x1="296.95" x2="299.47" y1="118.3" y2="118.3" gradientUnits="userSpaceOnUse"><stop offset="0" stop-color="#001b8d" class="stopColor001b8d svgShape"/><stop offset="1" stop-color="#0073d5" class="stopColor0073d5 svgShape"/></linearGradient><linearGradient id="h" x1="135.85" x2="361.02" y1="196.91" y2="196.91" xlink:href="#a"/><linearGradient id="i" x1="405.13" x2="451.29" y1="51.06" y2="51.06" gradientTransform="rotate(-8.1 791.681 513.779)" xlink:href="#a"/><linearGradient id="j" x1="157.91" x2="170.84" y1="263.39" y2="263.39" xlink:href="#b"/><linearGradient id="k" x1="236.19" x2="249.12" y1="136.11" y2="136.11" gradientTransform="rotate(-8.1 791.681 513.779)" xlink:href="#b"/><linearGradient id="l" x1="270.6" x2="283.53" y1="151.65" y2="151.65" gradientTransform="rotate(-8.1 791.681 513.779)" xlink:href="#b"/><linearGradient id="m" x1="295.93" x2="308.86" y1="123.66" y2="123.66" gradientTransform="rotate(-8.1 791.681 513.779)" xlink:href="#b"/><linearGradient id="n" x1="327.71" x2="340.64" y1="111" y2="111" gradientTransform="rotate(-8.1 791.681 513.779)" xlink:href="#b"/><linearGradient id="o" x1="377.16" x2="390.09" y1="87.5" y2="87.5" gradientTransform="rotate(-8.1 791.681 513.779)" xlink:href="#b"/><linearGradient id="p" x1="350.17" x2="363.1" y1="70.11" y2="70.11" gradientTransform="rotate(-8.1 791.681 513.779)" xlink:href="#b"/><linearGradient id="q" x1="143.29" x2="182.47" y1="180.01" y2="180.01" xlink:href="#b"/><linearGradient id="r" x1="193.78" x2="247.28" y1="180.01" y2="180.01" xlink:href="#c"/><linearGradient id="s" x1="143.53" x2="190.01" y1="159.4" y2="159.4" xlink:href="#c"/><linearGradient id="t" x1="194.39" x2="235.72" y1="169.89" y2="169.89" xlink:href="#b"/><linearGradient id="u" x1="237.44" x2="242.81" y1="169.89" y2="169.89" xlink:href="#b"/><linearGradient id="v" x1="194.14" x2="235.47" y1="138.79" y2="138.79" xlink:href="#c"/><linearGradient id="w" x1="353.5" x2="355.66" y1="225.75" y2="225.75" xlink:href="#b"/><linearGradient id="x" x1="358.05" x2="360.21" y1="225.75" y2="225.75" xlink:href="#c"/><linearGradient id="y" x1="241.07" x2="364.39" y1="270.84" y2="270.84" xlink:href="#c"/><linearGradient id="z" x1="304.22" x2="310.6" y1="261.71" y2="261.71" xlink:href="#b"/><linearGradient id="A" x1="279.43" x2="286" y1="281.88" y2="281.88" xlink:href="#b"/><linearGradient id="B" x1="261.35" x2="268.04" y1="278.99" y2="278.99" xlink:href="#b"/><linearGradient id="C" x1="324.58" x2="330.84" y1="268.65" y2="268.65" xlink:href="#b"/><linearGradient id="D" x1="241.07" x2="364.42" y1="284.75" y2="284.75" xlink:href="#b"/><linearGradient id="E" x1="308.88" x2="315.42" y1="274.94" y2="274.94" xlink:href="#c"/><linearGradient id="F" x1="280.82" x2="287.54" y1="291.37" y2="291.37" xlink:href="#c"/><linearGradient id="G" x1="263.23" x2="270.03" y1="285.75" y2="285.75" xlink:href="#c"/><linearGradient id="H" x1="328.35" x2="334.81" y1="284.97" y2="284.97" xlink:href="#c"/><linearGradient id="I" x1="250.27" x2="260.63" y1="311.76" y2="311.76" xlink:href="#c"/><linearGradient id="J" x1="267.89" x2="278.25" y1="307.08" y2="307.08" xlink:href="#b"/><linearGradient id="K" x1="287.54" x2="297.9" y1="310.04" y2="310.04" xlink:href="#c"/><linearGradient id="L" x1="307.19" x2="317.55" y1="301.97" y2="301.97" xlink:href="#b"/><linearGradient id="M" x1="326.84" x2="337.2" y1="305.71" y2="305.71" xlink:href="#c"/><linearGradient id="N" x1="346.49" x2="356.85" y1="301.05" y2="301.05" xlink:href="#b"/><linearGradient id="O" x1="180.8" x2="197.83" y1="68.34" y2="68.34" xlink:href="#b"/><linearGradient id="d" x1="1617.47" x2="1619.96" y1="-494.54" y2="-494.54" gradientTransform="matrix(-.69 .72 .72 .69 1698.11 -741.9)" gradientUnits="userSpaceOnUse"><stop offset="0" stop-color="#00bdd2" class="stopColor00bdd2 svgShape"/><stop offset="1" stop-color="#007d90" class="stopColor007d90 svgShape"/></linearGradient><linearGradient id="P" x1="1611.95" x2="1613.66" y1="-339.9" y2="-339.9" xlink:href="#d"/><linearGradient id="Q" x1="1526.92" x2="1531.9" y1="-453.53" y2="-453.53" gradientTransform="matrix(-.69 .72 .72 .69 1698.11 -741.9)" xlink:href="#e"/><linearGradient id="R" x1="1173.9" x2="1177.14" y1="1165.56" y2="1165.56" gradientTransform="matrix(-.67 .75 -.75 -.67 1913.04 -45.53)" xlink:href="#b"/><linearGradient id="S" x1="1179.83" x2="1186.33" y1="1025.21" y2="1025.21" gradientTransform="matrix(-.67 .75 -.75 -.67 1913.04 -45.53)" xlink:href="#b"/><linearGradient id="U" x1="363.87" x2="277.44" y1="440.62" y2="263.16" gradientTransform="rotate(35.9 320.145 112.818)" xlink:href="#e"/><linearGradient id="V" x1="181.53" x2="88.79" y1="414.09" y2="223.66" xlink:href="#e"/><linearGradient id="W" x1="166.33" x2="76.14" y1="274.68" y2="89.49" gradientTransform="rotate(-41.77 294.358 173.564)" xlink:href="#e"/><linearGradient id="X" x1="571.23" x2="575.41" y1="1024.1" y2="1024.1" gradientTransform="rotate(108.12 648.258 405.435)" xlink:href="#d"/><linearGradient id="Y" x1="529.13" x2="532.38" y1="1039.15" y2="1039.15" gradientTransform="rotate(108.12 648.258 405.435)" xlink:href="#b"/><linearGradient id="Z" x1="458.24" x2="461.49" y1="817.3" y2="817.3" gradientTransform="rotate(108.12 648.258 405.435)" xlink:href="#c"/><linearGradient id="aa" x1="512.33" x2="518.82" y1="1003.16" y2="1003.16" gradientTransform="rotate(108.12 648.258 405.435)" xlink:href="#c"/><radialGradient id="f" cx="203.95" cy="221.19" r="130.08" gradientUnits="userSpaceOnUse"><stop offset="0" stop-color="#a3d6ff" class="stopColora3d6ff svgShape"/><stop offset="1" stop-color="#e1f1ff" stop-opacity=".5" class="stopColore1f1ff svgShape"/></radialGradient><radialGradient id="g" cx="138.72" cy="135.01" r="38.33" xlink:href="#f"/><clipPath id="T"><path fill="none" d="M68.66 90.91h186.65v259.97H68.66z"/></clipPath></defs><path fill="url(#f)" d="M236.93 92.77c-46.53 9.83-39.6 64.18-119.7 94.67-85.85 32.69-33.85 156 63.83 163 97.22 7 142.06-36.85 152-120.16 7.55-62.62-26.99-152.12-96.13-137.51Z" opacity=".7"/><path fill="url(#g)" d="M127.57 176.27c20.87-7.17 52.5-40.68 41.06-78.21S66 197.44 127.57 176.27Z" opacity=".7"/><path fill="url(#a)" d="m145.89 59.29 9.27-7.84-.45-.6a11.47 11.47 0 0 0-2.41-2.13 10.94 10.94 0 0 0-4.1-1.62Z"/><path fill="#ffffff" d="M316 126.2v118a16.28 16.28 0 0 1-16.28 16.27h-151a16.27 16.27 0 0 1-16.28-16.27V125.44a13.89 13.89 0 0 1 13.88-13.14H302a13.91 13.91 0 0 1 14 13.9Z" class="colorfff svgShape"/><path fill="#ff6645" d="M299.68 261.56h-151a17.36 17.36 0 0 1-17.35-17.34v-118.8a15 15 0 0 1 14.95-14.16H302a15 15 0 0 1 15 15v118a17.36 17.36 0 0 1-17.32 17.3ZM146.25 113.37a12.82 12.82 0 0 0-12.82 12.13v118.7a15.23 15.23 0 0 0 15.22 15.21h151.03a15.22 15.22 0 0 0 15.21-15.21v-118A12.85 12.85 0 0 0 302 113.37Z" class="colorff6645 svgShape"/><path fill="url(#e)" d="M287.61 117a1.26 1.26 0 1 0 1.26 1.26 1.26 1.26 0 0 0-1.26-1.26Z"/><path fill="url(#c)" d="M292.91 117a1.26 1.26 0 1 0 1.26 1.26 1.26 1.26 0 0 0-1.26-1.26Z"/><path fill="url(#b)" d="M298.21 117a1.26 1.26 0 1 0 1.26 1.26 1.26 1.26 0 0 0-1.26-1.26Z"/><path fill="url(#h)" d="m361 111.89-1.5 1.77-2.44 2.89-.51.6-21.25 25.19-6.3 7.55-4.53 5.37-.26-.13-.76-.37-6.48-3.14-1-.46-16.5-8-.58-.28-4.89-2.37-1.83 5.49-10.52 32.33-2.15 6.59-2.17 1.21-3.87 2.16-19 10.59-3.59 2-2 3.35-.49.79-1.31 2.16-14 21.75-4.67 7.64-.22-.14-7.06-4.65-10.12-2.42-14.52-3.51-.24-.06-2.36.35-2.3-1.53-.29-.19-1.45 2.3-.91 1.44-19.55 31.06-.8 1.27-2.68 4.26-.31.22-5 3.62-21.92 15.86-2.77-2.85 22.39-16.2 4.69-3.39.95-1.52.05-.07 2.07-3.29.37-.58 19.41-30.83 4.26-6.78.7.45 5.25 2.73 1.17-.39.45.11 6.54 1.64 18.45 4.63 1.46 1 3 2h.07l2.88-4.71.63-1 13-20 4.32-7.08.13-.23 4.12-2.3 3.59-2 15.74-8.79 4.7-2.62 1.67-5.12 10.88-33.46 2.76-8.8 8.81 4.26 15.59 7.53 2.89 1.4 4.53 2.2 2.75-3.25 1.05-1.25 4.18-4.95 22.21-26.32 2.93-3.49 1.5-1.77Z"/><path fill="url(#i)" d="m373.05 131.06 8.3-46.31-44.27 15.97 35.97 30.34z"/><path fill="url(#j)" d="M165.35 269.77a6.44 6.44 0 0 1-7.11-4.37 6.18 6.18 0 0 1-.25-1 6.45 6.45 0 0 1 8-7.22 6.53 6.53 0 0 1 3.33 2.09 6.46 6.46 0 0 1 .83 1.27 6.16 6.16 0 0 1 .61 1.92 6.46 6.46 0 0 1-5.41 7.31Z"/><path fill="url(#k)" d="M197.54 221.15a6.47 6.47 0 1 1-7.36-5.43 6.47 6.47 0 0 1 7.36 5.43Z"/><path fill="url(#l)" d="M233.89 231.35a6.46 6.46 0 1 1-7.36-5.42 6.46 6.46 0 0 1 7.36 5.42Z"/><path fill="url(#m)" d="M254.74 199.89a6.46 6.46 0 1 1-7.36-5.43 6.46 6.46 0 0 1 7.36 5.43Z"/><path fill="url(#n)" d="M284.26 182.61a6.46 6.46 0 1 1-7.36-5.42 6.46 6.46 0 0 1 7.36 5.42Z"/><path fill="url(#o)" d="M329.64 152a6.47 6.47 0 1 1-7.36-5.43 6.48 6.48 0 0 1 7.36 5.43Z"/><path fill="url(#p)" d="M300.35 138.81a6.47 6.47 0 1 1-7.36-5.42 6.47 6.47 0 0 1 7.36 5.42Z"/><path fill="#ff6645" d="M180.03 125.95h135.93v2.24H180.03z" class="colorff6645 svgShape"/><path fill="url(#q)" d="m182.47 181.75-.07-3.49h-39.11l.08 3.49h39.1z"/><path fill="url(#r)" d="m247.28 181.75-.08-3.49h-53.42l.07 3.49h53.43z"/><path fill="#1a120e" d="m170.91 171.64-.07-3.49H143.9l.07 3.49h26.94z" class="color1a120e svgShape"/><path fill="url(#s)" d="m190.01 161.14-.07-3.48h-46.41l.08 3.48h46.4z"/><path fill="#1a120e" d="m182.22 150.65-.07-3.49h-39.11l.08 3.49h39.1zM178.01 171.64l-.07-3.49h-5.3l.07 3.49h5.3z" class="color1a120e svgShape"/><path fill="url(#t)" d="m235.72 171.64-.07-3.49h-41.26l.07 3.49h41.26z"/><path fill="#1a120e" d="m254.81 161.14-.07-3.48h-60.72l.08 3.48h60.71zM247.03 150.65l-.07-3.49h-53.43l.08 3.49h53.42z" class="color1a120e svgShape"/><path fill="url(#u)" d="m242.81 171.64-.07-3.49h-5.3l.07 3.49h5.3z"/><path fill="#1a120e" d="m170.66 140.53-.07-3.49h-26.94l.07 3.49h26.94zM177.76 140.53l-.07-3.49h-5.3l.07 3.49h5.3z" class="color1a120e svgShape"/><path fill="url(#v)" d="m235.47 140.53-.07-3.49h-41.26l.07 3.49h41.26z"/><path fill="#1a120e" d="m242.56 140.53-.07-3.49h-5.3l.08 3.49h5.29z" class="color1a120e svgShape"/><path fill="#1a120e" d="M316 211.77v32.45a16.28 16.28 0 0 1-16.28 16.27h-68.27v-41.76a7 7 0 0 1 7-7Z" opacity=".2" class="color1a120e svgShape"/><path fill="#ffffff" d="M247.17 220.8h111.09a7 7 0 0 1 7 7v78.7a8.57 8.57 0 0 1-8.57 8.57H248.78a8.57 8.57 0 0 1-8.57-8.57v-78.7a7 7 0 0 1 6.96-7Z" class="colorfff svgShape"/><path fill="#ff6645" d="M356.65 315.86H248.78a9.41 9.41 0 0 1-9.4-9.4v-78.7a7.8 7.8 0 0 1 7.79-7.78h111.09a7.79 7.79 0 0 1 7.78 7.78v78.7a9.41 9.41 0 0 1-9.39 9.4Zm-109.48-94.23a6.14 6.14 0 0 0-6.14 6.13v78.7a7.76 7.76 0 0 0 7.75 7.75h107.87a7.75 7.75 0 0 0 7.74-7.75v-78.7a6.14 6.14 0 0 0-6.13-6.13Z" class="colorff6645 svgShape"/><path fill="#2b173f" d="M350 224.67a1.08 1.08 0 1 0 1.08 1.08 1.07 1.07 0 0 0-1.08-1.08Z" class="color2b173f svgShape"/><path fill="url(#w)" d="M354.58 224.67a1.08 1.08 0 1 0 1.08 1.08 1.08 1.08 0 0 0-1.08-1.08Z"/><path fill="url(#x)" d="M359.13 224.67a1.08 1.08 0 1 0 1.08 1.08 1.08 1.08 0 0 0-1.08-1.08Z"/><path fill="#ff6645" d="M273.71 231.99h91.1v1.6h-91.1z" class="colorff6645 svgShape"/><path fill="url(#y)" d="m364.39 246.4-36.81 21.88-20.27-7.23-24.78 20.38-18.17-3.22-23.29 15.65v1.42l23.66-15.77 18.1 3.2 24.68-20.33 20.21 7.19 36.67-21.88v-1.29z"/><path fill="url(#z)" d="M304.22 262a3.3 3.3 0 0 1 3.06-3.35 3 3 0 0 1 3.31 2.85 3.28 3.28 0 0 1-3 3.35 3 3 0 0 1-3.37-2.85Z"/><path fill="url(#A)" d="M279.43 282.16a3.44 3.44 0 0 1 3.18-3.45 3 3 0 0 1 3.39 2.87 3.44 3.44 0 0 1-3.17 3.46 3 3 0 0 1-3.4-2.88Z"/><path fill="url(#B)" d="M261.36 279.27a3.5 3.5 0 0 1 3.25-3.48 3.07 3.07 0 0 1 3.39 2.91 3.51 3.51 0 0 1-3.24 3.48 3.06 3.06 0 0 1-3.4-2.91Z"/><path fill="url(#C)" d="M324.58 268.91a3.25 3.25 0 0 1 3-3.34 3 3 0 0 1 3.27 2.82 3.26 3.26 0 0 1-3 3.34 3 3 0 0 1-3.27-2.82Z"/><path fill="url(#D)" d="m364.42 271.34-32.92 13.24-19.35-10.33-28.09 16.65-17.65-5.97-25.34 11.92v1.31l25.51-11.88 17.58 5.94 27.99-16.6 19.29 10.28 32.98-13.32v-1.24z"/><path fill="url(#E)" d="M308.9 274.71a3.36 3.36 0 0 1 3.61-2.89 3 3 0 0 1 2.89 3.34 3.37 3.37 0 0 1-3.61 2.9 3 3 0 0 1-2.89-3.35Z"/><path fill="url(#F)" d="M280.85 291.15a3.5 3.5 0 0 1 3.72-3 3.06 3.06 0 0 1 2.95 3.39 3.53 3.53 0 0 1-3.72 3 3.06 3.06 0 0 1-2.95-3.39Z"/><path fill="url(#G)" d="M263.26 285.53a3.54 3.54 0 0 1 3.78-3 3.06 3.06 0 0 1 3 3.41 3.56 3.56 0 0 1-3.77 3 3.06 3.06 0 0 1-3.01-3.41Z"/><path fill="url(#H)" d="M328.36 284.75a3.34 3.34 0 0 1 3.56-2.89 3 3 0 0 1 2.87 3.32 3.34 3.34 0 0 1-3.55 2.9 3 3 0 0 1-2.88-3.33Z"/><path fill="url(#I)" d="M250.27 309.32h10.36v4.89h-10.36z"/><path fill="url(#J)" d="M267.89 299.95h10.36v14.26h-10.36z"/><path fill="url(#K)" d="M287.54 305.87h10.36v8.34h-10.36z"/><path fill="url(#L)" d="M307.19 289.72h10.36v24.48h-10.36z"/><path fill="url(#M)" d="M326.84 297.21h10.36v16.99h-10.36z"/><path fill="url(#N)" d="M346.49 287.88h10.36v26.32h-10.36z"/><path fill="url(#O)" fill-rule="evenodd" d="M197.83 68.34a8.52 8.52 0 1 1-8.51-8.52 8.51 8.51 0 0 1 8.51 8.52Z"/><path fill="#1a120e" d="M190.7 75.73a8.63 8.63 0 1 1 8.63-8.63 8.64 8.64 0 0 1-8.63 8.63Zm0-17a8.4 8.4 0 1 0 8.4 8.4 8.41 8.41 0 0 0-8.4-8.43Z" class="color1a120e svgShape"/><path fill="#131313" d="M72.95 350.92h262v1.99h-262z" class="color131313 svgShape"/><path fill="url(#d)" d="M223.29 91.09a1.24 1.24 0 1 0 0-1.76 1.25 1.25 0 0 0 0 1.76Z"/><path fill="url(#P)" d="M339.69 193.11a.86.86 0 1 0 1.18-1.24.86.86 0 0 0-1.18 1.24Z"/><path fill="url(#Q)" d="M313.7 55.54a2.49 2.49 0 1 0-.08-3.51 2.49 2.49 0 0 0 .08 3.51Z"/><path fill="url(#R)" d="M259.55 55a1.62 1.62 0 1 1 2.29-.13 1.62 1.62 0 0 1-2.29.13Z"/><path fill="url(#S)" d="M358 155.35a3.25 3.25 0 1 1 4.59-.25 3.24 3.24 0 0 1-4.59.25Z"/><g clip-path="url(#T)" fill="#000000" class="color000 svgShape"><path fill="#1a120e" d="M163.47 360.46c17.41-3.45 91.41-6.77 109.7-1 27.93 8.75 29.78 43.75 16.19 56.75-25.34 24.23-120.22 13.92-136 6.3-45.86-22.21-7.29-58.59 10.11-62.05Z" class="color1a120e svgShape"/><path fill="#1a120e" d="M239.51 421.17c-7.69 8.38-21 13.59-36 16.77-3 .63-6 1.18-9.14 1.66-1 .16-2 .29-3 .44-28.56 4-59.55 2.17-69.64 1.41-18.1-1.37-29-12.12-32.29-24.85-.13-.44-.23-.89-.32-1.34a33.83 33.83 0 0 1-.66-10.1c1-11.84 8.14-23.5 21.64-29.7l.13-.07c2-.91 4-1.78 6-2.59 2.54-1 5.07-2 7.56-2.87l.36-.12q4.1-1.44 8.09-2.56c.44-.13.86-.26 1.29-.36 2-.57 4-1.07 5.93-1.52a140.92 140.92 0 0 1 19.44-3.14q3-.28 5.84-.42l1.79-.1h9.14c4.18.1 8.17.37 12 .78.39 0 .77.06 1.16.11a174.19 174.19 0 0 1 17.8 2.89c5.35 1.14 9.91 2.32 13.6 3.21 9.77 2.3 16.57 7.62 20.77 14.12 8.18 12.43 6.85 29.25-1.49 38.35Z" class="color1a120e svgShape"/><path fill="#1a120e" d="M291.86 493.72s-1.78 2.62-7.25 6c-.89.55-1.91 1.14-3 1.73-5.43 2.9-13.47 6.08-25.13 8.56-1.2.26-2.45.5-3.74.74-4.45.86-9.37 1.59-14.81 2.17 0 0-21.91-38.16-36.94-62.72-2.53-4.14-4.8-7.77-6.63-10.61l-1.27-1.94a16.48 16.48 0 0 1-2.45-6.91c-3.2-21.59 21.23-63.23 46.47-51.54a12.85 12.85 0 0 1 3.95 3.61c4.87 6 11.45 18.32 18.32 32.76 16.62 34.98 32.48 78.15 32.48 78.15Z" class="color1a120e svgShape"/><path fill="#ff7761" d="M220.16 257.34s19.67 25.69 22.37 31.23c5.95 12.26-3.3 39.57-15.64 35.69s-36-23.43-47.51-42.94 22.62-44.84 40.78-23.98Z" class="colorff7761 svgShape"/><path fill="url(#U)" d="M148.33 222.57c-6.51 3.43-.28 2.83 3.45 20.35s22.09 46.4 40.34 65.59c0 0 38-14.09 40.31-42.42 0 0-40.6-34.53-51.47-44.69s-25.44-2.61-32.63 1.17Z"/><path fill="url(#V)" d="M194.93 365.52s-.82 2.86-24.27-3.11c-31.75-8.07-59.38 48.67-85.31 54 4.9-27.92 8.19-64-.13-91-15.69-50.83-2.6-90.18-2.6-90.18 3.43-7.35 7.46-12.7 12.1-15.46 27-16.1 88.28-19.44 99.85 23.14 6.35 23.43-7.05 111.95.36 122.61Z"/><path fill="#1a120e" d="M192.28 330.47h1.06c0-.16.36-15.45 1.74-28.33s.13-53.87.12-54.28h-1.06c0 .41 1.26 41.25-.12 54.14s-1.75 28.32-1.74 28.47Z" class="color1a120e svgShape"/><path fill="#ffb099" d="m153.81 186.69 1.74 23c-.63 2.14-4 11.57-26.32 2l-1.32-31.06a221.48 221.48 0 0 0 25.9 6.06Z" class="colorffb099 svgShape"/><path fill="#ff7761" d="M153.15 208.05s-9 7.45-23.87-17.32c0 0 .2-2.13.26-2.08 15.36 9.46 26.23 6.45 23.61 19.4Z" class="colorff7761 svgShape"/><path fill="#ffb099" d="M154.41 202.18c-6.69 2.13-21.81-3-26.5-8.22-1.67-1.86-3.17-7.76-3.2-10.84-.08-9.64-.45-18.29 5.56-22.89 2.54-1.94 10-3.41 12.83-3.73 9.27-1 13.25 5.41 16.19 14.25 3.29 9.92 6.9 27.69-4.88 31.43Z" class="colorffb099 svgShape"/><path fill="#1a120e" d="M154 185.87c.57-.37 3.45-2.34 3.46-4a1.42 1.42 0 0 0-.69-1.21c-3.43-2.27-4.25-6.61-4.37-7.42a4.84 4.84 0 0 1 4.6-2.76v-1.07a6 6 0 0 0-5.66 3.57l-.05.12v.13c0 .22.67 5.53 4.86 8.32.19.12.22.23.22.32 0 .78-1.78 2.31-3 3.1Z" class="color1a120e svgShape"/><path fill="#ffb099" d="M129.9 182.34a6.56 6.56 0 1 1-8.26-4.2 6.55 6.55 0 0 1 8.26 4.2Z" class="colorffb099 svgShape"/><path fill="#1a120e" d="M124.4 189a1.81 1.81 0 0 0 .82-.67c.6-.89-.11-1.66-.62-2.21s-.8-1-.6-1.33a5.43 5.43 0 0 1 .44-.61 2.54 2.54 0 0 0 .81-2 1.83 1.83 0 0 0-1.06-1.17 3.6 3.6 0 0 0-3.87.42l.68.81a2.55 2.55 0 0 1 2.7-.29c.3.16.48.32.51.45s-.31.71-.6 1.08a6.56 6.56 0 0 0-.54.76c-.6 1.09.21 2 .75 2.56s.62.74.52.9c-.49.73-2 .1-2.07.1l-.42 1a3.61 3.61 0 0 0 2.55.2ZM141.92 178.83c0 .08 0 .17.05.26a1.75 1.75 0 1 0 2.62-2 11.93 11.93 0 0 1-2.67 1.74ZM139.17 177c4.27-4.32 6.44-2.63 6.46-2.61l.69-.81c-.11-.1-2.88-2.41-7.91 2.68ZM158.15 229.74c8.18-.84 11.51-8.7 11.64-9l-1-.41c0 .08-3.23 7.6-10.77 8.38ZM170.89 344.7l.05-1.06c-.24 0-23.94-1.44-30.9-21.83l-1 .34c7.19 21.08 31.6 22.54 31.85 22.55Z" class="color1a120e svgShape"/><path fill="#1a120e" d="m129.55 174.73.68 7.79a8.42 8.42 0 0 1-2.42.65c-2.42-7.41-8.15-4-8.15-4-8.4-6.83-5.24-23.63 1.43-25.2 0 0 2.37-10.42 17.35-11s16.37 8.36 16.37 8.36 4.34.35 5.94 7.09-.62 15.12-.62 15.12l-1.86-5.78s-13.88 2.54-23.61-3.56c.58 7.9-5.11 10.53-5.11 10.53Z" class="color1a120e svgShape"/><path fill="#1a120e" d="M145.5 178.5a1.86 1.86 0 1 1-2.11-1.56 1.85 1.85 0 0 1 2.11 1.56ZM158.44 175.08a1.85 1.85 0 1 1-2.11-1.57 1.86 1.86 0 0 1 2.11 1.57Z" class="color1a120e svgShape"/><path fill="#ffb099" d="M227.92 285.25c.42 4.18-6.11.17-6.95-.35.68.5 4.74 3.64 3.64 4.7s-5.35.72-8.24-1.42a27.07 27.07 0 0 0-3.31-2 10 10 0 0 1-2.95 10.31 6.75 6.75 0 0 0-1.32 2 28.72 28.72 0 0 0-1.18 2.76 1.62 1.62 0 0 1-.38.53 2.25 2.25 0 0 1-.56.64c-.52.4-1.1.86-1.69 1.36-3.32 3.58-38.6 25.33-56.36 32.11-6.34 2.42-9.05 3.42-12.81 2.32a8.51 8.51 0 0 1-3.68-1.18c-5.93-3.61-13.42-11.73-20-21.82A108.66 108.66 0 0 1 99 287.76a15.5 15.5 0 0 1-.7-4.28 13.8 13.8 0 0 1 0-1.44c1.15-18.16 33.84-29.39 45.08-7.51 0 0 3.58 8.21 7.12 16.78.67 1.58 1.32 3.18 2 4.74 2.89-1 10.83.67 13.88.23 8.38-1.68 17.72-.65 25.07-3 .55-.17 1.07-.37 1.58-.58a2.31 2.31 0 0 1 .41-.16c.75-.31 1.52-.32 2.22-.6a53.6 53.6 0 0 1 4.93-11.33c.23-.39.46-.76.68-1.12 5.64-9.1 9.56-8.75 18.58-7.24 9.39 1.55 2.93 4.34.6 4.79-1.36.27-4.44.1-6.91.54.39 0 .8.09 1.24.17a32.41 32.41 0 0 1 9.35 3.13c2.06 1.12 3.62 2.57 3.79 4.37Z" class="colorffb099 svgShape"/><path fill="url(#W)" d="M96.92 220.91c-7 1.73-14.58 6.34-15.14 23.87s10.12 49.3 23 71.82c0 0 39.44-4.48 48.28-30.88 0 0-21-39.83-29-52S104.64 219 96.92 220.91Z"/><path fill="#1a120e" d="M111 289.34a24.63 24.63 0 0 1-20.6-19.66l1-.23a23.57 23.57 0 0 0 19.66 18.82Z" class="color1a120e svgShape"/><path fill="#ff7761" d="M227.92 285.25c.42 4.18-6.11.17-6.95-.35.68.5 4.74 3.64 3.64 4.7s-5.35.72-8.24-1.42a27.07 27.07 0 0 0-3.31-2 10 10 0 0 1-2.95 10.31 6.75 6.75 0 0 0-1.32 2h-.52l-16.83-5.33c.55-.17 1.07-.37 1.58-.58a2.31 2.31 0 0 1 .41-.16c.75-.31 1.52-.32 2.22-.6a53.6 53.6 0 0 1 4.93-11.33c.23-.39.46-.76.68-1.12.58 0 18.64-.17 22.86 1.39 2.07 1.24 3.63 2.69 3.8 4.49ZM153 295.9s20.86 17.34 30.72 21.88l12-7.37-26.49-12-10.53-2.83s-4.52.12-5.7.32Z" class="colorff7761 svgShape"/><path fill="#ffb099" d="M228.54 323.92c-16.75-.41-55.44-18.66-69.61-27.62a1.89 1.89 0 0 0-.62-.19 8.55 8.55 0 0 0-5.8-.07c-.63-1.57-1.28-3.17-2-4.76a32.57 32.57 0 0 0 2.5-5.56l-1.01-2.06c1.8-1.84 4.42-3.14 9.35-2.11 17.07 5.53 68.45.34 74.95 2.34 20.77 6.38 13.28 40.53-7.76 40.03Z" class="colorffb099 svgShape"/><path fill="#200406" d="M149.72 192s5.24 1 8.74-2.92c0 0-.5 5.15-3.38 5.62s-5.36-2.7-5.36-2.7Z" class="color200406 svgShape"/><path fill="#1a120e" d="M301.1 379.1c3.06 15.88 6.3 44.15 7.65 65.62s3.76 52 3.76 52-43.69 13.72-76.74-7.55c0 0 1.64-80.47 2.32-99.93 1.29-37.3 57.52-38.58 63.01-10.14Z" class="color1a120e svgShape"/><path fill="#1a120e" d="m236.91 488.75-1.18.08c0-.6-3.59-60 8.15-94.4l1.12.38c-11.67 34.19-8.12 93.35-8.09 93.94ZM104.51 317.17l-.18-.23C90.37 299.2 83 261.25 82.9 260.87l1.07-.2c.07.37 7.36 37.72 21 55.36a86 86 0 0 0 29.3-9.82l.53 1a86.58 86.58 0 0 1-30 10Z" class="color1a120e svgShape"/><path fill="#1a120e" d="M146.08 260.27h1.09v27.06h-1.09z" transform="rotate(-28.28 146.629 273.8)" class="color1a120e svgShape"/></g><path fill="url(#X)" d="M82.94 143.79a2.09 2.09 0 1 1 2.64-1.34 2.09 2.09 0 0 1-2.64 1.34Z"/><path fill="url(#Y)" d="M82 98.21a1.62 1.62 0 1 1 2-1 1.62 1.62 0 0 1-2 1Z"/><path fill="url(#Z)" d="M314.92 99.83a1.62 1.62 0 1 1 2-1 1.61 1.61 0 0 1-2 1Z"/><path fill="url(#aa)" d="M120.44 96.52a3.25 3.25 0 1 1 4.1-2.07 3.24 3.24 0 0 1-4.1 2.07Z"/></svg>